<?xml version="1.0" encoding="UTF-8" standalone="no"?>
<!DOCTYPE svg PUBLIC "-//W3C//DTD SVG 1.1//EN" "http://www.w3.org/Graphics/SVG/1.1/DTD/svg11.dtd">
<svg width="100%" height="100%" viewBox="0 0 2351 712" version="1.1" xmlns="http://www.w3.org/2000/svg" xmlns:xlink="http://www.w3.org/1999/xlink" xml:space="preserve" xmlns:serif="http://www.serif.com/" style="fill-rule:evenodd;clip-rule:evenodd;stroke-linejoin:round;stroke-miterlimit:2;">
    <g transform="matrix(5.55556,0,0,5.55556,0,0)">
        <g id="Logo">
            <g transform="matrix(1,0,0,-1,0,125.168)">
                <path d="M84.234,-0.766C83.023,0.691 82.766,3.77 83.438,8.672C84.387,15.555 84.16,16.25 79.164,21.781C73.711,27.816 72.602,32.012 75.656,35.066C78.078,37.488 81.266,37.281 84.332,34.504C86.398,32.633 86.746,30.625 86.098,24.32C85.324,16.816 85.527,16.219 90.633,10.961C96.207,5.223 97.207,1.828 94.215,-1.164C91.781,-3.598 86.406,-3.383 84.234,-0.766ZM43.781,23.906C42.289,26.039 41.488,30.453 41.488,36.57C41.488,46.59 40.711,47.828 27.73,58.445C23.012,62.305 22.609,68.027 26.762,72.18C33.738,79.16 43.738,72.395 42.051,61.84C40.637,53.004 43.746,46.16 51.805,40.371C61.434,33.453 63.023,28.914 57.688,23.578C53.688,19.574 46.699,19.742 43.781,23.906ZM74.25,65.047C69.41,69.887 73.336,77.473 81.387,78.832C90.152,80.313 96.277,86.277 96.277,93.336C96.277,100.523 91.969,105.195 82.422,108.367C77.219,110.094 74.777,111.824 73.758,114.504C70.781,122.328 80.426,128.766 86.312,122.883C87.59,121.606 89.359,117.668 90.25,114.133C92.145,106.613 94.574,104.156 102.609,101.633C110.488,99.156 112.184,97.602 112.184,92.848C112.184,88.031 108.129,83.984 103.23,83.91C97.074,83.82 92.594,80.145 88.699,71.977C85.516,65.293 84.258,64.016 80.512,63.645C78.078,63.406 75.262,64.035 74.25,65.047ZM47.242,88.797C45.949,89.785 43.527,93.676 41.863,97.449C39.336,103.168 36.832,106.086 30.59,108.949C22.57,112.629 21.289,114.059 23.969,117.289C26.711,120.59 29.266,119.633 32.746,114.004C36.629,107.719 43.582,103.125 49.223,103.117C53.922,103.109 59.164,98.492 59.164,94.356C59.164,91.543 54.066,86.863 51.102,86.957C50.27,86.98 48.531,87.809 47.242,88.797Z" style="fill:rgb(24,37,64);fill-rule:nonzero;"/>
            </g>
            <g transform="matrix(0,1,-1,0,170.504,63.91)">
                <circle cx="53.297" cy="117.207" r="8.223" style="fill:rgb(166,28,53);"/>
            </g>
            <g transform="matrix(1,0,0,-1,0,145.586)">
                <path d="M17.738,28.875C13,34.621 20.051,40.613 23.367,44.945C27.293,51.164 20.465,58.102 23.617,64.172C27.312,70.531 38.062,64.984 34.262,58.281C31.703,52.309 24.309,48.047 26.855,40.52C29.832,35.504 28.891,26.02 21.191,27.172C19.941,27.484 18.656,27.926 17.738,28.875ZM93.492,31.633C87.551,35.75 88.777,45.504 95.211,48.492C101.484,52.918 108.645,57.274 111.305,64.934C114.387,70.266 112.438,81.32 120.668,81.527C129.086,80.543 126.191,70.996 120.414,68.449C112.266,62.293 110.602,51.594 109.637,42.102C109.594,35.887 105.23,29.445 98.73,28.805C96.703,29.094 95.074,30.445 93.492,31.633ZM73.703,59.805C69.473,65.137 72.973,73.41 79.969,73.531C87.145,74.633 92.312,80.199 93.746,87.184C94.438,93.898 104.738,100.231 107.969,91.789C111.547,83.363 101.008,80.551 95.277,78.145C87.59,75.035 88.25,65.727 83.477,60.297C80.961,57.629 76.32,56.844 73.703,59.805ZM2.152,76.992C-3.395,81.848 2.938,89.066 8.168,90.848C14.723,94.164 20.629,100.57 20.102,108.379C19.242,114.863 26.539,119.566 31.957,115.758C38.016,112.191 37.16,103.492 43.355,100.074C48.926,95.832 59.297,98.297 61.156,89.684C62.781,82.266 51.949,79.723 47.98,84.887C44.871,90.828 42.188,98.406 35.203,100.832C28.375,103.199 20.371,99.387 17.906,92.594C15.91,86.203 16.031,77.422 8.82,74.379C6.301,73.621 3.758,75.148 2.152,76.992Z" style="fill:rgb(166,28,53);fill-rule:nonzero;"/>
            </g>
            <g transform="matrix(0,1,-1,0,171.336,-65.621)">
                <circle cx="118.479" cy="52.858" r="5.654" style="fill:rgb(166,28,53);"/>
            </g>
            <g transform="matrix(0,1,-1,0,110.865,-47.256)">
                <ellipse cx="79.061" cy="31.805" rx="8.223" ry="8.221" style="fill:rgb(166,28,53);"/>
            </g>
            <g transform="matrix(0,1,-1,0,54.425,-36.504)">
                <circle cx="45.465" cy="8.96" r="6.937" style="fill:rgb(166,28,53);"/>
            </g>
            <g transform="matrix(0,1,-1,0,126.283,20.123)">
                <ellipse cx="53.08" cy="73.203" rx="3.723" ry="3.721" style="fill:rgb(24,37,64);"/>
            </g>
            <g transform="matrix(0,1,-1,0,143.566,73.2385)">
                <ellipse cx="35.164" cy="108.402" rx="3.722" ry="3.723" style="fill:rgb(24,37,64);"/>
            </g>
            <g transform="matrix(0,1,-1,0,192.389,36.955)">
                <ellipse cx="77.717" cy="114.672" rx="3.723" ry="3.721" style="fill:rgb(24,37,64);"/>
            </g>
            <g transform="matrix(0,1,-1,0,211.201,-25.756)">
                <ellipse cx="118.479" cy="92.723" rx="3.723" ry="3.721" style="fill:rgb(24,37,64);"/>
            </g>
            <g transform="matrix(0,1,-1,0,113.106,-84.4335)">
                <ellipse cx="98.77" cy="14.336" rx="3.723" ry="3.722" style="fill:rgb(24,37,64);"/>
            </g>
            <g transform="matrix(0,1,-1,0,178.504,-19.035)">
                <circle cx="98.769" cy="79.735" r="6.937" style="fill:rgb(24,37,64);"/>
            </g>
            <g transform="matrix(0,1,-1,0,53.082,32.027)">
                <circle cx="10.528" cy="42.555" r="3.723" style="fill:rgb(166,28,53);"/>
            </g>
            <g transform="matrix(0,1,-1,0,97.426,79.957)">
                <circle cx="8.734" cy="88.692" r="5.653" style="fill:rgb(24,37,64);"/>
            </g>
        </g>
        <g id="Text">
            <g transform="matrix(23,0,0,23,141.535,62.9278)">
                <path d="M0.189,-0.252L0.496,-0.252L0.343,-0.624L0.189,-0.252ZM0.084,-0L0,-0L0.308,-0.708L0.378,-0.708L0.686,-0L0.602,-0L0.524,-0.186L0.162,-0.186L0.084,-0Z" style="fill:rgb(24,37,64);fill-rule:nonzero;"/>
            </g>
            <g transform="matrix(23,0,0,23,157.309,62.9278)">
                <path d="M0.168,-0.395L0.284,-0.395C0.316,-0.395 0.343,-0.398 0.365,-0.405C0.388,-0.412 0.406,-0.42 0.419,-0.431C0.432,-0.442 0.442,-0.455 0.448,-0.47C0.454,-0.485 0.457,-0.502 0.457,-0.519C0.457,-0.536 0.454,-0.551 0.448,-0.566C0.442,-0.581 0.432,-0.595 0.419,-0.606C0.406,-0.617 0.388,-0.626 0.365,-0.632C0.343,-0.639 0.316,-0.642 0.284,-0.642L0.168,-0.642L0.168,-0.395ZM0.096,-0.708L0.302,-0.708C0.374,-0.708 0.431,-0.692 0.472,-0.661C0.514,-0.63 0.535,-0.582 0.535,-0.519C0.535,-0.456 0.514,-0.408 0.472,-0.376C0.431,-0.345 0.374,-0.329 0.302,-0.329L0.168,-0.329L0.168,-0L0.096,-0L0.096,-0.708Z" style="fill:rgb(24,37,64);fill-rule:nonzero;"/>
            </g>
            <g transform="matrix(23,0,0,23,170.506,62.9278)">
                <path d="M0.168,-0.395L0.284,-0.395C0.316,-0.395 0.343,-0.398 0.365,-0.405C0.388,-0.412 0.406,-0.42 0.419,-0.431C0.432,-0.442 0.442,-0.455 0.448,-0.47C0.454,-0.485 0.457,-0.502 0.457,-0.519C0.457,-0.536 0.454,-0.551 0.448,-0.566C0.442,-0.581 0.432,-0.595 0.419,-0.606C0.406,-0.617 0.388,-0.626 0.365,-0.632C0.343,-0.639 0.316,-0.642 0.284,-0.642L0.168,-0.642L0.168,-0.395ZM0.096,-0.708L0.302,-0.708C0.374,-0.708 0.431,-0.692 0.472,-0.661C0.514,-0.63 0.535,-0.582 0.535,-0.519C0.535,-0.456 0.514,-0.408 0.472,-0.376C0.431,-0.345 0.374,-0.329 0.302,-0.329L0.168,-0.329L0.168,-0L0.096,-0L0.096,-0.708Z" style="fill:rgb(24,37,64);fill-rule:nonzero;"/>
            </g>
            <g transform="matrix(23,0,0,23,183.704,62.9278)">
                <path d="M0.168,-0.066L0.498,-0.066L0.498,-0L0.096,-0L0.096,-0.708L0.168,-0.708L0.168,-0.066Z" style="fill:rgb(24,37,64);fill-rule:nonzero;"/>
            </g>
            <g transform="matrix(23,0,0,23,195.2,62.9278)">
                <rect x="0.096" y="-0.708" width="0.072" height="0.708" style="fill:rgb(24,37,64);fill-rule:nonzero;"/>
            </g>
            <g transform="matrix(23,0,0,23,201.268,62.9278)">
                <path d="M0.168,-0.066L0.547,-0.066L0.547,-0L0.096,-0L0.096,-0.708L0.535,-0.708L0.535,-0.642L0.168,-0.642L0.168,-0.401L0.511,-0.401L0.511,-0.335L0.168,-0.335L0.168,-0.066Z" style="fill:rgb(24,37,64);fill-rule:nonzero;"/>
            </g>
            <g transform="matrix(23,0,0,23,214.903,62.9278)">
                <path d="M0.158,-0.066L0.298,-0.066C0.352,-0.066 0.399,-0.074 0.438,-0.09C0.478,-0.107 0.511,-0.128 0.537,-0.155C0.564,-0.182 0.583,-0.213 0.596,-0.247C0.609,-0.282 0.615,-0.317 0.615,-0.354C0.615,-0.391 0.609,-0.426 0.596,-0.46C0.583,-0.495 0.564,-0.525 0.537,-0.552C0.511,-0.579 0.478,-0.601 0.438,-0.617C0.399,-0.634 0.352,-0.642 0.298,-0.642L0.158,-0.642L0.158,-0.066ZM0.086,-0.708L0.321,-0.708C0.365,-0.708 0.409,-0.701 0.453,-0.686C0.498,-0.671 0.538,-0.649 0.573,-0.619C0.609,-0.59 0.638,-0.553 0.66,-0.508C0.682,-0.464 0.693,-0.413 0.693,-0.354C0.693,-0.295 0.682,-0.243 0.66,-0.199C0.638,-0.155 0.609,-0.118 0.573,-0.088C0.538,-0.059 0.498,-0.037 0.453,-0.022C0.409,-0.007 0.365,-0 0.321,-0L0.086,-0L0.086,-0.708Z" style="fill:rgb(24,37,64);fill-rule:nonzero;"/>
            </g>
            <g transform="matrix(23,0,0,23,238.336,62.9278)">
                <path d="M0.158,-0.066L0.298,-0.066C0.352,-0.066 0.399,-0.074 0.438,-0.09C0.478,-0.107 0.511,-0.128 0.537,-0.155C0.564,-0.182 0.583,-0.213 0.596,-0.247C0.609,-0.282 0.615,-0.317 0.615,-0.354C0.615,-0.391 0.609,-0.426 0.596,-0.46C0.583,-0.495 0.564,-0.525 0.537,-0.552C0.511,-0.579 0.478,-0.601 0.438,-0.617C0.399,-0.634 0.352,-0.642 0.298,-0.642L0.158,-0.642L0.158,-0.066ZM0.086,-0.708L0.321,-0.708C0.365,-0.708 0.409,-0.701 0.453,-0.686C0.498,-0.671 0.538,-0.649 0.573,-0.619C0.609,-0.59 0.638,-0.553 0.66,-0.508C0.682,-0.464 0.693,-0.413 0.693,-0.354C0.693,-0.295 0.682,-0.243 0.66,-0.199C0.638,-0.155 0.609,-0.118 0.573,-0.088C0.538,-0.059 0.498,-0.037 0.453,-0.022C0.409,-0.007 0.365,-0 0.321,-0L0.086,-0L0.086,-0.708Z" style="fill:rgb(24,37,64);fill-rule:nonzero;"/>
            </g>
            <g transform="matrix(23,0,0,23,255.375,62.9278)">
                <path d="M0.189,-0.252L0.496,-0.252L0.343,-0.624L0.189,-0.252ZM0.084,-0L0,-0L0.308,-0.708L0.378,-0.708L0.686,-0L0.602,-0L0.524,-0.186L0.162,-0.186L0.084,-0Z" style="fill:rgb(24,37,64);fill-rule:nonzero;"/>
            </g>
            <g transform="matrix(23,0,0,23,269.585,62.9278)">
                <path d="M0.323,-0L0.251,-0L0.251,-0.642L0.014,-0.642L0.014,-0.708L0.56,-0.708L0.56,-0.642L0.323,-0.642L0.323,-0Z" style="fill:rgb(24,37,64);fill-rule:nonzero;"/>
            </g>
            <g transform="matrix(23,0,0,23,281.219,62.9278)">
                <path d="M0.189,-0.252L0.496,-0.252L0.343,-0.624L0.189,-0.252ZM0.084,-0L0,-0L0.308,-0.708L0.378,-0.708L0.686,-0L0.602,-0L0.524,-0.186L0.162,-0.186L0.084,-0Z" style="fill:rgb(24,37,64);fill-rule:nonzero;"/>
            </g>
            <g transform="matrix(23,0,0,23,303.387,62.9278)">
                <path d="M0.431,-0.591C0.4,-0.637 0.354,-0.66 0.294,-0.66C0.275,-0.66 0.257,-0.657 0.239,-0.652C0.221,-0.647 0.205,-0.64 0.19,-0.629C0.176,-0.619 0.165,-0.606 0.156,-0.589C0.147,-0.573 0.143,-0.554 0.143,-0.532C0.143,-0.5 0.152,-0.475 0.17,-0.457C0.188,-0.44 0.21,-0.425 0.237,-0.414C0.264,-0.403 0.293,-0.392 0.324,-0.383C0.356,-0.374 0.385,-0.362 0.412,-0.347C0.439,-0.332 0.461,-0.313 0.479,-0.288C0.497,-0.263 0.506,-0.23 0.506,-0.187C0.506,-0.155 0.499,-0.126 0.485,-0.1C0.472,-0.075 0.454,-0.053 0.431,-0.036C0.409,-0.019 0.384,-0.005 0.356,0.004C0.329,0.013 0.301,0.018 0.273,0.018C0.23,0.018 0.188,0.01 0.149,-0.006C0.11,-0.023 0.077,-0.05 0.05,-0.087L0.115,-0.134C0.13,-0.108 0.152,-0.087 0.179,-0.071C0.206,-0.056 0.239,-0.048 0.276,-0.048C0.294,-0.048 0.312,-0.051 0.33,-0.056C0.348,-0.062 0.364,-0.07 0.378,-0.081C0.393,-0.092 0.405,-0.106 0.414,-0.122C0.423,-0.138 0.428,-0.156 0.428,-0.177C0.428,-0.202 0.423,-0.222 0.412,-0.238C0.402,-0.255 0.388,-0.268 0.371,-0.279C0.354,-0.29 0.335,-0.3 0.313,-0.307C0.292,-0.314 0.269,-0.322 0.246,-0.329C0.223,-0.336 0.201,-0.345 0.179,-0.354C0.158,-0.363 0.138,-0.375 0.121,-0.389C0.104,-0.404 0.091,-0.422 0.08,-0.443C0.07,-0.465 0.065,-0.492 0.065,-0.525C0.065,-0.559 0.071,-0.589 0.084,-0.614C0.097,-0.639 0.115,-0.66 0.136,-0.677C0.158,-0.694 0.183,-0.706 0.21,-0.714C0.237,-0.722 0.265,-0.726 0.294,-0.726C0.334,-0.726 0.37,-0.72 0.403,-0.707C0.436,-0.694 0.466,-0.672 0.494,-0.64L0.431,-0.591Z" style="fill:rgb(24,37,64);fill-rule:nonzero;"/>
            </g>
            <g transform="matrix(23,0,0,23,316.171,62.9278)">
                <path d="M0.679,-0.112C0.667,-0.094 0.652,-0.077 0.634,-0.061C0.617,-0.045 0.597,-0.031 0.574,-0.019C0.551,-0.008 0.527,0.001 0.5,0.008C0.474,0.015 0.446,0.018 0.417,0.018C0.364,0.018 0.315,0.009 0.27,-0.01C0.225,-0.029 0.186,-0.054 0.153,-0.087C0.12,-0.12 0.095,-0.16 0.076,-0.205C0.057,-0.25 0.048,-0.3 0.048,-0.354C0.048,-0.408 0.057,-0.458 0.076,-0.503C0.095,-0.548 0.12,-0.587 0.153,-0.62C0.186,-0.653 0.225,-0.679 0.27,-0.698C0.315,-0.717 0.364,-0.726 0.417,-0.726C0.461,-0.726 0.505,-0.717 0.549,-0.7C0.593,-0.683 0.631,-0.654 0.662,-0.614L0.599,-0.567C0.592,-0.578 0.582,-0.59 0.569,-0.601C0.556,-0.612 0.542,-0.622 0.525,-0.631C0.509,-0.64 0.492,-0.647 0.473,-0.652C0.454,-0.657 0.436,-0.66 0.417,-0.66C0.372,-0.66 0.331,-0.652 0.295,-0.635C0.259,-0.618 0.228,-0.596 0.203,-0.568C0.178,-0.54 0.159,-0.507 0.146,-0.47C0.133,-0.433 0.126,-0.395 0.126,-0.354C0.126,-0.313 0.133,-0.274 0.146,-0.237C0.159,-0.2 0.178,-0.168 0.203,-0.14C0.228,-0.112 0.259,-0.09 0.295,-0.073C0.331,-0.056 0.372,-0.048 0.417,-0.048C0.436,-0.048 0.454,-0.05 0.472,-0.053C0.491,-0.056 0.509,-0.062 0.526,-0.07C0.544,-0.078 0.561,-0.089 0.576,-0.102C0.592,-0.116 0.607,-0.133 0.62,-0.154L0.679,-0.112Z" style="fill:rgb(24,37,64);fill-rule:nonzero;"/>
            </g>
            <g transform="matrix(23,0,0,23,332.359,62.9278)">
                <rect x="0.096" y="-0.708" width="0.072" height="0.708" style="fill:rgb(24,37,64);fill-rule:nonzero;"/>
            </g>
            <g transform="matrix(23,0,0,23,338.427,62.9278)">
                <path d="M0.168,-0.066L0.547,-0.066L0.547,-0L0.096,-0L0.096,-0.708L0.535,-0.708L0.535,-0.642L0.168,-0.642L0.168,-0.401L0.511,-0.401L0.511,-0.335L0.168,-0.335L0.168,-0.066Z" style="fill:rgb(24,37,64);fill-rule:nonzero;"/>
            </g>
            <g transform="matrix(23,0,0,23,352.062,62.9278)">
                <path d="M0.608,-0.108L0.61,-0.108L0.61,-0.708L0.682,-0.708L0.682,-0L0.592,-0L0.17,-0.606L0.168,-0.606L0.168,-0L0.096,-0L0.096,-0.708L0.186,-0.708L0.608,-0.108Z" style="fill:rgb(24,37,64);fill-rule:nonzero;"/>
            </g>
            <g transform="matrix(23,0,0,23,369.952,62.9278)">
                <path d="M0.679,-0.112C0.667,-0.094 0.652,-0.077 0.634,-0.061C0.617,-0.045 0.597,-0.031 0.574,-0.019C0.551,-0.008 0.527,0.001 0.5,0.008C0.474,0.015 0.446,0.018 0.417,0.018C0.364,0.018 0.315,0.009 0.27,-0.01C0.225,-0.029 0.186,-0.054 0.153,-0.087C0.12,-0.12 0.095,-0.16 0.076,-0.205C0.057,-0.25 0.048,-0.3 0.048,-0.354C0.048,-0.408 0.057,-0.458 0.076,-0.503C0.095,-0.548 0.12,-0.587 0.153,-0.62C0.186,-0.653 0.225,-0.679 0.27,-0.698C0.315,-0.717 0.364,-0.726 0.417,-0.726C0.461,-0.726 0.505,-0.717 0.549,-0.7C0.593,-0.683 0.631,-0.654 0.662,-0.614L0.599,-0.567C0.592,-0.578 0.582,-0.59 0.569,-0.601C0.556,-0.612 0.542,-0.622 0.525,-0.631C0.509,-0.64 0.492,-0.647 0.473,-0.652C0.454,-0.657 0.436,-0.66 0.417,-0.66C0.372,-0.66 0.331,-0.652 0.295,-0.635C0.259,-0.618 0.228,-0.596 0.203,-0.568C0.178,-0.54 0.159,-0.507 0.146,-0.47C0.133,-0.433 0.126,-0.395 0.126,-0.354C0.126,-0.313 0.133,-0.274 0.146,-0.237C0.159,-0.2 0.178,-0.168 0.203,-0.14C0.228,-0.112 0.259,-0.09 0.295,-0.073C0.331,-0.056 0.372,-0.048 0.417,-0.048C0.436,-0.048 0.454,-0.05 0.472,-0.053C0.491,-0.056 0.509,-0.062 0.526,-0.07C0.544,-0.078 0.561,-0.089 0.576,-0.102C0.592,-0.116 0.607,-0.133 0.62,-0.154L0.679,-0.112Z" style="fill:rgb(24,37,64);fill-rule:nonzero;"/>
            </g>
            <g transform="matrix(23,0,0,23,386.14,62.9278)">
                <path d="M0.168,-0.066L0.547,-0.066L0.547,-0L0.096,-0L0.096,-0.708L0.535,-0.708L0.535,-0.642L0.168,-0.642L0.168,-0.401L0.511,-0.401L0.511,-0.335L0.168,-0.335L0.168,-0.066Z" style="fill:rgb(24,37,64);fill-rule:nonzero;"/>
            </g>
            <g transform="matrix(23,0,0,23,141.535,91.6778)">
                <path d="M0.189,-0.252L0.496,-0.252L0.343,-0.624L0.189,-0.252ZM0.084,-0L0,-0L0.308,-0.708L0.378,-0.708L0.686,-0L0.602,-0L0.524,-0.186L0.162,-0.186L0.084,-0Z" style="fill:rgb(24,37,64);fill-rule:nonzero;"/>
            </g>
            <g transform="matrix(23,0,0,23,157.309,91.6778)">
                <path d="M0.168,-0.395L0.296,-0.395C0.328,-0.395 0.355,-0.398 0.377,-0.405C0.4,-0.412 0.418,-0.42 0.431,-0.431C0.444,-0.442 0.454,-0.455 0.46,-0.47C0.466,-0.485 0.469,-0.502 0.469,-0.519C0.469,-0.536 0.466,-0.551 0.46,-0.566C0.454,-0.581 0.444,-0.595 0.431,-0.606C0.418,-0.617 0.4,-0.626 0.377,-0.632C0.355,-0.639 0.328,-0.642 0.296,-0.642L0.168,-0.642L0.168,-0.395ZM0.168,-0L0.096,-0L0.096,-0.708L0.314,-0.708C0.386,-0.708 0.443,-0.692 0.484,-0.661C0.526,-0.63 0.547,-0.582 0.547,-0.519C0.547,-0.47 0.531,-0.428 0.5,-0.394C0.469,-0.361 0.425,-0.341 0.366,-0.336L0.57,-0L0.482,-0L0.288,-0.329L0.168,-0.329L0.168,-0Z" style="fill:rgb(24,37,64);fill-rule:nonzero;"/>
            </g>
            <g transform="matrix(23,0,0,23,171.083,91.6778)">
                <path d="M0.323,-0L0.251,-0L0.251,-0.642L0.014,-0.642L0.014,-0.708L0.56,-0.708L0.56,-0.642L0.323,-0.642L0.323,-0Z" style="fill:rgb(24,37,64);fill-rule:nonzero;"/>
            </g>
            <g transform="matrix(23,0,0,23,184.282,91.6778)">
                <rect x="0.096" y="-0.708" width="0.072" height="0.708" style="fill:rgb(24,37,64);fill-rule:nonzero;"/>
            </g>
            <g transform="matrix(23,0,0,23,190.351,91.6778)">
                <path d="M0.168,-0L0.096,-0L0.096,-0.708L0.523,-0.708L0.523,-0.642L0.168,-0.642L0.168,-0.401L0.498,-0.401L0.498,-0.335L0.168,-0.335L0.168,-0Z" style="fill:rgb(24,37,64);fill-rule:nonzero;"/>
            </g>
            <g transform="matrix(23,0,0,23,203.135,91.6778)">
                <rect x="0.096" y="-0.708" width="0.072" height="0.708" style="fill:rgb(24,37,64);fill-rule:nonzero;"/>
            </g>
            <g transform="matrix(23,0,0,23,209.204,91.6778)">
                <path d="M0.679,-0.112C0.667,-0.094 0.652,-0.077 0.634,-0.061C0.617,-0.045 0.597,-0.031 0.574,-0.019C0.551,-0.008 0.527,0.001 0.5,0.008C0.474,0.015 0.446,0.018 0.417,0.018C0.364,0.018 0.315,0.009 0.27,-0.01C0.225,-0.029 0.186,-0.054 0.153,-0.087C0.12,-0.12 0.095,-0.16 0.076,-0.205C0.057,-0.25 0.048,-0.3 0.048,-0.354C0.048,-0.408 0.057,-0.458 0.076,-0.503C0.095,-0.548 0.12,-0.587 0.153,-0.62C0.186,-0.653 0.225,-0.679 0.27,-0.698C0.315,-0.717 0.364,-0.726 0.417,-0.726C0.461,-0.726 0.505,-0.717 0.549,-0.7C0.593,-0.683 0.631,-0.654 0.662,-0.614L0.599,-0.567C0.592,-0.578 0.582,-0.59 0.569,-0.601C0.556,-0.612 0.542,-0.622 0.525,-0.631C0.509,-0.64 0.492,-0.647 0.473,-0.652C0.454,-0.657 0.436,-0.66 0.417,-0.66C0.372,-0.66 0.331,-0.652 0.295,-0.635C0.259,-0.618 0.228,-0.596 0.203,-0.568C0.178,-0.54 0.159,-0.507 0.146,-0.47C0.133,-0.433 0.126,-0.395 0.126,-0.354C0.126,-0.313 0.133,-0.274 0.146,-0.237C0.159,-0.2 0.178,-0.168 0.203,-0.14C0.228,-0.112 0.259,-0.09 0.295,-0.073C0.331,-0.056 0.372,-0.048 0.417,-0.048C0.436,-0.048 0.454,-0.05 0.472,-0.053C0.491,-0.056 0.509,-0.062 0.526,-0.07C0.544,-0.078 0.561,-0.089 0.576,-0.102C0.592,-0.116 0.607,-0.133 0.62,-0.154L0.679,-0.112Z" style="fill:rgb(24,37,64);fill-rule:nonzero;"/>
            </g>
            <g transform="matrix(23,0,0,23,225.393,91.6778)">
                <rect x="0.096" y="-0.708" width="0.072" height="0.708" style="fill:rgb(24,37,64);fill-rule:nonzero;"/>
            </g>
            <g transform="matrix(23,0,0,23,231.461,91.6778)">
                <path d="M0.189,-0.252L0.496,-0.252L0.343,-0.624L0.189,-0.252ZM0.084,-0L0,-0L0.308,-0.708L0.378,-0.708L0.686,-0L0.602,-0L0.524,-0.186L0.162,-0.186L0.084,-0Z" style="fill:rgb(24,37,64);fill-rule:nonzero;"/>
            </g>
            <g transform="matrix(23,0,0,23,247.236,91.6778)">
                <path d="M0.168,-0.066L0.498,-0.066L0.498,-0L0.096,-0L0.096,-0.708L0.168,-0.708L0.168,-0.066Z" style="fill:rgb(24,37,64);fill-rule:nonzero;"/>
            </g>
            <g transform="matrix(23,0,0,23,265.127,91.6778)">
                <rect x="0.096" y="-0.708" width="0.072" height="0.708" style="fill:rgb(24,37,64);fill-rule:nonzero;"/>
            </g>
            <g transform="matrix(23,0,0,23,271.196,91.6778)">
                <path d="M0.608,-0.108L0.61,-0.108L0.61,-0.708L0.682,-0.708L0.682,-0L0.592,-0L0.17,-0.606L0.168,-0.606L0.168,-0L0.096,-0L0.096,-0.708L0.186,-0.708L0.608,-0.108Z" style="fill:rgb(24,37,64);fill-rule:nonzero;"/>
            </g>
            <g transform="matrix(23,0,0,23,289.086,91.6778)">
                <path d="M0.323,-0L0.251,-0L0.251,-0.642L0.014,-0.642L0.014,-0.708L0.56,-0.708L0.56,-0.642L0.323,-0.642L0.323,-0Z" style="fill:rgb(24,37,64);fill-rule:nonzero;"/>
            </g>
            <g transform="matrix(23,0,0,23,302.285,91.6778)">
                <path d="M0.168,-0.066L0.547,-0.066L0.547,-0L0.096,-0L0.096,-0.708L0.535,-0.708L0.535,-0.642L0.168,-0.642L0.168,-0.401L0.511,-0.401L0.511,-0.335L0.168,-0.335L0.168,-0.066Z" style="fill:rgb(24,37,64);fill-rule:nonzero;"/>
            </g>
            <g transform="matrix(23,0,0,23,315.921,91.6778)">
                <path d="M0.168,-0.066L0.498,-0.066L0.498,-0L0.096,-0L0.096,-0.708L0.168,-0.708L0.168,-0.066Z" style="fill:rgb(24,37,64);fill-rule:nonzero;"/>
            </g>
            <g transform="matrix(23,0,0,23,327.418,91.6778)">
                <path d="M0.168,-0.066L0.498,-0.066L0.498,-0L0.096,-0L0.096,-0.708L0.168,-0.708L0.168,-0.066Z" style="fill:rgb(24,37,64);fill-rule:nonzero;"/>
            </g>
            <g transform="matrix(23,0,0,23,338.914,91.6778)">
                <rect x="0.096" y="-0.708" width="0.072" height="0.708" style="fill:rgb(24,37,64);fill-rule:nonzero;"/>
            </g>
            <g transform="matrix(23,0,0,23,344.983,91.6778)">
                <path d="M0.619,-0.578C0.595,-0.603 0.566,-0.623 0.533,-0.638C0.5,-0.653 0.461,-0.66 0.417,-0.66C0.372,-0.66 0.331,-0.652 0.295,-0.635C0.259,-0.618 0.228,-0.596 0.203,-0.568C0.178,-0.54 0.159,-0.507 0.146,-0.47C0.133,-0.433 0.126,-0.395 0.126,-0.354C0.126,-0.313 0.133,-0.274 0.146,-0.237C0.159,-0.2 0.178,-0.168 0.203,-0.14C0.228,-0.112 0.259,-0.09 0.295,-0.073C0.331,-0.056 0.372,-0.048 0.417,-0.048C0.454,-0.048 0.489,-0.052 0.522,-0.061C0.556,-0.07 0.586,-0.083 0.613,-0.098L0.613,-0.335L0.444,-0.335L0.444,-0.401L0.685,-0.401L0.685,-0.054C0.645,-0.031 0.601,-0.013 0.553,-0C0.506,0.012 0.46,0.018 0.417,0.018C0.364,0.018 0.315,0.009 0.27,-0.01C0.225,-0.029 0.186,-0.054 0.153,-0.087C0.12,-0.12 0.095,-0.16 0.076,-0.205C0.057,-0.25 0.048,-0.3 0.048,-0.354C0.048,-0.408 0.057,-0.458 0.076,-0.503C0.095,-0.548 0.12,-0.587 0.153,-0.62C0.186,-0.653 0.225,-0.679 0.27,-0.698C0.315,-0.717 0.364,-0.726 0.417,-0.726C0.474,-0.726 0.522,-0.718 0.563,-0.702C0.604,-0.687 0.641,-0.663 0.673,-0.631L0.619,-0.578Z" style="fill:rgb(24,37,64);fill-rule:nonzero;"/>
            </g>
            <g transform="matrix(23,0,0,23,362.874,91.6778)">
                <path d="M0.168,-0.066L0.547,-0.066L0.547,-0L0.096,-0L0.096,-0.708L0.535,-0.708L0.535,-0.642L0.168,-0.642L0.168,-0.401L0.511,-0.401L0.511,-0.335L0.168,-0.335L0.168,-0.066Z" style="fill:rgb(24,37,64);fill-rule:nonzero;"/>
            </g>
            <g transform="matrix(23,0,0,23,376.509,91.6778)">
                <path d="M0.608,-0.108L0.61,-0.108L0.61,-0.708L0.682,-0.708L0.682,-0L0.592,-0L0.17,-0.606L0.168,-0.606L0.168,-0L0.096,-0L0.096,-0.708L0.186,-0.708L0.608,-0.108Z" style="fill:rgb(24,37,64);fill-rule:nonzero;"/>
            </g>
            <g transform="matrix(23,0,0,23,394.4,91.6778)">
                <path d="M0.679,-0.112C0.667,-0.094 0.652,-0.077 0.634,-0.061C0.617,-0.045 0.597,-0.031 0.574,-0.019C0.551,-0.008 0.527,0.001 0.5,0.008C0.474,0.015 0.446,0.018 0.417,0.018C0.364,0.018 0.315,0.009 0.27,-0.01C0.225,-0.029 0.186,-0.054 0.153,-0.087C0.12,-0.12 0.095,-0.16 0.076,-0.205C0.057,-0.25 0.048,-0.3 0.048,-0.354C0.048,-0.408 0.057,-0.458 0.076,-0.503C0.095,-0.548 0.12,-0.587 0.153,-0.62C0.186,-0.653 0.225,-0.679 0.27,-0.698C0.315,-0.717 0.364,-0.726 0.417,-0.726C0.461,-0.726 0.505,-0.717 0.549,-0.7C0.593,-0.683 0.631,-0.654 0.662,-0.614L0.599,-0.567C0.592,-0.578 0.582,-0.59 0.569,-0.601C0.556,-0.612 0.542,-0.622 0.525,-0.631C0.509,-0.64 0.492,-0.647 0.473,-0.652C0.454,-0.657 0.436,-0.66 0.417,-0.66C0.372,-0.66 0.331,-0.652 0.295,-0.635C0.259,-0.618 0.228,-0.596 0.203,-0.568C0.178,-0.54 0.159,-0.507 0.146,-0.47C0.133,-0.433 0.126,-0.395 0.126,-0.354C0.126,-0.313 0.133,-0.274 0.146,-0.237C0.159,-0.2 0.178,-0.168 0.203,-0.14C0.228,-0.112 0.259,-0.09 0.295,-0.073C0.331,-0.056 0.372,-0.048 0.417,-0.048C0.436,-0.048 0.454,-0.05 0.472,-0.053C0.491,-0.056 0.509,-0.062 0.526,-0.07C0.544,-0.078 0.561,-0.089 0.576,-0.102C0.592,-0.116 0.607,-0.133 0.62,-0.154L0.679,-0.112Z" style="fill:rgb(24,37,64);fill-rule:nonzero;"/>
            </g>
            <g transform="matrix(23,0,0,23,410.589,91.6778)">
                <path d="M0.168,-0.066L0.547,-0.066L0.547,-0L0.096,-0L0.096,-0.708L0.535,-0.708L0.535,-0.642L0.168,-0.642L0.168,-0.401L0.511,-0.401L0.511,-0.335L0.168,-0.335L0.168,-0.066Z" style="fill:rgb(24,37,64);fill-rule:nonzero;"/>
            </g>
            <g transform="matrix(23,0,0,23,407.005,62.9958)">
                <path d="M0.254,-0.348C0.231,-0.335 0.211,-0.322 0.194,-0.31C0.178,-0.299 0.165,-0.286 0.155,-0.273C0.145,-0.26 0.138,-0.247 0.133,-0.232C0.128,-0.217 0.126,-0.201 0.126,-0.183C0.126,-0.163 0.13,-0.145 0.138,-0.128C0.146,-0.111 0.157,-0.097 0.17,-0.085C0.183,-0.074 0.199,-0.065 0.216,-0.058C0.233,-0.051 0.252,-0.048 0.271,-0.048C0.29,-0.048 0.308,-0.051 0.323,-0.056C0.339,-0.061 0.354,-0.069 0.367,-0.078C0.381,-0.087 0.394,-0.098 0.406,-0.111C0.418,-0.124 0.43,-0.137 0.441,-0.152L0.254,-0.348ZM0.402,-0.567C0.402,-0.595 0.392,-0.617 0.373,-0.634C0.354,-0.651 0.331,-0.66 0.304,-0.66C0.274,-0.66 0.249,-0.651 0.228,-0.632C0.208,-0.613 0.198,-0.588 0.198,-0.556C0.198,-0.544 0.201,-0.531 0.206,-0.518C0.212,-0.505 0.219,-0.493 0.226,-0.482C0.234,-0.471 0.242,-0.46 0.25,-0.45C0.259,-0.441 0.266,-0.434 0.272,-0.429C0.285,-0.437 0.3,-0.445 0.315,-0.453C0.33,-0.462 0.344,-0.471 0.357,-0.482C0.37,-0.493 0.381,-0.505 0.389,-0.519C0.398,-0.533 0.402,-0.549 0.402,-0.567ZM0.529,-0.164L0.688,-0L0.586,-0L0.486,-0.104C0.457,-0.066 0.425,-0.036 0.392,-0.014C0.359,0.007 0.318,0.018 0.27,0.018C0.241,0.018 0.212,0.013 0.185,0.004C0.158,-0.005 0.135,-0.018 0.114,-0.035C0.094,-0.052 0.078,-0.073 0.066,-0.098C0.054,-0.123 0.048,-0.152 0.048,-0.184C0.048,-0.21 0.052,-0.234 0.061,-0.255C0.07,-0.276 0.081,-0.295 0.096,-0.312C0.111,-0.329 0.129,-0.345 0.148,-0.358C0.167,-0.371 0.188,-0.383 0.209,-0.393C0.188,-0.416 0.168,-0.441 0.151,-0.468C0.134,-0.496 0.126,-0.526 0.126,-0.559C0.126,-0.586 0.13,-0.609 0.139,-0.63C0.148,-0.651 0.161,-0.668 0.177,-0.682C0.193,-0.697 0.212,-0.708 0.233,-0.715C0.254,-0.722 0.278,-0.726 0.303,-0.726C0.326,-0.726 0.348,-0.722 0.369,-0.715C0.39,-0.708 0.408,-0.698 0.423,-0.685C0.439,-0.672 0.451,-0.655 0.46,-0.635C0.469,-0.616 0.474,-0.593 0.474,-0.567C0.474,-0.544 0.469,-0.523 0.46,-0.504C0.451,-0.486 0.438,-0.469 0.423,-0.454C0.408,-0.439 0.392,-0.426 0.373,-0.414C0.354,-0.403 0.336,-0.392 0.318,-0.383L0.481,-0.215L0.578,-0.383L0.659,-0.383L0.529,-0.164Z" style="fill:rgb(166,28,53);fill-rule:nonzero;"/>
            </g>
        </g>
    </g>
</svg>
