<?xml version="1.0" encoding="UTF-8" standalone="no"?>
<!-- Created with Inkscape (http://www.inkscape.org/) -->

<svg
   version="1.1"
   id="svg833"
   xml:space="preserve"
   width="703.33014"
   height="305.21466"
   viewBox="0 0 703.33014 305.21466"
   xmlns="http://www.w3.org/2000/svg"
   xmlns:svg="http://www.w3.org/2000/svg"
   xmlns:rdf="http://www.w3.org/1999/02/22-rdf-syntax-ns#"
   xmlns:cc="http://creativecommons.org/ns#"
   xmlns:dc="http://purl.org/dc/elements/1.1/"><metadata
     id="metadata839"><rdf:RDF><cc:Work
         rdf:about=""><dc:format>image/svg+xml</dc:format><dc:type
           rdf:resource="http://purl.org/dc/dcmitype/StillImage" /></cc:Work></rdf:RDF></metadata><defs
     id="defs837"><clipPath
       clipPathUnits="userSpaceOnUse"
       id="clipPath3"><rect
         style="fill:#000000;stroke-width:0.75"
         id="rect4"
         width="494.7442"
         height="209.24446"
         x="57.108982"
         y="-495.18277"
         transform="scale(1,-1)" /></clipPath></defs><g
     id="g841"
     transform="matrix(1.3333333,0,0,-1.3333333,-52.370933,671.88627)"><g
       id="g845"
       transform="translate(5.5541679,4.6650178)"
       clip-path="url(#clipPath3)"><g
         id="g1010"><path
           d="m 425.152,786.4718 c -6.105,0 -11.054,-4.894 -11.054,-10.934 0,-5.421 3.988,-9.914 9.218,-10.781 l -0.191,-24.078 c -4.121,-0.812 -7.23,-4.41 -7.23,-8.727 0,-0.378 0.027,-0.753 0.074,-1.121 l -16.621,-7.148 c 0.367,-1.297 0.738,-2.648 1.125,-4.109 l 17.023,7.316 c 1.625,-2.312 4.328,-3.832 7.391,-3.832 3.152,0 5.922,1.605 7.527,4.031 l 27.75,-12.894 c -0.062,-0.543 -0.098,-1.098 -0.098,-1.66 0,-8.098 6.637,-14.661 14.821,-14.661 8.187,0 14.824,6.563 14.824,14.661 0,8.097 -6.637,14.66 -14.824,14.66 -1.883,0 -3.688,-0.348 -5.344,-0.985 l -9.172,21.543 c 2.27,1.496 3.766,4.047 3.766,6.942 0,4.605 -3.778,8.336 -8.43,8.336 -4.656,0 -8.43,-3.731 -8.43,-8.336 0,-1.621 0.477,-3.129 1.289,-4.41 l -16.691,-12.739 c -1.145,1.395 -2.699,2.442 -4.488,2.953 l 0.191,24.375 c 4.938,1.094 8.625,5.45 8.625,10.664 0,6.04 -4.949,10.934 -11.051,10.934 z m -24.679,-66.898 -17.891,-7.696 c 0.363,-1.121 0.563,-2.316 0.563,-3.558 0,-6.43 -5.27,-11.645 -11.774,-11.645 -6.5,0 -11.773,5.215 -11.773,11.645 0,6.429 5.273,11.644 11.773,11.644 3.715,0 7.024,-1.703 9.18,-4.359 l 18.797,8.078 c -1.055,3.723 -2.051,6.871 -3.121,9.953 -7.555,21.781 -16.727,33.188 -26.075,33.145 -3.656,-0.016 -7.343,-1.786 -10.968,-5.371 -6.469,-6.399 -12.586,-18.782 -17.508,-35.438 -4.488,-15.18 -16.723,-67.191 -20.446,-86.894 -4.769,-25.254 -7.144,-47.856 -5.539,-52.743 2.211,-6.738 5.629,-6.687 12.196,0.172 3.804,3.977 7.437,8.789 16.023,21.223 3.785,5.484 8.195,11.793 9.801,14.027 9.738,13.531 16.328,19.403 21.137,18.84 4.84,-0.566 9.519,-4.832 15.984,-14.566 1.453,-2.192 5.52,-8.957 9.031,-15.039 3.512,-6.079 7.418,-12.672 8.684,-14.653 4.859,-7.633 9.457,-12.773 12.961,-14.5 1.48,-0.73 2.418,-0.922 4.504,-0.922 4.66,0 9.273,1.465 23.89,7.582 19.141,8.016 27.196,9.016 39.383,4.887 2.059,-0.699 8.277,-3.461 13.82,-6.141 10.942,-5.285 13.883,-6.308 16.188,-5.628 0.769,0.23 1.418,0.613 1.437,0.855 0.18,1.941 -1.328,5.715 -5.878,14.707 -6.489,12.824 -11.43,24.133 -16.852,38.57 -5.191,13.817 -8.055,19.762 -12.199,25.34 -3.406,4.59 -6.754,6.805 -10.262,6.789 -2.594,-0.008 -4.613,-0.984 -7.293,-3.515 -5.133,-4.84 -9.047,-12.371 -15.785,-30.356 -6.09,-16.254 -13.852,-32.043 -16.465,-33.492 -2.266,-1.258 -4.258,1.063 -7.75,9.027 -5.258,12 -8.855,25.395 -17.289,64.325 -5.012,23.14 -8.012,36.359 -10.484,45.707 z m 49.937,28.64 c 1.449,-1.16 3.289,-1.855 5.297,-1.855 0.582,0 1.152,0.058 1.703,0.172 l 9.274,-21.789 c -2.375,-1.563 -4.266,-3.786 -5.411,-6.403 l -27.433,12.746 c 0.027,0.285 0.043,0.575 0.043,0.867 0,1.126 -0.219,2.2 -0.602,3.188 z m -18.148,-54.746 c -5.832,0 -10.559,-4.676 -10.559,-10.445 0,-5.77 4.727,-10.445 10.559,-10.445 5.832,0 10.558,4.675 10.558,10.445 0,5.769 -4.726,10.445 -10.558,10.445 z"
           style="fill:#006c80;fill-opacity:1;fill-rule:nonzero;stroke:none"
           id="path853" /><path
           d="m 365.055,597.6358 c -0.313,-1.992 -1.735,-3.484 -2.969,-4.91 -1.438,-1.516 -3.277,-2.922 -5.387,-2.883 -1.594,0.059 -3.074,1.211 -3.574,2.82 -0.816,2.278 -0.383,4.758 -0.168,7.11 0.402,3.183 1.105,6.312 1.504,9.496 0.09,1.059 1.519,2.098 2.238,1.066 0.18,-1.105 -0.351,-2.203 -0.445,-3.304 -0.711,-3.84 -1.656,-7.696 -1.535,-11.633 0.058,-1.297 0.496,-2.883 1.801,-3.309 1.675,-0.511 3.277,0.633 4.476,1.75 1.352,1.25 2.359,2.84 3.645,4.149 0.226,0.16 0.492,-0.086 0.414,-0.352 z"
           style="fill:#666666;fill-opacity:1;fill-rule:nonzero;stroke:none"
           id="path855" /><path
           d="m 370.992,600.1438 c -0.176,0.926 -1.265,1.305 -1.98,0.785 -1.403,-0.738 -2.121,-2.324 -2.824,-3.723 -0.7,-1.523 -1.333,-3.156 -1.36,-4.875 0.203,-1.062 1.606,-1.078 2.195,-0.367 1.887,1.543 3.055,3.875 3.747,6.246 0.152,0.633 0.222,1.282 0.222,1.934 z m 10.61,0.637 c -0.704,-2.473 -1.977,-4.731 -3.5,-6.731 -1.094,-1.39 -2.372,-2.734 -3.989,-3.406 -1.035,-0.344 -2.383,0.086 -2.754,1.254 -0.355,0.633 -0.3,1.742 -0.652,2.156 -0.645,-0.519 -0.887,-1.426 -1.504,-2 -1.008,-1.266 -2.246,-2.59 -3.871,-2.809 -1.332,-0.093 -2.641,1.161 -2.508,2.614 0.047,2.047 0.793,3.984 1.531,5.843 0.704,1.739 1.739,3.407 3.305,4.383 1.125,0.75 2.481,1.305 3.824,1.075 0.993,-0.399 0.766,-1.786 1.43,-2.481 0.18,-0.937 -0.414,-1.793 -0.457,-2.727 -0.113,-1.253 -0.074,-2.527 0.102,-3.769 0.105,-0.867 0.793,-1.879 1.714,-1.523 1.039,0.429 1.782,1.378 2.539,2.21 1.571,1.793 2.75,3.915 3.856,6.047 0.312,0.672 1.113,0.903 0.934,-0.136 z"
           style="fill:#666666;fill-opacity:1;fill-rule:nonzero;stroke:none"
           id="path857" /><path
           d="m 390.387,599.7378 c -0.071,-3.7 -2.282,-6.969 -4.965,-9.153 -1.367,-1.078 -2.945,-2.031 -4.676,-2.14 -1.047,-0.063 -1.945,1.675 -0.516,1.902 1.094,0.25 2.231,0.379 3.192,1.039 2.781,1.516 4.992,4.488 5.133,7.879 0.027,1.316 -1.414,1.527 -2.188,0.797 -2.351,-1.289 -4.062,-3.582 -5.371,-5.965 -0.519,-0.977 -0.871,-2.043 -1.144,-3.121 -0.321,-1.242 -1.981,-1.098 -1.672,0.285 0.093,1.43 0.668,2.762 0.882,4.172 1.047,4.902 1.493,10.027 3.477,14.648 0.379,0.731 0.922,1.641 1.793,1.657 1.07,-0.27 0.902,-1.66 0.633,-2.508 -0.707,-2.953 -2.516,-5.481 -3.035,-8.496 -0.321,-1.379 -0.61,-2.762 -0.821,-4.164 1.5,2.379 3.477,4.511 5.926,5.773 0.988,0.465 2.617,0.621 2.988,-0.765 0.231,-0.583 0.317,-1.215 0.364,-1.84 z"
           style="fill:#666666;fill-opacity:1;fill-rule:nonzero;stroke:none"
           id="path859" /><path
           d="m 344.48,585.1438 h 3.223 v -9.137 c 0,-0.785 0.078,-1.34 0.238,-1.668 0.168,-0.328 0.442,-0.59 0.817,-0.785 0.383,-0.195 0.84,-0.289 1.375,-0.289 0.566,0 1.051,0.109 1.457,0.324 0.41,0.219 0.695,0.496 0.848,0.828 0.16,0.336 0.238,0.981 0.238,1.926 v 8.801 h 3.222 v -8.414 c 0,-1.422 -0.093,-2.406 -0.285,-2.957 -0.191,-0.551 -0.558,-1.082 -1.101,-1.594 -0.535,-0.512 -1.157,-0.891 -1.86,-1.141 -0.703,-0.242 -1.519,-0.363 -2.453,-0.363 -1.222,0 -2.285,0.231 -3.195,0.699 -0.902,0.473 -1.547,1.063 -1.938,1.766 -0.39,0.711 -0.586,1.906 -0.586,3.59 z"
           style="fill:#666666;fill-opacity:1;fill-rule:nonzero;stroke:none"
           id="path861" /><path
           d="m 359.281,581.4678 c 1.039,0 2.078,0 3.117,0 0,-0.355 0,-0.711 0,-1.066 1.082,0.793 2.454,1.414 3.934,1.332 1.727,-0.035 3.449,-1.035 3.832,-2.485 0.277,-0.98 0.148,-1.988 0.18,-2.984 0,-1.746 0,-3.492 0,-5.234 -1.035,0 -2.067,0 -3.098,0 -0.012,1.933 0.027,3.867 -0.027,5.8 -0.051,0.786 -0.086,1.735 -0.942,2.231 -1.019,0.586 -2.535,0.234 -3.183,-0.621 -0.805,-0.946 -0.664,-2.153 -0.696,-3.246 0,-1.391 0,-2.778 0,-4.164 -1.039,0 -2.078,0 -3.117,0 0,3.476 0,6.957 0,10.437 z"
           style="fill:#666666;fill-opacity:1;fill-rule:nonzero;stroke:none"
           id="path863" /><path
           d="m 373.023,581.4678 h 3.141 v -10.438 h -3.141 z"
           style="fill:#666666;fill-opacity:1;fill-rule:nonzero;stroke:none"
           id="path865" /><path
           d="M 377.68,585.1438 H 387 v -2.649 h -3.074 v -11.464 h -3.254 v 11.464 h -2.992 z"
           style="fill:#666666;fill-opacity:1;fill-rule:nonzero;stroke:none"
           id="path867" /><path
           d="m 398.039,583.2258 c -0.793,-0.586 -1.582,-1.172 -2.375,-1.758 -0.648,0.801 -1.684,1.602 -2.934,1.438 -0.89,-0.051 -1.421,-1.145 -0.675,-1.633 1.39,-1.289 3.156,-2.246 4.613,-3.481 1.129,-0.937 1.883,-2.269 1.641,-3.617 -0.188,-1.394 -1.309,-2.695 -2.914,-3.164 -2.329,-0.789 -5.329,-0.23 -6.778,1.551 -0.351,0.406 -1.293,1.219 -0.301,1.465 0.707,0.355 1.414,0.715 2.122,1.07 0.57,-0.945 1.601,-1.937 2.984,-1.871 1.012,0 2.074,0.875 1.672,1.746 -0.535,1.109 -1.879,1.688 -2.864,2.484 -1.406,0.996 -2.945,2.047 -3.546,3.563 -0.508,1.469 0.324,3.16 1.921,3.902 1.879,0.953 4.457,0.696 6.063,-0.543 0.5,-0.343 0.949,-0.742 1.371,-1.152 z"
           style="fill:#666666;fill-opacity:1;fill-rule:nonzero;stroke:none"
           id="path869" /><path
           d="m 376.855,584.3738 c 0,-1.179 -1.007,-2.132 -2.25,-2.132 -1.242,0 -2.25,0.953 -2.25,2.132 0,1.176 1.008,2.129 2.25,2.129 1.243,0 2.25,-0.953 2.25,-2.129 z"
           style="fill:#006c80;fill-opacity:1;fill-rule:nonzero;stroke:none"
           id="path871" /></g><path
         id="path873"
         style="fill:#006c80;fill-opacity:1;fill-rule:nonzero;stroke:none"
         d="m 448.125,157.3548 c -0.879,-6.18 -4.871,-10.82 -8.34,-15.242 -4.027,-4.7 -9.199,-9.059 -15.121,-8.938 -4.476,0.176 -8.629,3.75 -10.039,8.742 -2.289,7.071 -1.074,14.77 -0.473,22.067 1.129,9.871 3.11,19.582 4.227,29.453 0.254,3.285 4.266,6.515 6.289,3.308 0.5,-3.421 -0.988,-6.832 -1.258,-10.253 -2,-11.907 -4.644,-23.868 -4.305,-36.094 0.165,-4.024 1.395,-8.934 5.059,-10.254 4.699,-1.586 9.203,1.953 12.57,5.43 3.786,3.871 6.625,8.812 10.235,12.871 0.633,0.488 1.379,-0.274 1.156,-1.09 z" /><path
         id="path875"
         style="fill:#006c80;fill-opacity:1;fill-rule:nonzero;stroke:none"
         d="m 464.801,165.1238 c -0.496,2.879 -3.559,4.055 -5.563,2.45 -3.933,-2.301 -5.957,-7.215 -7.929,-11.551 -1.965,-4.735 -3.747,-9.801 -3.825,-15.137 0.575,-3.293 4.512,-3.34 6.168,-1.133 5.297,4.782 8.575,12.016 10.52,19.379 0.426,1.957 0.629,3.977 0.629,5.992 z m 29.789,1.977 c -1.977,-7.66 -5.555,-14.676 -9.832,-20.879 -3.07,-4.316 -6.656,-8.484 -11.196,-10.566 -2.906,-1.071 -6.691,0.269 -7.738,3.89 -0.996,1.961 -0.844,5.403 -1.824,6.688 -1.812,-1.614 -2.496,-4.422 -4.223,-6.199 -2.836,-3.926 -6.308,-8.036 -10.871,-8.715 -3.738,-0.293 -7.422,3.593 -7.043,8.101 0.129,6.352 2.227,12.364 4.297,18.141 1.973,5.394 4.879,10.558 9.281,13.59 3.157,2.332 6.965,4.054 10.739,3.336 2.785,-1.239 2.144,-5.539 4.011,-7.696 0.508,-2.914 -1.164,-5.57 -1.281,-8.461 -0.316,-3.886 -0.207,-7.843 0.289,-11.699 0.289,-2.683 2.223,-5.824 4.813,-4.722 2.914,1.332 5.004,4.273 7.129,6.855 4.406,5.57 7.722,12.145 10.824,18.766 0.879,2.089 3.125,2.8 2.625,-0.43 z" /><path
         id="path877"
         style="fill:#006c80;fill-opacity:1;fill-rule:nonzero;stroke:none"
         d="m 519.258,163.8738 c -0.203,-11.476 -6.406,-21.629 -13.949,-28.398 -3.829,-3.348 -8.27,-6.297 -13.125,-6.645 -2.938,-0.191 -5.465,5.2 -1.446,5.911 3.071,0.765 6.266,1.164 8.965,3.214 7.805,4.707 14.016,13.926 14.402,24.45 0.079,4.086 -3.96,4.73 -6.136,2.468 -6.606,-3.996 -11.403,-11.105 -15.086,-18.5 -1.457,-3.035 -2.438,-6.339 -3.211,-9.683 -0.895,-3.856 -5.563,-3.41 -4.692,0.883 0.258,4.437 1.875,8.562 2.477,12.937 2.941,15.215 4.191,31.113 9.758,45.457 1.074,2.254 2.59,5.086 5.039,5.133 3,-0.836 2.535,-5.145 1.777,-7.781 -1.984,-9.164 -7.062,-16.996 -8.519,-26.368 -0.903,-4.265 -1.719,-8.566 -2.309,-12.91 4.211,7.383 9.766,13.996 16.637,17.91 2.785,1.438 7.355,1.934 8.398,-2.378 0.645,-1.805 0.887,-3.766 1.02,-5.7 z" /><path
         id="path879"
         style="fill:#666666;fill-opacity:1;fill-rule:nonzero;stroke:none"
         d="m 416.762,109.4758 h 5.59 V 93.62776 c 0,-1.363 0.136,-2.328 0.418,-2.894 0.289,-0.567 0.761,-1.024 1.41,-1.367 0.664,-0.332 1.461,-0.5 2.386,-0.5 0.981,0 1.825,0.191 2.528,0.566 0.715,0.379 1.207,0.855 1.472,1.434 0.278,0.585 0.414,1.703 0.414,3.343 v 15.26604 h 5.59 V 94.87776 c 0,-2.465 -0.164,-4.172 -0.496,-5.129 -0.332,-0.953 -0.969,-1.875 -1.91,-2.761 -0.926,-0.891 -2,-1.551 -3.223,-1.981 -1.218,-0.422 -2.636,-0.633 -4.253,-0.633 -2.122,0 -3.973,0.403 -5.551,1.215 -1.563,0.821 -2.684,1.84 -3.36,3.063 -0.675,1.23 -1.015,3.308 -1.015,6.226 z" /><path
         id="path881"
         style="fill:#666666;fill-opacity:1;fill-rule:nonzero;stroke:none"
         d="m 442.438,103.1008 c 1.804,0 3.605,0 5.41,0 0,-0.617 0,-1.231 0,-1.848 1.879,1.371 4.257,2.453 6.824,2.305 2.996,-0.059 5.984,-1.793 6.648,-4.30904 0.485,-1.695 0.258,-3.449 0.309,-5.175 0,-3.028 0,-6.055 0,-9.086 -1.789,0 -3.578,0 -5.367,0 -0.02,3.359 0.047,6.714 -0.051,10.07 -0.086,1.363 -0.149,3.008 -1.629,3.867 -1.773,1.016 -4.406,0.41 -5.527,-1.078 -1.395,-1.641 -1.149,-3.73 -1.207,-5.633 0,-2.406 0,-4.816 0,-7.226 -1.805,0 -3.606,0 -5.41,0 0,6.039 0,12.074 0,18.11304 z" /><path
         id="path883"
         style="fill:#666666;fill-opacity:1;fill-rule:nonzero;stroke:none"
         d="m 466.285,103.1008 h 5.449 V 84.98776 h -5.449 z" /><path
         id="path885"
         style="fill:#666666;fill-opacity:1;fill-rule:nonzero;stroke:none"
         d="m 474.359,109.4758 h 16.168 v -4.594 h -5.328 V 84.98776 h -5.648 v 19.89404 h -5.192 z" /><path
         id="path887"
         style="fill:#666666;fill-opacity:1;fill-rule:nonzero;stroke:none"
         d="m 509.68,106.1478 c -1.371,-1.016 -2.742,-2.031 -4.118,-3.047 -1.124,1.387 -2.921,2.781 -5.085,2.492 -1.547,-0.086 -2.465,-1.984 -1.18,-2.828 2.418,-2.242 5.48,-3.90204 8.008,-6.04304 1.961,-1.621 3.269,-3.934 2.847,-6.273 -0.328,-2.422 -2.273,-4.676 -5.054,-5.489 -4.039,-1.371 -9.246,-0.402 -11.762,2.688 -0.609,0.707 -2.242,2.117 -0.52,2.539 1.227,0.621 2.454,1.242 3.68,1.859 0.992,-1.64 2.777,-3.363 5.18,-3.246 1.754,0 3.597,1.524 2.902,3.031 -0.933,1.926 -3.266,2.926 -4.973,4.309 -2.437,1.73 -5.113,3.551 -6.148,6.18404 -0.891,2.546 0.555,5.484 3.332,6.769 3.254,1.656 7.731,1.207 10.516,-0.941 0.867,-0.602 1.648,-1.285 2.375,-2.004 z" /><path
         id="path889"
         style="fill:#666666;fill-opacity:1;fill-rule:nonzero;stroke:none"
         d="m 301.543,199.5268 c 5.754,10.625 14.016,10.625 21.059,0 L 364.566,82.82776 h -21.578 l -8.523,24.03904 h -44.488 l -8.899,-24.03904 h -21.574 z m 10.676,-30.942 -14.531,-40.062 h 28.992 z" /><path
         id="path891"
         style="fill:#666666;fill-opacity:1;fill-rule:nonzero;stroke:none"
         d="m 376.207,169.1438 h 20.316 V 82.82776 h -20.316 z" /><path
         id="path893"
         style="fill:#006c80;fill-opacity:1;fill-rule:nonzero;stroke:none"
         d="m 472.277,108.9328 c 0,-1.648 -1.414,-2.988 -3.16,-2.988 -1.742,0 -3.156,1.34 -3.156,2.988 0,1.652 1.414,2.992 3.156,2.992 1.746,0 3.16,-1.34 3.16,-2.992 z" /><path
         id="path895"
         style="fill:#006c80;fill-opacity:1;fill-rule:nonzero;stroke:none"
         d="m 398.426,189.6908 c 0,-6.379 -5.379,-11.551 -12.02,-11.551 -6.636,0 -12.019,5.172 -12.019,11.551 0,6.383 5.383,11.554 12.019,11.554 6.641,0 12.02,-5.171 12.02,-11.554 z" /><path
         id="path897"
         style="fill:#006c80;fill-opacity:1;fill-rule:nonzero;stroke:none"
         d="m 142.98,256.6708 c -6.105,0 -11.054,-4.894 -11.054,-10.933 0,-5.418 3.988,-9.914 9.219,-10.782 l -0.188,-24.078 c -4.125,-0.808 -7.23,-4.406 -7.23,-8.722 0,-0.383 0.023,-0.758 0.07,-1.125 l -16.621,-7.145 c 0.367,-1.297 0.738,-2.648 1.125,-4.113 l 17.027,7.32 c 1.621,-2.316 4.324,-3.836 7.391,-3.836 3.148,0 5.918,1.606 7.523,4.031 l 27.75,-12.89 c -0.062,-0.547 -0.097,-1.102 -0.097,-1.664 0,-8.094 6.636,-14.66 14.824,-14.66 8.183,0 14.82,6.566 14.82,14.66 0,8.097 -6.637,14.66 -14.82,14.66 -1.887,0 -3.692,-0.348 -5.348,-0.984 l -9.172,21.546 c 2.27,1.493 3.766,4.043 3.766,6.938 0,4.605 -3.774,8.336 -8.43,8.336 -4.656,0 -8.43,-3.731 -8.43,-8.336 0,-1.621 0.477,-3.129 1.29,-4.41 l -16.692,-12.739 c -1.144,1.395 -2.699,2.442 -4.488,2.954 l 0.195,24.375 c 4.934,1.093 8.625,5.453 8.625,10.664 0,6.039 -4.949,10.933 -11.055,10.933 z m -24.675,-66.898 -17.895,-7.695 c 0.363,-1.122 0.563,-2.317 0.563,-3.559 0,-6.43 -5.27,-11.645 -11.774,-11.645 -6.5,0 -11.769,5.215 -11.769,11.645 0,6.43 5.269,11.644 11.769,11.644 3.715,0 7.024,-1.703 9.184,-4.359 l 18.793,8.082 c -1.055,3.719 -2.051,6.867 -3.117,9.949 -7.559,21.782 -16.731,33.188 -26.079,33.145 -3.656,-0.016 -7.339,-1.785 -10.968,-5.371 -6.469,-6.399 -12.586,-18.781 -17.508,-35.438 -4.488,-15.179 -16.723,-67.191 -20.445,-86.894 -4.77,-25.25404 -7.145,-47.85604 -5.539,-52.74204 2.21,-6.735 5.628,-6.688 12.199,0.175 3.801,3.973 7.437,8.785 16.019,21.223 3.785,5.48 8.196,11.793 9.805,14.023 9.734,13.53204 16.324,19.40704 21.133,18.84004 4.84,-0.566 9.523,-4.832 15.984,-14.56204 1.457,-2.196 5.52,-8.961 9.031,-15.039 3.516,-6.078 7.422,-12.676 8.684,-14.657 4.859,-7.628 9.457,-12.773 12.961,-14.5 1.484,-0.73 2.418,-0.921 4.504,-0.921 4.66,0 9.273,1.464 23.89,7.582 19.145,8.015 27.2,9.015 39.383,4.886 2.059,-0.699 8.282,-3.461 13.821,-6.136 10.941,-5.289 13.882,-6.313 16.187,-5.629 0.77,0.226 1.418,0.609 1.441,0.851 0.18,1.942 -1.332,5.719 -5.882,14.711 -6.489,12.82 -11.43,24.129 -16.852,38.56704 -5.191,13.82 -8.055,19.765 -12.195,25.339 -3.41,4.59 -6.758,6.805 -10.266,6.79 -2.59,-0.008 -4.609,-0.985 -7.293,-3.516 -5.129,-4.84 -9.047,-12.367 -15.785,-30.352 -6.09,-16.25404 -13.851,-32.04704 -16.465,-33.49604 -2.265,-1.258 -4.258,1.063 -7.746,9.028 -5.258,12 -8.859,25.39804 -17.293,64.32404 -5.012,23.14 -8.012,36.363 -10.48,45.707 z m 49.937,28.64 c 1.446,-1.156 3.285,-1.851 5.293,-1.851 0.582,0 1.153,0.058 1.703,0.168 l 9.274,-21.785 c -2.375,-1.567 -4.266,-3.789 -5.407,-6.407 l -27.437,12.747 c 0.027,0.285 0.043,0.578 0.043,0.871 0,1.121 -0.215,2.195 -0.602,3.183 z m -18.152,-54.746 c -5.832,0 -10.559,-4.675 -10.559,-10.445 0,-5.766 4.727,-10.441 10.559,-10.441 5.832,0 10.558,4.675 10.558,10.441 0,5.77 -4.726,10.445 -10.558,10.445 z" /><path
         id="path899"
         style="fill:#006c80;fill-opacity:1;fill-rule:nonzero;stroke:none"
         d="m 178.152,586.7848 c -0.734,-5.192 -4.09,-9.086 -7.004,-12.801 -3.382,-3.949 -7.73,-7.61 -12.703,-7.508 -3.757,0.148 -7.246,3.152 -8.433,7.344 -1.918,5.937 -0.899,12.406 -0.395,18.531 0.949,8.293 2.613,16.453 3.551,24.742 0.215,2.758 3.582,5.473 5.281,2.777 0.422,-2.875 -0.828,-5.734 -1.054,-8.609 -1.68,-10 -3.903,-20.051 -3.618,-30.316 0.141,-3.383 1.172,-7.508 4.25,-8.617 3.946,-1.333 7.731,1.64 10.559,4.562 3.18,3.25 5.562,7.402 8.594,10.809 0.535,0.414 1.16,-0.231 0.972,-0.914 z" /><path
         id="path901"
         style="fill:#006c80;fill-opacity:1;fill-rule:nonzero;stroke:none"
         d="m 192.16,593.3118 c -0.418,2.418 -2.988,3.406 -4.672,2.055 -3.304,-1.93 -5.004,-6.059 -6.66,-9.704 -1.652,-3.976 -3.148,-8.226 -3.211,-12.711 0.481,-2.769 3.789,-2.804 5.18,-0.953 4.449,4.02 7.203,10.094 8.836,16.282 0.355,1.64 0.527,3.336 0.527,5.031 z m 25.024,1.66 c -1.661,-6.437 -4.668,-12.328 -8.258,-17.539 -2.582,-3.625 -5.594,-7.125 -9.406,-8.875 -2.442,-0.898 -5.622,0.227 -6.5,3.27 -0.836,1.644 -0.708,4.535 -1.532,5.617 -1.519,-1.356 -2.097,-3.715 -3.547,-5.207 -2.382,-3.297 -5.3,-6.75 -9.132,-7.321 -3.141,-0.246 -6.235,3.02 -5.914,6.805 0.105,5.336 1.871,10.383 3.609,15.234 1.656,4.532 4.098,8.872 7.797,11.418 2.648,1.957 5.847,3.407 9.019,2.805 2.34,-1.043 1.801,-4.656 3.368,-6.465 0.425,-2.449 -0.977,-4.679 -1.075,-7.109 -0.269,-3.262 -0.175,-6.59 0.242,-9.828 0.243,-2.254 1.868,-4.891 4.04,-3.965 2.449,1.117 4.207,3.59 5.988,5.758 3.703,4.679 6.492,10.199 9.094,15.761 0.738,1.754 2.625,2.352 2.207,-0.359 z" /><path
         id="path903"
         style="fill:#006c80;fill-opacity:1;fill-rule:nonzero;stroke:none"
         d="m 237.902,592.2608 c -0.168,-9.641 -5.382,-18.168 -11.714,-23.851 -3.219,-2.813 -6.946,-5.293 -11.028,-5.582 -2.469,-0.161 -4.59,4.363 -1.215,4.96 2.578,0.649 5.262,0.981 7.532,2.704 6.554,3.953 11.773,11.695 12.097,20.535 0.067,3.433 -3.328,3.976 -5.156,2.074 -5.547,-3.356 -9.574,-9.328 -12.668,-15.539 -1.223,-2.547 -2.051,-5.324 -2.699,-8.133 -0.75,-3.238 -4.672,-2.863 -3.942,0.738 0.219,3.727 1.579,7.196 2.082,10.871 2.469,12.782 3.52,26.133 8.196,38.18 0.902,1.895 2.175,4.274 4.23,4.313 2.524,-0.703 2.133,-4.321 1.496,-6.536 -1.668,-7.699 -5.933,-14.277 -7.156,-22.148 -0.762,-3.586 -1.441,-7.195 -1.941,-10.844 3.539,6.203 8.203,11.758 13.976,15.047 2.34,1.207 6.18,1.621 7.055,-2 0.543,-1.515 0.742,-3.164 0.855,-4.789 z" /><path
         id="path905"
         style="fill:#666666;fill-opacity:1;fill-rule:nonzero;stroke:none"
         d="m 151.809,546.5698 h 4.695 v -13.313 c 0,-1.144 0.117,-1.957 0.351,-2.433 0.247,-0.473 0.641,-0.856 1.184,-1.145 0.559,-0.281 1.227,-0.422 2.008,-0.422 0.824,0 1.531,0.16 2.121,0.477 0.602,0.316 1.012,0.718 1.234,1.203 0.235,0.496 0.352,1.43 0.352,2.812 v 12.821 h 4.695 v -12.262 c 0,-2.07 -0.14,-3.508 -0.418,-4.309 -0.277,-0.8 -0.812,-1.574 -1.605,-2.32 -0.778,-0.746 -1.68,-1.301 -2.703,-1.664 -1.028,-0.355 -2.219,-0.531 -3.578,-0.531 -1.782,0 -3.336,0.34 -4.661,1.019 -1.312,0.692 -2.254,1.547 -2.824,2.575 -0.566,1.035 -0.851,2.777 -0.851,5.23 z" /><path
         id="path907"
         style="fill:#666666;fill-opacity:1;fill-rule:nonzero;stroke:none"
         d="m 173.375,541.2138 c 1.516,0 3.031,0 4.547,0 0,-0.515 0,-1.035 0,-1.551 1.578,1.149 3.574,2.059 5.73,1.938 2.516,-0.051 5.028,-1.512 5.582,-3.621 0.411,-1.426 0.219,-2.899 0.262,-4.348 0,-2.543 0,-5.086 0,-7.633 -1.504,0 -3.004,0 -4.508,0 -0.019,2.821 0.039,5.641 -0.043,8.457 -0.074,1.145 -0.125,2.532 -1.371,3.25 -1.488,0.856 -3.699,0.344 -4.64,-0.906 -1.168,-1.375 -0.965,-3.133 -1.012,-4.73 0,-2.024 0,-4.047 0,-6.071 -1.516,0 -3.031,0 -4.547,0 0,5.075 0,10.145 0,15.215 z" /><path
         id="path909"
         style="fill:#666666;fill-opacity:1;fill-rule:nonzero;stroke:none"
         d="m 193.406,541.2138 h 4.578 v -15.215 h -4.578 z" /><path
         id="path911"
         style="fill:#666666;fill-opacity:1;fill-rule:nonzero;stroke:none"
         d="m 200.188,546.5698 h 13.582 v -3.86 h -4.477 v -16.711 h -4.742 v 16.711 h -4.363 z" /><path
         id="path913"
         style="fill:#666666;fill-opacity:1;fill-rule:nonzero;stroke:none"
         d="m 229.859,543.7728 c -1.152,-0.852 -2.308,-1.707 -3.461,-2.559 -0.945,1.164 -2.453,2.336 -4.273,2.094 -1.297,-0.074 -2.07,-1.664 -0.988,-2.375 2.031,-1.883 4.601,-3.277 6.726,-5.078 1.645,-1.36 2.746,-3.301 2.391,-5.27 -0.277,-2.031 -1.91,-3.925 -4.246,-4.609 -3.395,-1.152 -7.766,-0.336 -9.879,2.258 -0.512,0.594 -1.883,1.777 -0.438,2.133 1.032,0.519 2.063,1.043 3.09,1.562 0.836,-1.379 2.332,-2.824 4.352,-2.727 1.476,0 3.023,1.278 2.437,2.543 -0.781,1.622 -2.742,2.461 -4.175,3.622 -2.047,1.457 -4.293,2.984 -5.165,5.191 -0.746,2.144 0.465,4.609 2.797,5.691 2.735,1.387 6.496,1.012 8.832,-0.793 0.731,-0.504 1.387,-1.082 2,-1.683 z" /><path
         id="path915"
         style="fill:#666666;fill-opacity:1;fill-rule:nonzero;stroke:none"
         d="m 55.031,622.2058 c 4.832,8.926 11.774,8.926 17.688,0 l 35.25,-98.019 H 89.844 l -7.16,20.191 H 45.316 L 37.84,524.1868 H 19.719 Z M 64,596.2178 51.793,562.5698 h 24.352 z" /><path
         id="path917"
         style="fill:#666666;fill-opacity:1;fill-rule:nonzero;stroke:none"
         d="m 117.746,596.6868 h 17.062 v -72.5 h -17.062 z" /><path
         id="path919"
         style="fill:#006c80;fill-opacity:1;fill-rule:nonzero;stroke:none"
         d="m 199.062,545.6358 c 0,-1.82 -1.554,-3.293 -3.472,-3.293 -1.922,0 -3.477,1.473 -3.477,3.293 0,1.816 1.555,3.289 3.477,3.289 1.918,0 3.472,-1.473 3.472,-3.289 z" /><path
         id="path921"
         style="fill:#006c80;fill-opacity:1;fill-rule:nonzero;stroke:none"
         d="m 136.5,614.2058 c 0,-5.359 -4.52,-9.703 -10.098,-9.703 -5.574,0 -10.093,4.344 -10.093,9.703 0,5.36 4.519,9.704 10.093,9.704 5.578,0 10.098,-4.344 10.098,-9.704 z" /><path
         id="path923"
         style="fill:#006c80;fill-opacity:1;fill-rule:nonzero;stroke:none"
         d="m 142.285,835.1988 c -6.105,0 -11.051,-4.895 -11.051,-10.934 0,-5.418 3.985,-9.914 9.219,-10.781 l -0.191,-24.078 c -4.121,-0.813 -7.231,-4.411 -7.231,-8.723 0,-0.383 0.028,-0.758 0.074,-1.125 l -16.621,-7.148 c 0.368,-1.297 0.739,-2.645 1.125,-4.11 l 17.024,7.32 c 1.625,-2.316 4.328,-3.835 7.39,-3.835 3.153,0 5.918,1.605 7.528,4.031 l 27.75,-12.895 c -0.067,-0.543 -0.098,-1.097 -0.098,-1.66 0,-8.098 6.637,-14.66 14.82,-14.66 8.188,0 14.825,6.562 14.825,14.66 0,8.098 -6.637,14.66 -14.825,14.66 -1.882,0 -3.687,-0.347 -5.343,-0.984 l -9.172,21.543 c 2.265,1.496 3.762,4.047 3.762,6.941 0,4.606 -3.774,8.336 -8.426,8.336 -4.656,0 -8.43,-3.73 -8.43,-8.336 0,-1.621 0.477,-3.129 1.285,-4.41 l -16.691,-12.738 c -1.141,1.394 -2.696,2.441 -4.485,2.953 l 0.192,24.375 c 4.937,1.094 8.625,5.449 8.625,10.664 0,6.039 -4.949,10.934 -11.055,10.934 z m -24.676,-66.899 -17.89,-7.695 c 0.363,-1.121 0.562,-2.317 0.562,-3.559 0,-6.429 -5.273,-11.644 -11.773,-11.644 -6.5,0 -11.774,5.215 -11.774,11.644 0,6.43 5.274,11.645 11.774,11.645 3.715,0 7.023,-1.703 9.18,-4.36 l 18.796,8.079 c -1.054,3.722 -2.05,6.871 -3.121,9.953 -7.558,21.781 -16.726,33.187 -26.074,33.144 -3.656,-0.015 -7.344,-1.785 -10.969,-5.371 -6.468,-6.398 -12.59,-18.781 -17.511,-35.437 -4.485,-15.18 -16.723,-67.192 -20.442,-86.895 -4.769,-25.254 -7.144,-47.855 -5.539,-52.742 2.211,-6.738 5.629,-6.688 12.195,0.176 3.805,3.972 7.438,8.785 16.024,21.222 3.785,5.481 8.195,11.789 9.801,14.024 9.738,13.531 16.324,19.402 21.136,18.84 4.84,-0.567 9.52,-4.832 15.985,-14.567 1.453,-2.191 5.519,-8.957 9.031,-15.035 3.512,-6.082 7.418,-12.676 8.68,-14.656 4.863,-7.629 9.461,-12.774 12.965,-14.5 1.48,-0.731 2.414,-0.922 4.503,-0.922 4.661,0 9.274,1.465 23.887,7.582 19.145,8.016 27.199,9.016 39.387,4.887 2.058,-0.7 8.277,-3.461 13.82,-6.141 10.942,-5.285 13.883,-6.309 16.184,-5.629 0.769,0.231 1.422,0.613 1.441,0.856 0.18,1.941 -1.328,5.718 -5.879,14.711 -6.488,12.82 -11.429,24.128 -16.855,38.566 -5.188,13.82 -8.051,19.762 -12.195,25.34 -3.411,4.59 -6.758,6.804 -10.262,6.789 -2.594,-0.008 -4.614,-0.985 -7.293,-3.516 -5.133,-4.84 -9.047,-12.371 -15.785,-30.355 -6.09,-16.254 -13.852,-32.043 -16.465,-33.492 -2.266,-1.258 -4.258,1.062 -7.75,9.027 -5.258,12 -8.86,25.394 -17.289,64.324 -5.012,23.141 -8.012,36.359 -10.485,45.707 z m 49.938,28.641 c 1.449,-1.16 3.289,-1.856 5.297,-1.856 0.582,0 1.152,0.059 1.703,0.172 l 9.273,-21.785 c -2.375,-1.566 -4.265,-3.789 -5.41,-6.406 l -27.433,12.746 c 0.027,0.285 0.043,0.574 0.043,0.871 0,1.121 -0.219,2.195 -0.602,3.184 z m -18.149,-54.746 c -5.832,0 -10.558,-4.676 -10.558,-10.446 0,-5.769 4.726,-10.445 10.558,-10.445 5.832,0 10.559,4.676 10.559,10.445 0,5.77 -4.727,10.446 -10.559,10.446 z" /><path
         id="path925"
         style="fill:#006c80;fill-opacity:1;fill-rule:nonzero;stroke:none"
         d="m 167.922,493.6238 c -6.106,0 -11.055,-4.894 -11.055,-10.933 0,-5.418 3.988,-9.914 9.219,-10.778 l -0.188,-24.082 c -4.125,-0.808 -7.23,-4.406 -7.23,-8.722 0,-0.383 0.023,-0.758 0.07,-1.125 l -16.621,-7.145 c 0.367,-1.297 0.742,-2.648 1.129,-4.113 l 17.024,7.32 c 1.625,-2.316 4.324,-3.832 7.39,-3.832 3.149,0 5.918,1.602 7.524,4.028 l 27.75,-12.891 c -0.063,-0.547 -0.098,-1.102 -0.098,-1.664 0,-8.094 6.637,-14.656 14.824,-14.656 8.188,0 14.824,6.562 14.824,14.656 0,8.098 -6.636,14.66 -14.824,14.66 -1.887,0 -3.687,-0.348 -5.348,-0.984 l -9.167,21.547 c 2.265,1.492 3.761,4.042 3.761,6.941 0,4.601 -3.773,8.336 -8.429,8.336 -4.653,0 -8.426,-3.735 -8.426,-8.336 0,-1.625 0.476,-3.133 1.285,-4.414 l -16.691,-12.738 c -1.141,1.394 -2.696,2.441 -4.485,2.953 l 0.192,24.375 c 4.933,1.093 8.625,5.453 8.625,10.664 0,6.039 -4.95,10.933 -11.055,10.933 z m -24.676,-66.898 -17.894,-7.695 c 0.363,-1.121 0.562,-2.317 0.562,-3.559 0,-6.43 -5.269,-11.644 -11.769,-11.644 -6.504,0 -11.774,5.214 -11.774,11.644 0,6.43 5.27,11.645 11.774,11.645 3.71,0 7.019,-1.704 9.179,-4.36 l 18.793,8.082 c -1.051,3.719 -2.047,6.867 -3.117,9.949 -7.559,21.782 -16.727,33.188 -26.074,33.145 -3.66,-0.016 -7.344,-1.781 -10.969,-5.371 -6.473,-6.399 -12.59,-18.781 -17.512,-35.438 -4.484,-15.179 -16.722,-67.191 -20.445,-86.894 -4.77,-25.254 -7.141,-47.852 -5.539,-52.742 2.215,-6.735 5.633,-6.688 12.199,0.175 3.805,3.973 7.438,8.786 16.024,21.223 3.781,5.481 8.191,11.793 9.8,14.024 9.739,13.531 16.325,19.406 21.133,18.839 4.84,-0.566 9.524,-4.832 15.985,-14.562 1.457,-2.195 5.519,-8.961 9.035,-15.039 3.511,-6.078 7.418,-12.676 8.679,-14.656 4.864,-7.629 9.461,-12.774 12.961,-14.5 1.485,-0.731 2.418,-0.922 4.508,-0.922 4.66,0 9.274,1.465 23.887,7.586 19.144,8.015 27.199,9.011 39.383,4.882 2.062,-0.695 8.281,-3.46 13.82,-6.136 10.941,-5.289 13.887,-6.313 16.187,-5.629 0.77,0.226 1.418,0.609 1.442,0.851 0.18,1.942 -1.332,5.719 -5.879,14.711 -6.492,12.821 -11.434,24.133 -16.855,38.567 -5.192,13.82 -8.051,19.765 -12.196,25.34 -3.41,4.589 -6.758,6.804 -10.265,6.789 -2.59,-0.008 -4.61,-0.985 -7.293,-3.512 -5.129,-4.84 -9.047,-12.371 -15.786,-30.356 -6.089,-16.253 -13.851,-32.046 -16.464,-33.496 -2.266,-1.257 -4.254,1.063 -7.746,9.032 -5.258,11.996 -8.86,25.394 -17.293,64.32 -5.012,23.141 -8.008,36.363 -10.481,45.707 z m 49.938,28.641 c 1.445,-1.157 3.285,-1.852 5.293,-1.852 0.585,0 1.152,0.059 1.703,0.168 l 9.273,-21.785 c -2.371,-1.567 -4.265,-3.789 -5.406,-6.406 l -27.438,12.746 c 0.032,0.285 0.047,0.578 0.047,0.871 0,1.125 -0.218,2.195 -0.605,3.183 z m -18.153,-54.747 c -5.832,0 -10.558,-4.675 -10.558,-10.445 0,-5.765 4.726,-10.441 10.558,-10.441 5.832,0 10.563,4.676 10.563,10.441 0,5.77 -4.731,10.445 -10.563,10.445 z" /><path
         id="path927"
         style="fill:#006c80;fill-opacity:1;fill-rule:nonzero;stroke:none"
         d="m 453.637,419.4248 c -1.199,-8.449 -6.66,-14.793 -11.403,-20.84 -5.504,-6.425 -12.578,-12.383 -20.672,-12.218 -6.121,0.238 -11.796,5.128 -13.726,11.953 -3.129,9.668 -1.469,20.191 -0.645,30.164 1.543,13.496 4.25,26.777 5.774,40.273 0.351,4.488 5.836,8.906 8.601,4.52 0.688,-4.68 -1.351,-9.336 -1.718,-14.016 -2.735,-16.277 -6.352,-32.633 -5.887,-49.348 0.227,-5.5 1.906,-12.214 6.914,-14.019 6.426,-2.172 12.582,2.672 17.187,7.426 5.176,5.289 9.059,12.043 13.993,17.593 0.867,0.668 1.886,-0.375 1.582,-1.488 z" /><path
         id="path929"
         style="fill:#006c80;fill-opacity:1;fill-rule:nonzero;stroke:none"
         d="m 476.434,430.0498 c -0.676,3.934 -4.864,5.543 -7.606,3.344 -5.375,-3.145 -8.14,-9.863 -10.836,-15.793 -2.687,-6.473 -5.125,-13.395 -5.226,-20.691 0.781,-4.504 6.164,-4.567 8.429,-1.551 7.239,6.539 11.723,16.429 14.383,26.496 0.578,2.676 0.86,5.437 0.856,8.195 z m 40.734,2.699 c -2.707,-10.476 -7.598,-20.062 -13.445,-28.547 -4.2,-5.898 -9.106,-11.597 -15.305,-14.445 -3.977,-1.461 -9.152,0.371 -10.582,5.321 -1.363,2.675 -1.152,7.382 -2.492,9.144 -2.477,-2.211 -3.414,-6.047 -5.778,-8.477 -3.875,-5.367 -8.625,-10.988 -14.859,-11.914 -5.113,-0.406 -10.148,4.914 -9.629,11.075 0.172,8.683 3.043,16.902 5.875,24.8 2.695,7.375 6.668,14.438 12.688,18.582 4.316,3.184 9.519,5.54 14.683,4.563 3.809,-1.695 2.93,-7.578 5.485,-10.523 0.691,-3.985 -1.594,-7.618 -1.754,-11.567 -0.434,-5.312 -0.285,-10.726 0.398,-15.996 0.391,-3.672 3.035,-7.965 6.574,-6.457 3.985,1.82 6.844,5.844 9.746,9.371 6.028,7.621 10.563,16.602 14.805,25.66 1.199,2.852 4.27,3.824 3.59,-0.59 z" /><path
         id="path931"
         style="fill:#006c80;fill-opacity:1;fill-rule:nonzero;stroke:none"
         d="m 550.887,428.3348 c -0.274,-15.687 -8.758,-29.57 -19.067,-38.824 -5.238,-4.574 -11.304,-8.609 -17.949,-9.086 -4.012,-0.258 -7.469,7.11 -1.973,8.082 4.196,1.051 8.563,1.594 12.254,4.395 10.672,6.437 19.168,19.039 19.696,33.426 0.105,5.589 -5.418,6.472 -8.391,3.378 -9.035,-5.468 -15.59,-15.187 -20.625,-25.296 -1.992,-4.145 -3.336,-8.665 -4.391,-13.235 -1.222,-5.273 -7.609,-4.664 -6.414,1.203 0.352,6.067 2.567,11.711 3.383,17.692 4.024,20.8 5.731,42.535 13.344,62.144 1.465,3.086 3.539,6.953 6.887,7.02 4.105,-1.145 3.464,-7.035 2.433,-10.637 -2.719,-12.531 -9.656,-23.242 -11.648,-36.047 -1.238,-5.836 -2.348,-11.715 -3.16,-17.656 5.757,10.098 13.355,19.137 22.75,24.492 3.804,1.965 10.054,2.641 11.484,-3.254 0.879,-2.469 1.207,-5.148 1.387,-7.797 z" /><path
         id="path933"
         style="fill:#666666;fill-opacity:1;fill-rule:nonzero;stroke:none"
         d="m 279.363,361.5028 h 16.203 v -45.945 c 0,-3.961 0.407,-6.758 1.211,-8.398 0.848,-1.641 2.211,-2.961 4.094,-3.961 1.922,-0.965 4.231,-1.446 6.922,-1.446 2.844,0 5.285,0.547 7.324,1.641 2.074,1.094 3.496,2.476 4.266,4.152 0.808,1.703 1.211,4.938 1.211,9.699 v 44.258 h 16.203 v -42.328 c 0,-7.14 -0.481,-12.097 -1.442,-14.863 -0.96,-2.77 -2.804,-5.438 -5.535,-8.012 -2.691,-2.574 -5.804,-4.488 -9.343,-5.746 -3.536,-1.223 -7.649,-1.832 -12.34,-1.832 -6.149,0 -11.512,1.172 -16.086,3.523 -4.535,2.379 -7.785,5.34 -9.746,8.879 -1.961,3.575 -2.942,9.59 -2.942,18.051 z" /><path
         id="path935"
         style="fill:#666666;fill-opacity:1;fill-rule:nonzero;stroke:none"
         d="m 353.809,343.0188 c 5.226,0 10.457,0 15.683,0 0,-1.785 0,-3.57 0,-5.356 5.449,3.973 12.344,7.11 19.781,6.688 8.688,-0.176 17.36,-5.211 19.278,-12.504 1.406,-4.914 0.75,-9.992 0.902,-14.996 0,-8.781 0,-17.563 0,-26.344 -5.191,0 -10.379,0 -15.57,0 -0.059,9.731 0.14,19.465 -0.145,29.192 -0.25,3.949 -0.429,8.726 -4.722,11.211 -5.145,2.949 -12.77,1.195 -16.028,-3.122 -4.035,-4.757 -3.332,-10.82 -3.496,-16.332 0,-6.984 0,-13.964 0,-20.949 -5.226,0 -10.457,0 -15.683,0 0,17.504 0,35.008 0,52.512 z" /><path
         id="path937"
         style="fill:#666666;fill-opacity:1;fill-rule:nonzero;stroke:none"
         d="m 422.945,343.0188 h 15.801 v -52.512 h -15.801 z" /><path
         id="path939"
         style="fill:#666666;fill-opacity:1;fill-rule:nonzero;stroke:none"
         d="m 446.359,361.5028 h 46.879 v -13.32 h -15.453 v -57.676 h -16.379 v 57.676 h -15.047 z" /><path
         id="path941"
         style="fill:#666666;fill-opacity:1;fill-rule:nonzero;stroke:none"
         d="m 548.77,351.8508 c -3.981,-2.945 -7.958,-5.887 -11.938,-8.832 -3.262,4.019 -8.48,8.062 -14.754,7.226 -4.484,-0.253 -7.148,-5.75 -3.41,-8.203 7.008,-6.492 15.883,-11.312 23.215,-17.519 5.679,-4.699 9.472,-11.403 8.25,-18.192 -0.949,-7.011 -6.59,-13.55 -14.656,-15.91 -11.711,-3.972 -26.809,-1.164 -34.102,7.789 -1.766,2.059 -6.492,6.141 -1.504,7.368 3.555,1.796 7.109,3.593 10.668,5.394 2.875,-4.758 8.051,-9.758 15.016,-9.422 5.093,0.008 10.437,4.418 8.414,8.789 -2.699,5.59 -9.469,8.485 -14.41,12.5 -7.067,5.02 -14.825,10.297 -17.832,17.922 -2.575,7.391 1.613,15.902 9.664,19.637 9.437,4.793 22.41,3.496 30.484,-2.735 2.52,-1.742 4.781,-3.73 6.895,-5.812 z" /><path
         id="path943"
         style="fill:#666666;fill-opacity:1;fill-rule:nonzero;stroke:none"
         d="m 314.453,476.6398 c 4.832,8.926 11.774,8.926 17.688,0 l 35.25,-98.02 h -18.125 l -7.161,20.188 h -37.367 l -7.472,-20.188 h -18.125 z m 8.969,-25.988 -12.207,-33.653 h 24.351 z" /><path
         id="path945"
         style="fill:#666666;fill-opacity:1;fill-rule:nonzero;stroke:none"
         d="m 377.168,451.1168 h 17.066 v -72.496 h -17.066 z" /><path
         id="path947"
         style="fill:#006c80;fill-opacity:1;fill-rule:nonzero;stroke:none"
         d="m 438.535,356.8978 c 0,-3.996 -3.422,-7.238 -7.644,-7.238 -4.219,0 -7.641,3.242 -7.641,7.238 0,3.996 3.422,7.238 7.641,7.238 4.222,0 7.644,-3.242 7.644,-7.238 z" /><path
         id="path949"
         style="fill:#006c80;fill-opacity:1;fill-rule:nonzero;stroke:none"
         d="m 395.32,468.4448 c 0,-5.36 -4.523,-9.703 -10.097,-9.703 -5.575,0 -10.098,4.343 -10.098,9.703 0,5.359 4.523,9.703 10.098,9.703 5.574,0 10.097,-4.344 10.097,-9.703 z" /></g></g></svg>
