<?xml version="1.0" encoding="utf-8" standalone="no"?>
<!DOCTYPE svg PUBLIC "-//W3C//DTD SVG 1.1//EN"
  "http://www.w3.org/Graphics/SVG/1.1/DTD/svg11.dtd">
<svg xmlns:xlink="http://www.w3.org/1999/xlink" width="360pt" height="144pt" viewBox="0 0 360 144" xmlns="http://www.w3.org/2000/svg" version="1.1">
 <metadata>
  <rdf:RDF xmlns:dc="http://purl.org/dc/elements/1.1/" xmlns:cc="http://creativecommons.org/ns#" xmlns:rdf="http://www.w3.org/1999/02/22-rdf-syntax-ns#">
   <cc:Work>
    <dc:type rdf:resource="http://purl.org/dc/dcmitype/StillImage"/>
    <dc:date>2023-08-11T11:40:38.417262</dc:date>
    <dc:format>image/svg+xml</dc:format>
    <dc:creator>
     <cc:Agent>
      <dc:title>Matplotlib v3.7.2, https://matplotlib.org/</dc:title>
     </cc:Agent>
    </dc:creator>
   </cc:Work>
  </rdf:RDF>
 </metadata>
 <defs>
  <style type="text/css">*{stroke-linejoin: round; stroke-linecap: butt}</style>
 </defs>
 <g id="figure_1">
  <g id="patch_1">
   <path d="M 0 144 
L 360 144 
L 360 0 
L 0 0 
z
" style="fill: #ffffff"/>
  </g>
  <g id="axes_1">
   <g id="patch_2">
    <path d="M 45.13 59.4 
L 358 59.4 
L 358 2 
L 45.13 2 
z
" style="fill: #ffffff"/>
   </g>
   <g id="patch_3">
    <path d="M 59.351364 59.4 
L 65.039909 59.4 
L 65.039909 57.39651 
L 59.351364 57.39651 
z
" clip-path="url(#pf62fc0bae2)" style="fill: #1f77b4; fill-opacity: 0.5; stroke: #000000; stroke-width: 0.507273; stroke-linejoin: miter"/>
   </g>
   <g id="patch_4">
    <path d="M 65.039909 59.4 
L 70.728455 59.4 
L 70.728455 55.393019 
L 65.039909 55.393019 
z
" clip-path="url(#pf62fc0bae2)" style="fill: #1f77b4; fill-opacity: 0.5; stroke: #000000; stroke-width: 0.507273; stroke-linejoin: miter"/>
   </g>
   <g id="patch_5">
    <path d="M 70.728455 59.4 
L 76.417 59.4 
L 76.417 52.244677 
L 70.728455 52.244677 
z
" clip-path="url(#pf62fc0bae2)" style="fill: #1f77b4; fill-opacity: 0.5; stroke: #000000; stroke-width: 0.507273; stroke-linejoin: miter"/>
   </g>
   <g id="patch_6">
    <path d="M 76.417 59.4 
L 82.105545 59.4 
L 82.105545 35.644328 
L 76.417 35.644328 
z
" clip-path="url(#pf62fc0bae2)" style="fill: #1f77b4; fill-opacity: 0.5; stroke: #000000; stroke-width: 0.507273; stroke-linejoin: miter"/>
   </g>
   <g id="patch_7">
    <path d="M 82.105545 59.4 
L 87.794091 59.4 
L 87.794091 23.623386 
L 82.105545 23.623386 
z
" clip-path="url(#pf62fc0bae2)" style="fill: #1f77b4; fill-opacity: 0.5; stroke: #000000; stroke-width: 0.507273; stroke-linejoin: miter"/>
   </g>
   <g id="patch_8">
    <path d="M 87.794091 59.4 
L 93.482636 59.4 
L 93.482636 16.468063 
L 87.794091 16.468063 
z
" clip-path="url(#pf62fc0bae2)" style="fill: #1f77b4; fill-opacity: 0.5; stroke: #000000; stroke-width: 0.507273; stroke-linejoin: miter"/>
   </g>
   <g id="patch_9">
    <path d="M 93.482636 59.4 
L 99.171182 59.4 
L 99.171182 4.733333 
L 93.482636 4.733333 
z
" clip-path="url(#pf62fc0bae2)" style="fill: #1f77b4; fill-opacity: 0.5; stroke: #000000; stroke-width: 0.507273; stroke-linejoin: miter"/>
   </g>
   <g id="patch_10">
    <path d="M 99.171182 59.4 
L 104.859727 59.4 
L 104.859727 11.030017 
L 99.171182 11.030017 
z
" clip-path="url(#pf62fc0bae2)" style="fill: #1f77b4; fill-opacity: 0.5; stroke: #000000; stroke-width: 0.507273; stroke-linejoin: miter"/>
   </g>
   <g id="patch_11">
    <path d="M 104.859727 59.4 
L 110.548273 59.4 
L 110.548273 24.195812 
L 104.859727 24.195812 
z
" clip-path="url(#pf62fc0bae2)" style="fill: #1f77b4; fill-opacity: 0.5; stroke: #000000; stroke-width: 0.507273; stroke-linejoin: miter"/>
   </g>
   <g id="patch_12">
    <path d="M 110.548273 59.4 
L 116.236818 59.4 
L 116.236818 45.089354 
L 110.548273 45.089354 
z
" clip-path="url(#pf62fc0bae2)" style="fill: #1f77b4; fill-opacity: 0.5; stroke: #000000; stroke-width: 0.507273; stroke-linejoin: miter"/>
   </g>
   <g id="patch_13">
    <path d="M 116.236818 59.4 
L 121.925364 59.4 
L 121.925364 52.244677 
L 116.236818 52.244677 
z
" clip-path="url(#pf62fc0bae2)" style="fill: #1f77b4; fill-opacity: 0.5; stroke: #000000; stroke-width: 0.507273; stroke-linejoin: miter"/>
   </g>
   <g id="patch_14">
    <path d="M 121.925364 59.4 
L 127.613909 59.4 
L 127.613909 55.106806 
L 121.925364 55.106806 
z
" clip-path="url(#pf62fc0bae2)" style="fill: #1f77b4; fill-opacity: 0.5; stroke: #000000; stroke-width: 0.507273; stroke-linejoin: miter"/>
   </g>
   <g id="patch_15">
    <path d="M 127.613909 59.4 
L 133.302455 59.4 
L 133.302455 58.827574 
L 127.613909 58.827574 
z
" clip-path="url(#pf62fc0bae2)" style="fill: #1f77b4; fill-opacity: 0.5; stroke: #000000; stroke-width: 0.507273; stroke-linejoin: miter"/>
   </g>
   <g id="patch_16">
    <path d="M 133.302455 59.4 
L 138.991 59.4 
L 138.991 59.113787 
L 133.302455 59.113787 
z
" clip-path="url(#pf62fc0bae2)" style="fill: #1f77b4; fill-opacity: 0.5; stroke: #000000; stroke-width: 0.507273; stroke-linejoin: miter"/>
   </g>
   <g id="patch_17">
    <path d="M 138.991 59.4 
L 144.679545 59.4 
L 144.679545 59.4 
L 138.991 59.4 
z
" clip-path="url(#pf62fc0bae2)" style="fill: #1f77b4; fill-opacity: 0.5; stroke: #000000; stroke-width: 0.507273; stroke-linejoin: miter"/>
   </g>
   <g id="patch_18">
    <path d="M 144.679545 59.4 
L 150.368091 59.4 
L 150.368091 59.4 
L 144.679545 59.4 
z
" clip-path="url(#pf62fc0bae2)" style="fill: #1f77b4; fill-opacity: 0.5; stroke: #000000; stroke-width: 0.507273; stroke-linejoin: miter"/>
   </g>
   <g id="patch_19">
    <path d="M 150.368091 59.4 
L 156.056636 59.4 
L 156.056636 59.4 
L 150.368091 59.4 
z
" clip-path="url(#pf62fc0bae2)" style="fill: #1f77b4; fill-opacity: 0.5; stroke: #000000; stroke-width: 0.507273; stroke-linejoin: miter"/>
   </g>
   <g id="patch_20">
    <path d="M 156.056636 59.4 
L 161.745182 59.4 
L 161.745182 59.4 
L 156.056636 59.4 
z
" clip-path="url(#pf62fc0bae2)" style="fill: #1f77b4; fill-opacity: 0.5; stroke: #000000; stroke-width: 0.507273; stroke-linejoin: miter"/>
   </g>
   <g id="patch_21">
    <path d="M 161.745182 59.4 
L 167.433727 59.4 
L 167.433727 59.113787 
L 161.745182 59.113787 
z
" clip-path="url(#pf62fc0bae2)" style="fill: #1f77b4; fill-opacity: 0.5; stroke: #000000; stroke-width: 0.507273; stroke-linejoin: miter"/>
   </g>
   <g id="patch_22">
    <path d="M 167.433727 59.4 
L 173.122273 59.4 
L 173.122273 59.4 
L 167.433727 59.4 
z
" clip-path="url(#pf62fc0bae2)" style="fill: #1f77b4; fill-opacity: 0.5; stroke: #000000; stroke-width: 0.507273; stroke-linejoin: miter"/>
   </g>
   <g id="patch_23">
    <path d="M 173.122273 59.4 
L 178.810818 59.4 
L 178.810818 59.113787 
L 173.122273 59.113787 
z
" clip-path="url(#pf62fc0bae2)" style="fill: #1f77b4; fill-opacity: 0.5; stroke: #000000; stroke-width: 0.507273; stroke-linejoin: miter"/>
   </g>
   <g id="patch_24">
    <path d="M 178.810818 59.4 
L 184.499364 59.4 
L 184.499364 59.113787 
L 178.810818 59.113787 
z
" clip-path="url(#pf62fc0bae2)" style="fill: #1f77b4; fill-opacity: 0.5; stroke: #000000; stroke-width: 0.507273; stroke-linejoin: miter"/>
   </g>
   <g id="patch_25">
    <path d="M 184.499364 59.4 
L 190.187909 59.4 
L 190.187909 59.113787 
L 184.499364 59.113787 
z
" clip-path="url(#pf62fc0bae2)" style="fill: #1f77b4; fill-opacity: 0.5; stroke: #000000; stroke-width: 0.507273; stroke-linejoin: miter"/>
   </g>
   <g id="patch_26">
    <path d="M 190.187909 59.4 
L 195.876455 59.4 
L 195.876455 58.827574 
L 190.187909 58.827574 
z
" clip-path="url(#pf62fc0bae2)" style="fill: #1f77b4; fill-opacity: 0.5; stroke: #000000; stroke-width: 0.507273; stroke-linejoin: miter"/>
   </g>
   <g id="patch_27">
    <path d="M 195.876455 59.4 
L 201.565 59.4 
L 201.565 57.39651 
L 195.876455 57.39651 
z
" clip-path="url(#pf62fc0bae2)" style="fill: #1f77b4; fill-opacity: 0.5; stroke: #000000; stroke-width: 0.507273; stroke-linejoin: miter"/>
   </g>
   <g id="patch_28">
    <path d="M 201.565 59.4 
L 207.253545 59.4 
L 207.253545 57.39651 
L 201.565 57.39651 
z
" clip-path="url(#pf62fc0bae2)" style="fill: #1f77b4; fill-opacity: 0.5; stroke: #000000; stroke-width: 0.507273; stroke-linejoin: miter"/>
   </g>
   <g id="patch_29">
    <path d="M 207.253545 59.4 
L 212.942091 59.4 
L 212.942091 54.820593 
L 207.253545 54.820593 
z
" clip-path="url(#pf62fc0bae2)" style="fill: #1f77b4; fill-opacity: 0.5; stroke: #000000; stroke-width: 0.507273; stroke-linejoin: miter"/>
   </g>
   <g id="patch_30">
    <path d="M 212.942091 59.4 
L 218.630636 59.4 
L 218.630636 54.248168 
L 212.942091 54.248168 
z
" clip-path="url(#pf62fc0bae2)" style="fill: #1f77b4; fill-opacity: 0.5; stroke: #000000; stroke-width: 0.507273; stroke-linejoin: miter"/>
   </g>
   <g id="patch_31">
    <path d="M 218.630636 59.4 
L 224.319182 59.4 
L 224.319182 50.241187 
L 218.630636 50.241187 
z
" clip-path="url(#pf62fc0bae2)" style="fill: #1f77b4; fill-opacity: 0.5; stroke: #000000; stroke-width: 0.507273; stroke-linejoin: miter"/>
   </g>
   <g id="patch_32">
    <path d="M 224.319182 59.4 
L 230.007727 59.4 
L 230.007727 43.944503 
L 224.319182 43.944503 
z
" clip-path="url(#pf62fc0bae2)" style="fill: #1f77b4; fill-opacity: 0.5; stroke: #000000; stroke-width: 0.507273; stroke-linejoin: miter"/>
   </g>
   <g id="patch_33">
    <path d="M 230.007727 59.4 
L 235.696273 59.4 
L 235.696273 40.796161 
L 230.007727 40.796161 
z
" clip-path="url(#pf62fc0bae2)" style="fill: #1f77b4; fill-opacity: 0.5; stroke: #000000; stroke-width: 0.507273; stroke-linejoin: miter"/>
   </g>
   <g id="patch_34">
    <path d="M 235.696273 59.4 
L 241.384818 59.4 
L 241.384818 38.79267 
L 235.696273 38.79267 
z
" clip-path="url(#pf62fc0bae2)" style="fill: #1f77b4; fill-opacity: 0.5; stroke: #000000; stroke-width: 0.507273; stroke-linejoin: miter"/>
   </g>
   <g id="patch_35">
    <path d="M 241.384818 59.4 
L 247.073364 59.4 
L 247.073364 32.209773 
L 241.384818 32.209773 
z
" clip-path="url(#pf62fc0bae2)" style="fill: #1f77b4; fill-opacity: 0.5; stroke: #000000; stroke-width: 0.507273; stroke-linejoin: miter"/>
   </g>
   <g id="patch_36">
    <path d="M 247.073364 59.4 
L 252.761909 59.4 
L 252.761909 32.209773 
L 247.073364 32.209773 
z
" clip-path="url(#pf62fc0bae2)" style="fill: #1f77b4; fill-opacity: 0.5; stroke: #000000; stroke-width: 0.507273; stroke-linejoin: miter"/>
   </g>
   <g id="patch_37">
    <path d="M 252.761909 59.4 
L 258.450455 59.4 
L 258.450455 34.785689 
L 252.761909 34.785689 
z
" clip-path="url(#pf62fc0bae2)" style="fill: #1f77b4; fill-opacity: 0.5; stroke: #000000; stroke-width: 0.507273; stroke-linejoin: miter"/>
   </g>
   <g id="patch_38">
    <path d="M 258.450455 59.4 
L 264.139 59.4 
L 264.139 31.92356 
L 258.450455 31.92356 
z
" clip-path="url(#pf62fc0bae2)" style="fill: #1f77b4; fill-opacity: 0.5; stroke: #000000; stroke-width: 0.507273; stroke-linejoin: miter"/>
   </g>
   <g id="patch_39">
    <path d="M 264.139 59.4 
L 269.827545 59.4 
L 269.827545 35.071902 
L 264.139 35.071902 
z
" clip-path="url(#pf62fc0bae2)" style="fill: #1f77b4; fill-opacity: 0.5; stroke: #000000; stroke-width: 0.507273; stroke-linejoin: miter"/>
   </g>
   <g id="patch_40">
    <path d="M 269.827545 59.4 
L 275.516091 59.4 
L 275.516091 35.644328 
L 269.827545 35.644328 
z
" clip-path="url(#pf62fc0bae2)" style="fill: #1f77b4; fill-opacity: 0.5; stroke: #000000; stroke-width: 0.507273; stroke-linejoin: miter"/>
   </g>
   <g id="patch_41">
    <path d="M 275.516091 59.4 
L 281.204636 59.4 
L 281.204636 44.803141 
L 275.516091 44.803141 
z
" clip-path="url(#pf62fc0bae2)" style="fill: #1f77b4; fill-opacity: 0.5; stroke: #000000; stroke-width: 0.507273; stroke-linejoin: miter"/>
   </g>
   <g id="patch_42">
    <path d="M 281.204636 59.4 
L 286.893182 59.4 
L 286.893182 45.947993 
L 281.204636 45.947993 
z
" clip-path="url(#pf62fc0bae2)" style="fill: #1f77b4; fill-opacity: 0.5; stroke: #000000; stroke-width: 0.507273; stroke-linejoin: miter"/>
   </g>
   <g id="patch_43">
    <path d="M 286.893182 59.4 
L 292.581727 59.4 
L 292.581727 50.813613 
L 286.893182 50.813613 
z
" clip-path="url(#pf62fc0bae2)" style="fill: #1f77b4; fill-opacity: 0.5; stroke: #000000; stroke-width: 0.507273; stroke-linejoin: miter"/>
   </g>
   <g id="patch_44">
    <path d="M 292.581727 59.4 
L 298.270273 59.4 
L 298.270273 51.958464 
L 292.581727 51.958464 
z
" clip-path="url(#pf62fc0bae2)" style="fill: #1f77b4; fill-opacity: 0.5; stroke: #000000; stroke-width: 0.507273; stroke-linejoin: miter"/>
   </g>
   <g id="patch_45">
    <path d="M 298.270273 59.4 
L 303.958818 59.4 
L 303.958818 52.244677 
L 298.270273 52.244677 
z
" clip-path="url(#pf62fc0bae2)" style="fill: #1f77b4; fill-opacity: 0.5; stroke: #000000; stroke-width: 0.507273; stroke-linejoin: miter"/>
   </g>
   <g id="patch_46">
    <path d="M 303.958818 59.4 
L 309.647364 59.4 
L 309.647364 56.537871 
L 303.958818 56.537871 
z
" clip-path="url(#pf62fc0bae2)" style="fill: #1f77b4; fill-opacity: 0.5; stroke: #000000; stroke-width: 0.507273; stroke-linejoin: miter"/>
   </g>
   <g id="patch_47">
    <path d="M 309.647364 59.4 
L 315.335909 59.4 
L 315.335909 56.537871 
L 309.647364 56.537871 
z
" clip-path="url(#pf62fc0bae2)" style="fill: #1f77b4; fill-opacity: 0.5; stroke: #000000; stroke-width: 0.507273; stroke-linejoin: miter"/>
   </g>
   <g id="patch_48">
    <path d="M 315.335909 59.4 
L 321.024455 59.4 
L 321.024455 58.541361 
L 315.335909 58.541361 
z
" clip-path="url(#pf62fc0bae2)" style="fill: #1f77b4; fill-opacity: 0.5; stroke: #000000; stroke-width: 0.507273; stroke-linejoin: miter"/>
   </g>
   <g id="patch_49">
    <path d="M 321.024455 59.4 
L 326.713 59.4 
L 326.713 59.4 
L 321.024455 59.4 
z
" clip-path="url(#pf62fc0bae2)" style="fill: #1f77b4; fill-opacity: 0.5; stroke: #000000; stroke-width: 0.507273; stroke-linejoin: miter"/>
   </g>
   <g id="patch_50">
    <path d="M 326.713 59.4 
L 332.401545 59.4 
L 332.401545 59.4 
L 326.713 59.4 
z
" clip-path="url(#pf62fc0bae2)" style="fill: #1f77b4; fill-opacity: 0.5; stroke: #000000; stroke-width: 0.507273; stroke-linejoin: miter"/>
   </g>
   <g id="patch_51">
    <path d="M 332.401545 59.4 
L 338.090091 59.4 
L 338.090091 59.4 
L 332.401545 59.4 
z
" clip-path="url(#pf62fc0bae2)" style="fill: #1f77b4; fill-opacity: 0.5; stroke: #000000; stroke-width: 0.507273; stroke-linejoin: miter"/>
   </g>
   <g id="patch_52">
    <path d="M 338.090091 59.4 
L 343.778636 59.4 
L 343.778636 59.113787 
L 338.090091 59.113787 
z
" clip-path="url(#pf62fc0bae2)" style="fill: #1f77b4; fill-opacity: 0.5; stroke: #000000; stroke-width: 0.507273; stroke-linejoin: miter"/>
   </g>
   <g id="matplotlib.axis_1">
    <g id="xtick_1">
     <g id="line2d_1">
      <defs>
       <path id="mcf9ce05d31" d="M 0 0 
L 0 3.5 
" style="stroke: #000000; stroke-width: 0.8"/>
      </defs>
      <g>
       <use xlink:href="#mcf9ce05d31" x="75.465639" y="59.4" style="stroke: #000000; stroke-width: 0.8"/>
      </g>
     </g>
    </g>
    <g id="xtick_2">
     <g id="line2d_2">
      <g>
       <use xlink:href="#mcf9ce05d31" x="121.311255" y="59.4" style="stroke: #000000; stroke-width: 0.8"/>
      </g>
     </g>
    </g>
    <g id="xtick_3">
     <g id="line2d_3">
      <g>
       <use xlink:href="#mcf9ce05d31" x="167.156871" y="59.4" style="stroke: #000000; stroke-width: 0.8"/>
      </g>
     </g>
    </g>
    <g id="xtick_4">
     <g id="line2d_4">
      <g>
       <use xlink:href="#mcf9ce05d31" x="213.002488" y="59.4" style="stroke: #000000; stroke-width: 0.8"/>
      </g>
     </g>
    </g>
    <g id="xtick_5">
     <g id="line2d_5">
      <g>
       <use xlink:href="#mcf9ce05d31" x="258.848104" y="59.4" style="stroke: #000000; stroke-width: 0.8"/>
      </g>
     </g>
    </g>
    <g id="xtick_6">
     <g id="line2d_6">
      <g>
       <use xlink:href="#mcf9ce05d31" x="304.69372" y="59.4" style="stroke: #000000; stroke-width: 0.8"/>
      </g>
     </g>
    </g>
    <g id="xtick_7">
     <g id="line2d_7">
      <g>
       <use xlink:href="#mcf9ce05d31" x="350.539336" y="59.4" style="stroke: #000000; stroke-width: 0.8"/>
      </g>
     </g>
    </g>
   </g>
   <g id="matplotlib.axis_2">
    <g id="ytick_1">
     <g id="line2d_8">
      <defs>
       <path id="mdc6a631fe4" d="M 0 0 
L -3.5 0 
" style="stroke: #000000; stroke-width: 0.8"/>
      </defs>
      <g>
       <use xlink:href="#mdc6a631fe4" x="45.13" y="59.4" style="stroke: #000000; stroke-width: 0.8"/>
      </g>
     </g>
     <g id="text_1">
      <!-- 0.00 -->
      <g transform="translate(15.864375 63.199219) scale(0.1 -0.1)">
       <defs>
        <path id="DejaVuSans-30" d="M 2034 4250 
Q 1547 4250 1301 3770 
Q 1056 3291 1056 2328 
Q 1056 1369 1301 889 
Q 1547 409 2034 409 
Q 2525 409 2770 889 
Q 3016 1369 3016 2328 
Q 3016 3291 2770 3770 
Q 2525 4250 2034 4250 
z
M 2034 4750 
Q 2819 4750 3233 4129 
Q 3647 3509 3647 2328 
Q 3647 1150 3233 529 
Q 2819 -91 2034 -91 
Q 1250 -91 836 529 
Q 422 1150 422 2328 
Q 422 3509 836 4129 
Q 1250 4750 2034 4750 
z
" transform="scale(0.015625)"/>
        <path id="DejaVuSans-2e" d="M 684 794 
L 1344 794 
L 1344 0 
L 684 0 
L 684 794 
z
" transform="scale(0.015625)"/>
       </defs>
       <use xlink:href="#DejaVuSans-30"/>
       <use xlink:href="#DejaVuSans-2e" x="63.623047"/>
       <use xlink:href="#DejaVuSans-30" x="95.410156"/>
       <use xlink:href="#DejaVuSans-30" x="159.033203"/>
      </g>
     </g>
    </g>
    <g id="ytick_2">
     <g id="line2d_9">
      <g>
       <use xlink:href="#mdc6a631fe4" x="45.13" y="23.886568" style="stroke: #000000; stroke-width: 0.8"/>
      </g>
     </g>
     <g id="text_2">
      <!-- 0.25 -->
      <g transform="translate(15.864375 27.685787) scale(0.1 -0.1)">
       <defs>
        <path id="DejaVuSans-32" d="M 1228 531 
L 3431 531 
L 3431 0 
L 469 0 
L 469 531 
Q 828 903 1448 1529 
Q 2069 2156 2228 2338 
Q 2531 2678 2651 2914 
Q 2772 3150 2772 3378 
Q 2772 3750 2511 3984 
Q 2250 4219 1831 4219 
Q 1534 4219 1204 4116 
Q 875 4013 500 3803 
L 500 4441 
Q 881 4594 1212 4672 
Q 1544 4750 1819 4750 
Q 2544 4750 2975 4387 
Q 3406 4025 3406 3419 
Q 3406 3131 3298 2873 
Q 3191 2616 2906 2266 
Q 2828 2175 2409 1742 
Q 1991 1309 1228 531 
z
" transform="scale(0.015625)"/>
        <path id="DejaVuSans-35" d="M 691 4666 
L 3169 4666 
L 3169 4134 
L 1269 4134 
L 1269 2991 
Q 1406 3038 1543 3061 
Q 1681 3084 1819 3084 
Q 2600 3084 3056 2656 
Q 3513 2228 3513 1497 
Q 3513 744 3044 326 
Q 2575 -91 1722 -91 
Q 1428 -91 1123 -41 
Q 819 9 494 109 
L 494 744 
Q 775 591 1075 516 
Q 1375 441 1709 441 
Q 2250 441 2565 725 
Q 2881 1009 2881 1497 
Q 2881 1984 2565 2268 
Q 2250 2553 1709 2553 
Q 1456 2553 1204 2497 
Q 953 2441 691 2322 
L 691 4666 
z
" transform="scale(0.015625)"/>
       </defs>
       <use xlink:href="#DejaVuSans-30"/>
       <use xlink:href="#DejaVuSans-2e" x="63.623047"/>
       <use xlink:href="#DejaVuSans-32" x="95.410156"/>
       <use xlink:href="#DejaVuSans-35" x="159.033203"/>
      </g>
     </g>
    </g>
    <g id="text_3">
     <!-- Density -->
     <g transform="translate(9.784688 49.708594) rotate(-90) scale(0.1 -0.1)">
      <defs>
       <path id="DejaVuSans-44" d="M 1259 4147 
L 1259 519 
L 2022 519 
Q 2988 519 3436 956 
Q 3884 1394 3884 2338 
Q 3884 3275 3436 3711 
Q 2988 4147 2022 4147 
L 1259 4147 
z
M 628 4666 
L 1925 4666 
Q 3281 4666 3915 4102 
Q 4550 3538 4550 2338 
Q 4550 1131 3912 565 
Q 3275 0 1925 0 
L 628 0 
L 628 4666 
z
" transform="scale(0.015625)"/>
       <path id="DejaVuSans-65" d="M 3597 1894 
L 3597 1613 
L 953 1613 
Q 991 1019 1311 708 
Q 1631 397 2203 397 
Q 2534 397 2845 478 
Q 3156 559 3463 722 
L 3463 178 
Q 3153 47 2828 -22 
Q 2503 -91 2169 -91 
Q 1331 -91 842 396 
Q 353 884 353 1716 
Q 353 2575 817 3079 
Q 1281 3584 2069 3584 
Q 2775 3584 3186 3129 
Q 3597 2675 3597 1894 
z
M 3022 2063 
Q 3016 2534 2758 2815 
Q 2500 3097 2075 3097 
Q 1594 3097 1305 2825 
Q 1016 2553 972 2059 
L 3022 2063 
z
" transform="scale(0.015625)"/>
       <path id="DejaVuSans-6e" d="M 3513 2113 
L 3513 0 
L 2938 0 
L 2938 2094 
Q 2938 2591 2744 2837 
Q 2550 3084 2163 3084 
Q 1697 3084 1428 2787 
Q 1159 2491 1159 1978 
L 1159 0 
L 581 0 
L 581 3500 
L 1159 3500 
L 1159 2956 
Q 1366 3272 1645 3428 
Q 1925 3584 2291 3584 
Q 2894 3584 3203 3211 
Q 3513 2838 3513 2113 
z
" transform="scale(0.015625)"/>
       <path id="DejaVuSans-73" d="M 2834 3397 
L 2834 2853 
Q 2591 2978 2328 3040 
Q 2066 3103 1784 3103 
Q 1356 3103 1142 2972 
Q 928 2841 928 2578 
Q 928 2378 1081 2264 
Q 1234 2150 1697 2047 
L 1894 2003 
Q 2506 1872 2764 1633 
Q 3022 1394 3022 966 
Q 3022 478 2636 193 
Q 2250 -91 1575 -91 
Q 1294 -91 989 -36 
Q 684 19 347 128 
L 347 722 
Q 666 556 975 473 
Q 1284 391 1588 391 
Q 1994 391 2212 530 
Q 2431 669 2431 922 
Q 2431 1156 2273 1281 
Q 2116 1406 1581 1522 
L 1381 1569 
Q 847 1681 609 1914 
Q 372 2147 372 2553 
Q 372 3047 722 3315 
Q 1072 3584 1716 3584 
Q 2034 3584 2315 3537 
Q 2597 3491 2834 3397 
z
" transform="scale(0.015625)"/>
       <path id="DejaVuSans-69" d="M 603 3500 
L 1178 3500 
L 1178 0 
L 603 0 
L 603 3500 
z
M 603 4863 
L 1178 4863 
L 1178 4134 
L 603 4134 
L 603 4863 
z
" transform="scale(0.015625)"/>
       <path id="DejaVuSans-74" d="M 1172 4494 
L 1172 3500 
L 2356 3500 
L 2356 3053 
L 1172 3053 
L 1172 1153 
Q 1172 725 1289 603 
Q 1406 481 1766 481 
L 2356 481 
L 2356 0 
L 1766 0 
Q 1100 0 847 248 
Q 594 497 594 1153 
L 594 3053 
L 172 3053 
L 172 3500 
L 594 3500 
L 594 4494 
L 1172 4494 
z
" transform="scale(0.015625)"/>
       <path id="DejaVuSans-79" d="M 2059 -325 
Q 1816 -950 1584 -1140 
Q 1353 -1331 966 -1331 
L 506 -1331 
L 506 -850 
L 844 -850 
Q 1081 -850 1212 -737 
Q 1344 -625 1503 -206 
L 1606 56 
L 191 3500 
L 800 3500 
L 1894 763 
L 2988 3500 
L 3597 3500 
L 2059 -325 
z
" transform="scale(0.015625)"/>
      </defs>
      <use xlink:href="#DejaVuSans-44"/>
      <use xlink:href="#DejaVuSans-65" x="77.001953"/>
      <use xlink:href="#DejaVuSans-6e" x="138.525391"/>
      <use xlink:href="#DejaVuSans-73" x="201.904297"/>
      <use xlink:href="#DejaVuSans-69" x="254.003906"/>
      <use xlink:href="#DejaVuSans-74" x="281.787109"/>
      <use xlink:href="#DejaVuSans-79" x="320.996094"/>
     </g>
    </g>
   </g>
   <g id="line2d_10">
    <path d="M 59.351364 52.315438 
L 62.209929 50.619751 
L 65.068495 48.70686 
L 69.356343 45.492038 
L 76.502757 39.650129 
L 80.790605 36.270297 
L 83.649171 34.257046 
L 86.507736 32.542424 
L 89.366302 31.208543 
L 90.795585 30.705985 
L 92.224868 30.322098 
L 93.65415 30.061903 
L 95.083433 29.928854 
L 96.512716 29.924755 
L 97.941999 30.049721 
L 99.371281 30.302176 
L 100.800564 30.67888 
L 103.65913 31.784207 
L 106.517695 33.309953 
L 109.376261 35.181383 
L 112.234826 37.310827 
L 117.951958 41.969159 
L 123.669089 46.577735 
L 127.956937 49.671419 
L 130.815503 51.480197 
L 133.674068 53.061866 
L 136.532634 54.411941 
L 139.391199 55.537543 
L 142.249765 56.454405 
L 145.10833 57.183867 
L 149.396179 57.979865 
L 153.684027 58.491149 
L 157.971875 58.791209 
L 163.689006 58.960372 
L 170.83542 58.915664 
L 177.981834 58.637866 
L 183.698965 58.226222 
L 189.416096 57.595027 
L 193.703945 56.940346 
L 197.991793 56.100927 
L 202.279641 55.055146 
L 206.56749 53.790772 
L 210.855338 52.309577 
L 215.143186 50.63111 
L 220.860317 48.157214 
L 233.723862 42.402444 
L 238.011711 40.731999 
L 242.299559 39.331189 
L 245.158125 38.584039 
L 248.01669 38.007318 
L 250.875256 37.614548 
L 253.733821 37.414722 
L 256.592387 37.411987 
L 259.450952 37.605462 
L 262.309518 37.989221 
L 265.168084 38.552451 
L 269.455932 39.699164 
L 273.74378 41.146681 
L 279.460911 43.403449 
L 298.041587 51.109713 
L 303.758719 53.07858 
L 308.046567 54.356321 
L 312.334415 55.457885 
L 318.051546 56.65876 
L 323.768677 57.574339 
L 329.485809 58.23877 
L 335.20294 58.694959 
L 342.349354 59.04417 
L 343.778636 59.091763 
L 343.778636 59.091763 
" clip-path="url(#pf62fc0bae2)" style="fill: none; stroke: #1f77b4; stroke-width: 1.5; stroke-linecap: square"/>
   </g>
   <g id="patch_53">
    <path d="M 45.13 59.4 
L 45.13 2 
" style="fill: none; stroke: #000000; stroke-width: 0.8; stroke-linejoin: miter; stroke-linecap: square"/>
   </g>
   <g id="patch_54">
    <path d="M 358 59.4 
L 358 2 
" style="fill: none; stroke: #000000; stroke-width: 0.8; stroke-linejoin: miter; stroke-linecap: square"/>
   </g>
   <g id="patch_55">
    <path d="M 45.13 59.4 
L 358 59.4 
" style="fill: none; stroke: #000000; stroke-width: 0.8; stroke-linejoin: miter; stroke-linecap: square"/>
   </g>
   <g id="patch_56">
    <path d="M 45.13 2 
L 358 2 
" style="fill: none; stroke: #000000; stroke-width: 0.8; stroke-linejoin: miter; stroke-linecap: square"/>
   </g>
   <g id="legend_1">
    <g id="patch_57">
     <path d="M 256.292188 24.678125 
L 351 24.678125 
Q 353 24.678125 353 22.678125 
L 353 9 
Q 353 7 351 7 
L 256.292188 7 
Q 254.292188 7 254.292188 9 
L 254.292188 22.678125 
Q 254.292188 24.678125 256.292188 24.678125 
z
" style="fill: #ffffff; opacity: 0.8; stroke: #cccccc; stroke-linejoin: miter"/>
    </g>
    <g id="line2d_11">
     <path d="M 258.292188 15.098437 
L 268.292188 15.098437 
L 278.292188 15.098437 
" style="fill: none; stroke: #1f77b4; stroke-width: 1.5; stroke-linecap: square"/>
    </g>
    <g id="text_4">
     <!-- No guidance -->
     <g transform="translate(286.292188 18.598437) scale(0.1 -0.1)">
      <defs>
       <path id="DejaVuSans-4e" d="M 628 4666 
L 1478 4666 
L 3547 763 
L 3547 4666 
L 4159 4666 
L 4159 0 
L 3309 0 
L 1241 3903 
L 1241 0 
L 628 0 
L 628 4666 
z
" transform="scale(0.015625)"/>
       <path id="DejaVuSans-6f" d="M 1959 3097 
Q 1497 3097 1228 2736 
Q 959 2375 959 1747 
Q 959 1119 1226 758 
Q 1494 397 1959 397 
Q 2419 397 2687 759 
Q 2956 1122 2956 1747 
Q 2956 2369 2687 2733 
Q 2419 3097 1959 3097 
z
M 1959 3584 
Q 2709 3584 3137 3096 
Q 3566 2609 3566 1747 
Q 3566 888 3137 398 
Q 2709 -91 1959 -91 
Q 1206 -91 779 398 
Q 353 888 353 1747 
Q 353 2609 779 3096 
Q 1206 3584 1959 3584 
z
" transform="scale(0.015625)"/>
       <path id="DejaVuSans-20" transform="scale(0.015625)"/>
       <path id="DejaVuSans-67" d="M 2906 1791 
Q 2906 2416 2648 2759 
Q 2391 3103 1925 3103 
Q 1463 3103 1205 2759 
Q 947 2416 947 1791 
Q 947 1169 1205 825 
Q 1463 481 1925 481 
Q 2391 481 2648 825 
Q 2906 1169 2906 1791 
z
M 3481 434 
Q 3481 -459 3084 -895 
Q 2688 -1331 1869 -1331 
Q 1566 -1331 1297 -1286 
Q 1028 -1241 775 -1147 
L 775 -588 
Q 1028 -725 1275 -790 
Q 1522 -856 1778 -856 
Q 2344 -856 2625 -561 
Q 2906 -266 2906 331 
L 2906 616 
Q 2728 306 2450 153 
Q 2172 0 1784 0 
Q 1141 0 747 490 
Q 353 981 353 1791 
Q 353 2603 747 3093 
Q 1141 3584 1784 3584 
Q 2172 3584 2450 3431 
Q 2728 3278 2906 2969 
L 2906 3500 
L 3481 3500 
L 3481 434 
z
" transform="scale(0.015625)"/>
       <path id="DejaVuSans-75" d="M 544 1381 
L 544 3500 
L 1119 3500 
L 1119 1403 
Q 1119 906 1312 657 
Q 1506 409 1894 409 
Q 2359 409 2629 706 
Q 2900 1003 2900 1516 
L 2900 3500 
L 3475 3500 
L 3475 0 
L 2900 0 
L 2900 538 
Q 2691 219 2414 64 
Q 2138 -91 1772 -91 
Q 1169 -91 856 284 
Q 544 659 544 1381 
z
M 1991 3584 
L 1991 3584 
z
" transform="scale(0.015625)"/>
       <path id="DejaVuSans-64" d="M 2906 2969 
L 2906 4863 
L 3481 4863 
L 3481 0 
L 2906 0 
L 2906 525 
Q 2725 213 2448 61 
Q 2172 -91 1784 -91 
Q 1150 -91 751 415 
Q 353 922 353 1747 
Q 353 2572 751 3078 
Q 1150 3584 1784 3584 
Q 2172 3584 2448 3432 
Q 2725 3281 2906 2969 
z
M 947 1747 
Q 947 1113 1208 752 
Q 1469 391 1925 391 
Q 2381 391 2643 752 
Q 2906 1113 2906 1747 
Q 2906 2381 2643 2742 
Q 2381 3103 1925 3103 
Q 1469 3103 1208 2742 
Q 947 2381 947 1747 
z
" transform="scale(0.015625)"/>
       <path id="DejaVuSans-61" d="M 2194 1759 
Q 1497 1759 1228 1600 
Q 959 1441 959 1056 
Q 959 750 1161 570 
Q 1363 391 1709 391 
Q 2188 391 2477 730 
Q 2766 1069 2766 1631 
L 2766 1759 
L 2194 1759 
z
M 3341 1997 
L 3341 0 
L 2766 0 
L 2766 531 
Q 2569 213 2275 61 
Q 1981 -91 1556 -91 
Q 1019 -91 701 211 
Q 384 513 384 1019 
Q 384 1609 779 1909 
Q 1175 2209 1959 2209 
L 2766 2209 
L 2766 2266 
Q 2766 2663 2505 2880 
Q 2244 3097 1772 3097 
Q 1472 3097 1187 3025 
Q 903 2953 641 2809 
L 641 3341 
Q 956 3463 1253 3523 
Q 1550 3584 1831 3584 
Q 2591 3584 2966 3190 
Q 3341 2797 3341 1997 
z
" transform="scale(0.015625)"/>
       <path id="DejaVuSans-63" d="M 3122 3366 
L 3122 2828 
Q 2878 2963 2633 3030 
Q 2388 3097 2138 3097 
Q 1578 3097 1268 2742 
Q 959 2388 959 1747 
Q 959 1106 1268 751 
Q 1578 397 2138 397 
Q 2388 397 2633 464 
Q 2878 531 3122 666 
L 3122 134 
Q 2881 22 2623 -34 
Q 2366 -91 2075 -91 
Q 1284 -91 818 406 
Q 353 903 353 1747 
Q 353 2603 823 3093 
Q 1294 3584 2113 3584 
Q 2378 3584 2631 3529 
Q 2884 3475 3122 3366 
z
" transform="scale(0.015625)"/>
      </defs>
      <use xlink:href="#DejaVuSans-4e"/>
      <use xlink:href="#DejaVuSans-6f" x="74.804688"/>
      <use xlink:href="#DejaVuSans-20" x="135.986328"/>
      <use xlink:href="#DejaVuSans-67" x="167.773438"/>
      <use xlink:href="#DejaVuSans-75" x="231.25"/>
      <use xlink:href="#DejaVuSans-69" x="294.628906"/>
      <use xlink:href="#DejaVuSans-64" x="322.412109"/>
      <use xlink:href="#DejaVuSans-61" x="385.888672"/>
      <use xlink:href="#DejaVuSans-6e" x="447.167969"/>
      <use xlink:href="#DejaVuSans-63" x="510.546875"/>
      <use xlink:href="#DejaVuSans-65" x="565.527344"/>
     </g>
    </g>
   </g>
  </g>
  <g id="axes_2">
   <g id="patch_58">
    <path d="M 45.13 124.92 
L 358 124.92 
L 358 67.52 
L 45.13 67.52 
z
" style="fill: #ffffff"/>
   </g>
   <g id="patch_59">
    <path d="M 160.536152 124.92 
L 164.047275 124.92 
L 164.047275 124.471913 
L 160.536152 124.471913 
z
" clip-path="url(#p631239fcf4)" style="fill: #0000ff; fill-opacity: 0.35; stroke: #000000; stroke-width: 0.313102; stroke-linejoin: miter"/>
   </g>
   <g id="patch_60">
    <path d="M 164.047275 124.92 
L 167.558399 124.92 
L 167.558399 124.92 
L 164.047275 124.92 
z
" clip-path="url(#p631239fcf4)" style="fill: #0000ff; fill-opacity: 0.35; stroke: #000000; stroke-width: 0.313102; stroke-linejoin: miter"/>
   </g>
   <g id="patch_61">
    <path d="M 167.558399 124.92 
L 171.069522 124.92 
L 171.069522 124.92 
L 167.558399 124.92 
z
" clip-path="url(#p631239fcf4)" style="fill: #0000ff; fill-opacity: 0.35; stroke: #000000; stroke-width: 0.313102; stroke-linejoin: miter"/>
   </g>
   <g id="patch_62">
    <path d="M 171.069522 124.92 
L 174.580645 124.92 
L 174.580645 124.471913 
L 171.069522 124.471913 
z
" clip-path="url(#p631239fcf4)" style="fill: #0000ff; fill-opacity: 0.35; stroke: #000000; stroke-width: 0.313102; stroke-linejoin: miter"/>
   </g>
   <g id="patch_63">
    <path d="M 174.580645 124.92 
L 178.091768 124.92 
L 178.091768 124.471913 
L 174.580645 124.471913 
z
" clip-path="url(#p631239fcf4)" style="fill: #0000ff; fill-opacity: 0.35; stroke: #000000; stroke-width: 0.313102; stroke-linejoin: miter"/>
   </g>
   <g id="patch_64">
    <path d="M 178.091768 124.92 
L 181.602891 124.92 
L 181.602891 124.023825 
L 178.091768 124.023825 
z
" clip-path="url(#p631239fcf4)" style="fill: #0000ff; fill-opacity: 0.35; stroke: #000000; stroke-width: 0.313102; stroke-linejoin: miter"/>
   </g>
   <g id="patch_65">
    <path d="M 181.602891 124.92 
L 185.114014 124.92 
L 185.114014 123.575738 
L 181.602891 123.575738 
z
" clip-path="url(#p631239fcf4)" style="fill: #0000ff; fill-opacity: 0.35; stroke: #000000; stroke-width: 0.313102; stroke-linejoin: miter"/>
   </g>
   <g id="patch_66">
    <path d="M 185.114014 124.92 
L 188.625137 124.92 
L 188.625137 124.023825 
L 185.114014 124.023825 
z
" clip-path="url(#p631239fcf4)" style="fill: #0000ff; fill-opacity: 0.35; stroke: #000000; stroke-width: 0.313102; stroke-linejoin: miter"/>
   </g>
   <g id="patch_67">
    <path d="M 188.625137 124.92 
L 192.13626 124.92 
L 192.13626 124.471913 
L 188.625137 124.471913 
z
" clip-path="url(#p631239fcf4)" style="fill: #0000ff; fill-opacity: 0.35; stroke: #000000; stroke-width: 0.313102; stroke-linejoin: miter"/>
   </g>
   <g id="patch_68">
    <path d="M 192.13626 124.92 
L 195.647383 124.92 
L 195.647383 122.231475 
L 192.13626 122.231475 
z
" clip-path="url(#p631239fcf4)" style="fill: #0000ff; fill-opacity: 0.35; stroke: #000000; stroke-width: 0.313102; stroke-linejoin: miter"/>
   </g>
   <g id="patch_69">
    <path d="M 195.647383 124.92 
L 199.158506 124.92 
L 199.158506 120.887213 
L 195.647383 120.887213 
z
" clip-path="url(#p631239fcf4)" style="fill: #0000ff; fill-opacity: 0.35; stroke: #000000; stroke-width: 0.313102; stroke-linejoin: miter"/>
   </g>
   <g id="patch_70">
    <path d="M 199.158506 124.92 
L 202.669629 124.92 
L 202.669629 119.542951 
L 199.158506 119.542951 
z
" clip-path="url(#p631239fcf4)" style="fill: #0000ff; fill-opacity: 0.35; stroke: #000000; stroke-width: 0.313102; stroke-linejoin: miter"/>
   </g>
   <g id="patch_71">
    <path d="M 202.669629 124.92 
L 206.180752 124.92 
L 206.180752 119.542951 
L 202.669629 119.542951 
z
" clip-path="url(#p631239fcf4)" style="fill: #0000ff; fill-opacity: 0.35; stroke: #000000; stroke-width: 0.313102; stroke-linejoin: miter"/>
   </g>
   <g id="patch_72">
    <path d="M 206.180752 124.92 
L 209.691875 124.92 
L 209.691875 118.198689 
L 206.180752 118.198689 
z
" clip-path="url(#p631239fcf4)" style="fill: #0000ff; fill-opacity: 0.35; stroke: #000000; stroke-width: 0.313102; stroke-linejoin: miter"/>
   </g>
   <g id="patch_73">
    <path d="M 209.691875 124.92 
L 213.202998 124.92 
L 213.202998 115.062077 
L 209.691875 115.062077 
z
" clip-path="url(#p631239fcf4)" style="fill: #0000ff; fill-opacity: 0.35; stroke: #000000; stroke-width: 0.313102; stroke-linejoin: miter"/>
   </g>
   <g id="patch_74">
    <path d="M 213.202998 124.92 
L 216.714121 124.92 
L 216.714121 109.23694 
L 213.202998 109.23694 
z
" clip-path="url(#p631239fcf4)" style="fill: #0000ff; fill-opacity: 0.35; stroke: #000000; stroke-width: 0.313102; stroke-linejoin: miter"/>
   </g>
   <g id="patch_75">
    <path d="M 216.714121 124.92 
L 220.225244 124.92 
L 220.225244 110.133115 
L 216.714121 110.133115 
z
" clip-path="url(#p631239fcf4)" style="fill: #0000ff; fill-opacity: 0.35; stroke: #000000; stroke-width: 0.313102; stroke-linejoin: miter"/>
   </g>
   <g id="patch_76">
    <path d="M 220.225244 124.92 
L 223.736367 124.92 
L 223.736367 102.515628 
L 220.225244 102.515628 
z
" clip-path="url(#p631239fcf4)" style="fill: #0000ff; fill-opacity: 0.35; stroke: #000000; stroke-width: 0.313102; stroke-linejoin: miter"/>
   </g>
   <g id="patch_77">
    <path d="M 223.736367 124.92 
L 227.24749 124.92 
L 227.24749 102.963716 
L 223.736367 102.963716 
z
" clip-path="url(#p631239fcf4)" style="fill: #0000ff; fill-opacity: 0.35; stroke: #000000; stroke-width: 0.313102; stroke-linejoin: miter"/>
   </g>
   <g id="patch_78">
    <path d="M 227.24749 124.92 
L 230.758613 124.92 
L 230.758613 100.275191 
L 227.24749 100.275191 
z
" clip-path="url(#p631239fcf4)" style="fill: #0000ff; fill-opacity: 0.35; stroke: #000000; stroke-width: 0.313102; stroke-linejoin: miter"/>
   </g>
   <g id="patch_79">
    <path d="M 230.758613 124.92 
L 234.269736 124.92 
L 234.269736 86.832568 
L 230.758613 86.832568 
z
" clip-path="url(#p631239fcf4)" style="fill: #0000ff; fill-opacity: 0.35; stroke: #000000; stroke-width: 0.313102; stroke-linejoin: miter"/>
   </g>
   <g id="patch_80">
    <path d="M 234.269736 124.92 
L 237.780859 124.92 
L 237.780859 95.794317 
L 234.269736 95.794317 
z
" clip-path="url(#p631239fcf4)" style="fill: #0000ff; fill-opacity: 0.35; stroke: #000000; stroke-width: 0.313102; stroke-linejoin: miter"/>
   </g>
   <g id="patch_81">
    <path d="M 237.780859 124.92 
L 241.291983 124.92 
L 241.291983 87.728743 
L 237.780859 87.728743 
z
" clip-path="url(#p631239fcf4)" style="fill: #0000ff; fill-opacity: 0.35; stroke: #000000; stroke-width: 0.313102; stroke-linejoin: miter"/>
   </g>
   <g id="patch_82">
    <path d="M 241.291983 124.92 
L 244.803106 124.92 
L 244.803106 78.766995 
L 241.291983 78.766995 
z
" clip-path="url(#p631239fcf4)" style="fill: #0000ff; fill-opacity: 0.35; stroke: #000000; stroke-width: 0.313102; stroke-linejoin: miter"/>
   </g>
   <g id="patch_83">
    <path d="M 244.803106 124.92 
L 248.314229 124.92 
L 248.314229 77.87082 
L 244.803106 77.87082 
z
" clip-path="url(#p631239fcf4)" style="fill: #0000ff; fill-opacity: 0.35; stroke: #000000; stroke-width: 0.313102; stroke-linejoin: miter"/>
   </g>
   <g id="patch_84">
    <path d="M 248.314229 124.92 
L 251.825352 124.92 
L 251.825352 74.734208 
L 248.314229 74.734208 
z
" clip-path="url(#p631239fcf4)" style="fill: #0000ff; fill-opacity: 0.35; stroke: #000000; stroke-width: 0.313102; stroke-linejoin: miter"/>
   </g>
   <g id="patch_85">
    <path d="M 251.825352 124.92 
L 255.336475 124.92 
L 255.336475 75.630383 
L 251.825352 75.630383 
z
" clip-path="url(#p631239fcf4)" style="fill: #0000ff; fill-opacity: 0.35; stroke: #000000; stroke-width: 0.313102; stroke-linejoin: miter"/>
   </g>
   <g id="patch_86">
    <path d="M 255.336475 124.92 
L 258.847598 124.92 
L 258.847598 70.253333 
L 255.336475 70.253333 
z
" clip-path="url(#p631239fcf4)" style="fill: #0000ff; fill-opacity: 0.35; stroke: #000000; stroke-width: 0.313102; stroke-linejoin: miter"/>
   </g>
   <g id="patch_87">
    <path d="M 258.847598 124.92 
L 262.358721 124.92 
L 262.358721 75.182295 
L 258.847598 75.182295 
z
" clip-path="url(#p631239fcf4)" style="fill: #0000ff; fill-opacity: 0.35; stroke: #000000; stroke-width: 0.313102; stroke-linejoin: miter"/>
   </g>
   <g id="patch_88">
    <path d="M 262.358721 124.92 
L 265.869844 124.92 
L 265.869844 81.455519 
L 262.358721 81.455519 
z
" clip-path="url(#p631239fcf4)" style="fill: #0000ff; fill-opacity: 0.35; stroke: #000000; stroke-width: 0.313102; stroke-linejoin: miter"/>
   </g>
   <g id="patch_89">
    <path d="M 265.869844 124.92 
L 269.380967 124.92 
L 269.380967 80.111257 
L 265.869844 80.111257 
z
" clip-path="url(#p631239fcf4)" style="fill: #0000ff; fill-opacity: 0.35; stroke: #000000; stroke-width: 0.313102; stroke-linejoin: miter"/>
   </g>
   <g id="patch_90">
    <path d="M 269.380967 124.92 
L 272.89209 124.92 
L 272.89209 81.455519 
L 269.380967 81.455519 
z
" clip-path="url(#p631239fcf4)" style="fill: #0000ff; fill-opacity: 0.35; stroke: #000000; stroke-width: 0.313102; stroke-linejoin: miter"/>
   </g>
   <g id="patch_91">
    <path d="M 272.89209 124.92 
L 276.403213 124.92 
L 276.403213 86.832568 
L 272.89209 86.832568 
z
" clip-path="url(#p631239fcf4)" style="fill: #0000ff; fill-opacity: 0.35; stroke: #000000; stroke-width: 0.313102; stroke-linejoin: miter"/>
   </g>
   <g id="patch_92">
    <path d="M 276.403213 124.92 
L 279.914336 124.92 
L 279.914336 85.488306 
L 276.403213 85.488306 
z
" clip-path="url(#p631239fcf4)" style="fill: #0000ff; fill-opacity: 0.35; stroke: #000000; stroke-width: 0.313102; stroke-linejoin: miter"/>
   </g>
   <g id="patch_93">
    <path d="M 279.914336 124.92 
L 283.425459 124.92 
L 283.425459 95.34623 
L 279.914336 95.34623 
z
" clip-path="url(#p631239fcf4)" style="fill: #0000ff; fill-opacity: 0.35; stroke: #000000; stroke-width: 0.313102; stroke-linejoin: miter"/>
   </g>
   <g id="patch_94">
    <path d="M 283.425459 124.92 
L 286.936582 124.92 
L 286.936582 106.548415 
L 283.425459 106.548415 
z
" clip-path="url(#p631239fcf4)" style="fill: #0000ff; fill-opacity: 0.35; stroke: #000000; stroke-width: 0.313102; stroke-linejoin: miter"/>
   </g>
   <g id="patch_95">
    <path d="M 286.936582 124.92 
L 290.447705 124.92 
L 290.447705 106.100328 
L 286.936582 106.100328 
z
" clip-path="url(#p631239fcf4)" style="fill: #0000ff; fill-opacity: 0.35; stroke: #000000; stroke-width: 0.313102; stroke-linejoin: miter"/>
   </g>
   <g id="patch_96">
    <path d="M 290.447705 124.92 
L 293.958828 124.92 
L 293.958828 107.892678 
L 290.447705 107.892678 
z
" clip-path="url(#p631239fcf4)" style="fill: #0000ff; fill-opacity: 0.35; stroke: #000000; stroke-width: 0.313102; stroke-linejoin: miter"/>
   </g>
   <g id="patch_97">
    <path d="M 293.958828 124.92 
L 297.469951 124.92 
L 297.469951 107.892678 
L 293.958828 107.892678 
z
" clip-path="url(#p631239fcf4)" style="fill: #0000ff; fill-opacity: 0.35; stroke: #000000; stroke-width: 0.313102; stroke-linejoin: miter"/>
   </g>
   <g id="patch_98">
    <path d="M 297.469951 124.92 
L 300.981074 124.92 
L 300.981074 108.788852 
L 297.469951 108.788852 
z
" clip-path="url(#p631239fcf4)" style="fill: #0000ff; fill-opacity: 0.35; stroke: #000000; stroke-width: 0.313102; stroke-linejoin: miter"/>
   </g>
   <g id="patch_99">
    <path d="M 300.981074 124.92 
L 304.492197 124.92 
L 304.492197 116.406339 
L 300.981074 116.406339 
z
" clip-path="url(#p631239fcf4)" style="fill: #0000ff; fill-opacity: 0.35; stroke: #000000; stroke-width: 0.313102; stroke-linejoin: miter"/>
   </g>
   <g id="patch_100">
    <path d="M 304.492197 124.92 
L 308.00332 124.92 
L 308.00332 118.198689 
L 304.492197 118.198689 
z
" clip-path="url(#p631239fcf4)" style="fill: #0000ff; fill-opacity: 0.35; stroke: #000000; stroke-width: 0.313102; stroke-linejoin: miter"/>
   </g>
   <g id="patch_101">
    <path d="M 308.00332 124.92 
L 311.514443 124.92 
L 311.514443 121.783388 
L 308.00332 121.783388 
z
" clip-path="url(#p631239fcf4)" style="fill: #0000ff; fill-opacity: 0.35; stroke: #000000; stroke-width: 0.313102; stroke-linejoin: miter"/>
   </g>
   <g id="patch_102">
    <path d="M 311.514443 124.92 
L 315.025566 124.92 
L 315.025566 120.887213 
L 311.514443 120.887213 
z
" clip-path="url(#p631239fcf4)" style="fill: #0000ff; fill-opacity: 0.35; stroke: #000000; stroke-width: 0.313102; stroke-linejoin: miter"/>
   </g>
   <g id="patch_103">
    <path d="M 315.025566 124.92 
L 318.53669 124.92 
L 318.53669 122.679563 
L 315.025566 122.679563 
z
" clip-path="url(#p631239fcf4)" style="fill: #0000ff; fill-opacity: 0.35; stroke: #000000; stroke-width: 0.313102; stroke-linejoin: miter"/>
   </g>
   <g id="patch_104">
    <path d="M 318.53669 124.92 
L 322.047813 124.92 
L 322.047813 122.231475 
L 318.53669 122.231475 
z
" clip-path="url(#p631239fcf4)" style="fill: #0000ff; fill-opacity: 0.35; stroke: #000000; stroke-width: 0.313102; stroke-linejoin: miter"/>
   </g>
   <g id="patch_105">
    <path d="M 322.047813 124.92 
L 325.558936 124.92 
L 325.558936 124.471913 
L 322.047813 124.471913 
z
" clip-path="url(#p631239fcf4)" style="fill: #0000ff; fill-opacity: 0.35; stroke: #000000; stroke-width: 0.313102; stroke-linejoin: miter"/>
   </g>
   <g id="patch_106">
    <path d="M 325.558936 124.92 
L 329.070059 124.92 
L 329.070059 124.023825 
L 325.558936 124.023825 
z
" clip-path="url(#p631239fcf4)" style="fill: #0000ff; fill-opacity: 0.35; stroke: #000000; stroke-width: 0.313102; stroke-linejoin: miter"/>
   </g>
   <g id="patch_107">
    <path d="M 329.070059 124.92 
L 332.581182 124.92 
L 332.581182 124.471913 
L 329.070059 124.471913 
z
" clip-path="url(#p631239fcf4)" style="fill: #0000ff; fill-opacity: 0.35; stroke: #000000; stroke-width: 0.313102; stroke-linejoin: miter"/>
   </g>
   <g id="patch_108">
    <path d="M 332.581182 124.92 
L 336.092305 124.92 
L 336.092305 124.023825 
L 332.581182 124.023825 
z
" clip-path="url(#p631239fcf4)" style="fill: #0000ff; fill-opacity: 0.35; stroke: #000000; stroke-width: 0.313102; stroke-linejoin: miter"/>
   </g>
   <g id="patch_109">
    <path d="M 160.536152 124.92 
L 164.047275 124.92 
L 164.047275 124.471913 
L 160.536152 124.471913 
L 160.536152 124.92 
z
" clip-path="url(#p631239fcf4)" style="fill: none; opacity: 0"/>
   </g>
   <g id="patch_110">
    <path d="M 164.047275 124.92 
L 167.558399 124.92 
L 167.558399 124.92 
L 164.047275 124.92 
L 164.047275 124.92 
z
" clip-path="url(#p631239fcf4)" style="fill: none; opacity: 0"/>
   </g>
   <g id="patch_111">
    <path d="M 167.558399 124.92 
L 171.069522 124.92 
L 171.069522 124.92 
L 167.558399 124.92 
L 167.558399 124.92 
z
" clip-path="url(#p631239fcf4)" style="fill: none; opacity: 0"/>
   </g>
   <g id="patch_112">
    <path d="M 171.069522 124.92 
L 174.580645 124.92 
L 174.580645 124.471913 
L 171.069522 124.471913 
L 171.069522 124.92 
z
" clip-path="url(#p631239fcf4)" style="fill: none; opacity: 0"/>
   </g>
   <g id="patch_113">
    <path d="M 174.580645 124.92 
L 178.091768 124.92 
L 178.091768 124.471913 
L 174.580645 124.471913 
L 174.580645 124.92 
z
" clip-path="url(#p631239fcf4)" style="fill: none; opacity: 0"/>
   </g>
   <g id="patch_114">
    <path d="M 178.091768 124.92 
L 181.602891 124.92 
L 181.602891 124.023825 
L 178.091768 124.023825 
L 178.091768 124.92 
z
" clip-path="url(#p631239fcf4)" style="fill: none; opacity: 0"/>
   </g>
   <g id="patch_115">
    <path d="M 181.602891 124.92 
L 185.114014 124.92 
L 185.114014 123.575738 
L 181.602891 123.575738 
L 181.602891 124.92 
z
" clip-path="url(#p631239fcf4)" style="fill: none; opacity: 0"/>
   </g>
   <g id="patch_116">
    <path d="M 185.114014 124.92 
L 188.625137 124.92 
L 188.625137 124.023825 
L 185.114014 124.023825 
L 185.114014 124.92 
z
" clip-path="url(#p631239fcf4)" style="fill: none; opacity: 0"/>
   </g>
   <g id="patch_117">
    <path d="M 188.625137 124.92 
L 192.13626 124.92 
L 192.13626 124.471913 
L 188.625137 124.471913 
L 188.625137 124.92 
z
" clip-path="url(#p631239fcf4)" style="fill: none; opacity: 0"/>
   </g>
   <g id="patch_118">
    <path d="M 192.13626 124.92 
L 195.647383 124.92 
L 195.647383 122.231475 
L 192.13626 122.231475 
L 192.13626 124.92 
z
" clip-path="url(#p631239fcf4)" style="fill: none; opacity: 0"/>
   </g>
   <g id="patch_119">
    <path d="M 195.647383 124.92 
L 199.158506 124.92 
L 199.158506 120.887213 
L 195.647383 120.887213 
L 195.647383 124.92 
z
" clip-path="url(#p631239fcf4)" style="fill: none; opacity: 0"/>
   </g>
   <g id="patch_120">
    <path d="M 199.158506 124.92 
L 202.669629 124.92 
L 202.669629 119.542951 
L 199.158506 119.542951 
L 199.158506 124.92 
z
" clip-path="url(#p631239fcf4)" style="fill: none; opacity: 0"/>
   </g>
   <g id="patch_121">
    <path d="M 202.669629 124.92 
L 206.180752 124.92 
L 206.180752 119.542951 
L 202.669629 119.542951 
L 202.669629 124.92 
z
" clip-path="url(#p631239fcf4)" style="fill: none; opacity: 0"/>
   </g>
   <g id="patch_122">
    <path d="M 206.180752 124.92 
L 209.691875 124.92 
L 209.691875 118.198689 
L 206.180752 118.198689 
L 206.180752 124.92 
z
" clip-path="url(#p631239fcf4)" style="fill: none; opacity: 0"/>
   </g>
   <g id="patch_123">
    <path d="M 209.691875 124.92 
L 213.202998 124.92 
L 213.202998 115.062077 
L 209.691875 115.062077 
L 209.691875 124.92 
z
" clip-path="url(#p631239fcf4)" style="fill: none; opacity: 0"/>
   </g>
   <g id="patch_124">
    <path d="M 213.202998 124.92 
L 216.714121 124.92 
L 216.714121 109.23694 
L 213.202998 109.23694 
L 213.202998 124.92 
z
" clip-path="url(#p631239fcf4)" style="fill: none; opacity: 0"/>
   </g>
   <g id="patch_125">
    <path d="M 216.714121 124.92 
L 220.225244 124.92 
L 220.225244 110.133115 
L 216.714121 110.133115 
L 216.714121 124.92 
z
" clip-path="url(#p631239fcf4)" style="fill: none; opacity: 0"/>
   </g>
   <g id="patch_126">
    <path d="M 220.225244 124.92 
L 223.736367 124.92 
L 223.736367 102.515628 
L 220.225244 102.515628 
L 220.225244 124.92 
z
" clip-path="url(#p631239fcf4)" style="fill: none; opacity: 0"/>
   </g>
   <g id="patch_127">
    <path d="M 223.736367 124.92 
L 227.24749 124.92 
L 227.24749 102.963716 
L 223.736367 102.963716 
L 223.736367 124.92 
z
" clip-path="url(#p631239fcf4)" style="fill: none; opacity: 0"/>
   </g>
   <g id="patch_128">
    <path d="M 227.24749 124.92 
L 230.758613 124.92 
L 230.758613 100.275191 
L 227.24749 100.275191 
L 227.24749 124.92 
z
" clip-path="url(#p631239fcf4)" style="fill: none; opacity: 0"/>
   </g>
   <g id="patch_129">
    <path d="M 230.758613 124.92 
L 234.269736 124.92 
L 234.269736 86.832568 
L 230.758613 86.832568 
L 230.758613 124.92 
z
" clip-path="url(#p631239fcf4)" style="fill: none; opacity: 0"/>
   </g>
   <g id="patch_130">
    <path d="M 234.269736 124.92 
L 237.780859 124.92 
L 237.780859 95.794317 
L 234.269736 95.794317 
L 234.269736 124.92 
z
" clip-path="url(#p631239fcf4)" style="fill: none; opacity: 0"/>
   </g>
   <g id="patch_131">
    <path d="M 237.780859 124.92 
L 241.291983 124.92 
L 241.291983 87.728743 
L 237.780859 87.728743 
L 237.780859 124.92 
z
" clip-path="url(#p631239fcf4)" style="fill: none; opacity: 0"/>
   </g>
   <g id="patch_132">
    <path d="M 241.291983 124.92 
L 244.803106 124.92 
L 244.803106 78.766995 
L 241.291983 78.766995 
L 241.291983 124.92 
z
" clip-path="url(#p631239fcf4)" style="fill: none; opacity: 0"/>
   </g>
   <g id="patch_133">
    <path d="M 244.803106 124.92 
L 248.314229 124.92 
L 248.314229 77.87082 
L 244.803106 77.87082 
L 244.803106 124.92 
z
" clip-path="url(#p631239fcf4)" style="fill: none; opacity: 0"/>
   </g>
   <g id="patch_134">
    <path d="M 248.314229 124.92 
L 251.825352 124.92 
L 251.825352 74.734208 
L 248.314229 74.734208 
L 248.314229 124.92 
z
" clip-path="url(#p631239fcf4)" style="fill: none; opacity: 0"/>
   </g>
   <g id="patch_135">
    <path d="M 251.825352 124.92 
L 255.336475 124.92 
L 255.336475 75.630383 
L 251.825352 75.630383 
L 251.825352 124.92 
z
" clip-path="url(#p631239fcf4)" style="fill: none; opacity: 0"/>
   </g>
   <g id="patch_136">
    <path d="M 255.336475 124.92 
L 258.847598 124.92 
L 258.847598 70.253333 
L 255.336475 70.253333 
L 255.336475 124.92 
z
" clip-path="url(#p631239fcf4)" style="fill: none; opacity: 0"/>
   </g>
   <g id="patch_137">
    <path d="M 258.847598 124.92 
L 262.358721 124.92 
L 262.358721 75.182295 
L 258.847598 75.182295 
L 258.847598 124.92 
z
" clip-path="url(#p631239fcf4)" style="fill: none; opacity: 0"/>
   </g>
   <g id="patch_138">
    <path d="M 262.358721 124.92 
L 265.869844 124.92 
L 265.869844 81.455519 
L 262.358721 81.455519 
L 262.358721 124.92 
z
" clip-path="url(#p631239fcf4)" style="fill: none; opacity: 0"/>
   </g>
   <g id="patch_139">
    <path d="M 265.869844 124.92 
L 269.380967 124.92 
L 269.380967 80.111257 
L 265.869844 80.111257 
L 265.869844 124.92 
z
" clip-path="url(#p631239fcf4)" style="fill: none; opacity: 0"/>
   </g>
   <g id="patch_140">
    <path d="M 269.380967 124.92 
L 272.89209 124.92 
L 272.89209 81.455519 
L 269.380967 81.455519 
L 269.380967 124.92 
z
" clip-path="url(#p631239fcf4)" style="fill: none; opacity: 0"/>
   </g>
   <g id="patch_141">
    <path d="M 272.89209 124.92 
L 276.403213 124.92 
L 276.403213 86.832568 
L 272.89209 86.832568 
L 272.89209 124.92 
z
" clip-path="url(#p631239fcf4)" style="fill: none; opacity: 0"/>
   </g>
   <g id="patch_142">
    <path d="M 276.403213 124.92 
L 279.914336 124.92 
L 279.914336 85.488306 
L 276.403213 85.488306 
L 276.403213 124.92 
z
" clip-path="url(#p631239fcf4)" style="fill: none; opacity: 0"/>
   </g>
   <g id="patch_143">
    <path d="M 279.914336 124.92 
L 283.425459 124.92 
L 283.425459 95.34623 
L 279.914336 95.34623 
L 279.914336 124.92 
z
" clip-path="url(#p631239fcf4)" style="fill: none; opacity: 0"/>
   </g>
   <g id="patch_144">
    <path d="M 283.425459 124.92 
L 286.936582 124.92 
L 286.936582 106.548415 
L 283.425459 106.548415 
L 283.425459 124.92 
z
" clip-path="url(#p631239fcf4)" style="fill: none; opacity: 0"/>
   </g>
   <g id="patch_145">
    <path d="M 286.936582 124.92 
L 290.447705 124.92 
L 290.447705 106.100328 
L 286.936582 106.100328 
L 286.936582 124.92 
z
" clip-path="url(#p631239fcf4)" style="fill: none; opacity: 0"/>
   </g>
   <g id="patch_146">
    <path d="M 290.447705 124.92 
L 293.958828 124.92 
L 293.958828 107.892678 
L 290.447705 107.892678 
L 290.447705 124.92 
z
" clip-path="url(#p631239fcf4)" style="fill: none; opacity: 0"/>
   </g>
   <g id="patch_147">
    <path d="M 293.958828 124.92 
L 297.469951 124.92 
L 297.469951 107.892678 
L 293.958828 107.892678 
L 293.958828 124.92 
z
" clip-path="url(#p631239fcf4)" style="fill: none; opacity: 0"/>
   </g>
   <g id="patch_148">
    <path d="M 297.469951 124.92 
L 300.981074 124.92 
L 300.981074 108.788852 
L 297.469951 108.788852 
L 297.469951 124.92 
z
" clip-path="url(#p631239fcf4)" style="fill: none; opacity: 0"/>
   </g>
   <g id="patch_149">
    <path d="M 300.981074 124.92 
L 304.492197 124.92 
L 304.492197 116.406339 
L 300.981074 116.406339 
L 300.981074 124.92 
z
" clip-path="url(#p631239fcf4)" style="fill: none; opacity: 0"/>
   </g>
   <g id="patch_150">
    <path d="M 304.492197 124.92 
L 308.00332 124.92 
L 308.00332 118.198689 
L 304.492197 118.198689 
L 304.492197 124.92 
z
" clip-path="url(#p631239fcf4)" style="fill: none; opacity: 0"/>
   </g>
   <g id="patch_151">
    <path d="M 308.00332 124.92 
L 311.514443 124.92 
L 311.514443 121.783388 
L 308.00332 121.783388 
L 308.00332 124.92 
z
" clip-path="url(#p631239fcf4)" style="fill: none; opacity: 0"/>
   </g>
   <g id="patch_152">
    <path d="M 311.514443 124.92 
L 315.025566 124.92 
L 315.025566 120.887213 
L 311.514443 120.887213 
L 311.514443 124.92 
z
" clip-path="url(#p631239fcf4)" style="fill: none; opacity: 0"/>
   </g>
   <g id="patch_153">
    <path d="M 315.025566 124.92 
L 318.53669 124.92 
L 318.53669 122.679563 
L 315.025566 122.679563 
L 315.025566 124.92 
z
" clip-path="url(#p631239fcf4)" style="fill: none; opacity: 0"/>
   </g>
   <g id="patch_154">
    <path d="M 318.53669 124.92 
L 322.047813 124.92 
L 322.047813 122.231475 
L 318.53669 122.231475 
L 318.53669 124.92 
z
" clip-path="url(#p631239fcf4)" style="fill: none; opacity: 0"/>
   </g>
   <g id="patch_155">
    <path d="M 322.047813 124.92 
L 325.558936 124.92 
L 325.558936 124.471913 
L 322.047813 124.471913 
L 322.047813 124.92 
z
" clip-path="url(#p631239fcf4)" style="fill: none; opacity: 0"/>
   </g>
   <g id="patch_156">
    <path d="M 325.558936 124.92 
L 329.070059 124.92 
L 329.070059 124.023825 
L 325.558936 124.023825 
L 325.558936 124.92 
z
" clip-path="url(#p631239fcf4)" style="fill: none; opacity: 0"/>
   </g>
   <g id="patch_157">
    <path d="M 329.070059 124.92 
L 332.581182 124.92 
L 332.581182 124.471913 
L 329.070059 124.471913 
L 329.070059 124.92 
z
" clip-path="url(#p631239fcf4)" style="fill: none; opacity: 0"/>
   </g>
   <g id="patch_158">
    <path d="M 332.581182 124.92 
L 336.092305 124.92 
L 336.092305 124.023825 
L 332.581182 124.023825 
L 332.581182 124.92 
z
" clip-path="url(#p631239fcf4)" style="fill: none; opacity: 0"/>
   </g>
   <g id="patch_159">
    <path d="M 160.536152 124.92 
L 164.047275 124.92 
L 164.047275 124.92 
L 160.536152 124.92 
z
" clip-path="url(#p631239fcf4)" style="fill: #ff0000; fill-opacity: 0.35; stroke: #000000; stroke-width: 0.313102; stroke-linejoin: miter"/>
   </g>
   <g id="patch_160">
    <path d="M 164.047275 124.92 
L 167.558399 124.92 
L 167.558399 124.466011 
L 164.047275 124.466011 
z
" clip-path="url(#p631239fcf4)" style="fill: #ff0000; fill-opacity: 0.35; stroke: #000000; stroke-width: 0.313102; stroke-linejoin: miter"/>
   </g>
   <g id="patch_161">
    <path d="M 167.558399 124.92 
L 171.069522 124.92 
L 171.069522 124.92 
L 167.558399 124.92 
z
" clip-path="url(#p631239fcf4)" style="fill: #ff0000; fill-opacity: 0.35; stroke: #000000; stroke-width: 0.313102; stroke-linejoin: miter"/>
   </g>
   <g id="patch_162">
    <path d="M 171.069522 124.92 
L 174.580645 124.92 
L 174.580645 124.92 
L 171.069522 124.92 
z
" clip-path="url(#p631239fcf4)" style="fill: #ff0000; fill-opacity: 0.35; stroke: #000000; stroke-width: 0.313102; stroke-linejoin: miter"/>
   </g>
   <g id="patch_163">
    <path d="M 174.580645 124.92 
L 178.091768 124.92 
L 178.091768 124.012021 
L 174.580645 124.012021 
z
" clip-path="url(#p631239fcf4)" style="fill: #ff0000; fill-opacity: 0.35; stroke: #000000; stroke-width: 0.313102; stroke-linejoin: miter"/>
   </g>
   <g id="patch_164">
    <path d="M 178.091768 124.92 
L 181.602891 124.92 
L 181.602891 124.466011 
L 178.091768 124.466011 
z
" clip-path="url(#p631239fcf4)" style="fill: #ff0000; fill-opacity: 0.35; stroke: #000000; stroke-width: 0.313102; stroke-linejoin: miter"/>
   </g>
   <g id="patch_165">
    <path d="M 181.602891 124.92 
L 185.114014 124.92 
L 185.114014 124.92 
L 181.602891 124.92 
z
" clip-path="url(#p631239fcf4)" style="fill: #ff0000; fill-opacity: 0.35; stroke: #000000; stroke-width: 0.313102; stroke-linejoin: miter"/>
   </g>
   <g id="patch_166">
    <path d="M 185.114014 124.92 
L 188.625137 124.92 
L 188.625137 124.466011 
L 185.114014 124.466011 
z
" clip-path="url(#p631239fcf4)" style="fill: #ff0000; fill-opacity: 0.35; stroke: #000000; stroke-width: 0.313102; stroke-linejoin: miter"/>
   </g>
   <g id="patch_167">
    <path d="M 188.625137 124.92 
L 192.13626 124.92 
L 192.13626 124.012021 
L 188.625137 124.012021 
z
" clip-path="url(#p631239fcf4)" style="fill: #ff0000; fill-opacity: 0.35; stroke: #000000; stroke-width: 0.313102; stroke-linejoin: miter"/>
   </g>
   <g id="patch_168">
    <path d="M 192.13626 124.92 
L 195.647383 124.92 
L 195.647383 124.92 
L 192.13626 124.92 
z
" clip-path="url(#p631239fcf4)" style="fill: #ff0000; fill-opacity: 0.35; stroke: #000000; stroke-width: 0.313102; stroke-linejoin: miter"/>
   </g>
   <g id="patch_169">
    <path d="M 195.647383 124.92 
L 199.158506 124.92 
L 199.158506 122.650054 
L 195.647383 122.650054 
z
" clip-path="url(#p631239fcf4)" style="fill: #ff0000; fill-opacity: 0.35; stroke: #000000; stroke-width: 0.313102; stroke-linejoin: miter"/>
   </g>
   <g id="patch_170">
    <path d="M 199.158506 124.92 
L 202.669629 124.92 
L 202.669629 121.742075 
L 199.158506 121.742075 
z
" clip-path="url(#p631239fcf4)" style="fill: #ff0000; fill-opacity: 0.35; stroke: #000000; stroke-width: 0.313102; stroke-linejoin: miter"/>
   </g>
   <g id="patch_171">
    <path d="M 202.669629 124.92 
L 206.180752 124.92 
L 206.180752 119.472128 
L 202.669629 119.472128 
z
" clip-path="url(#p631239fcf4)" style="fill: #ff0000; fill-opacity: 0.35; stroke: #000000; stroke-width: 0.313102; stroke-linejoin: miter"/>
   </g>
   <g id="patch_172">
    <path d="M 206.180752 124.92 
L 209.691875 124.92 
L 209.691875 119.472128 
L 206.180752 119.472128 
z
" clip-path="url(#p631239fcf4)" style="fill: #ff0000; fill-opacity: 0.35; stroke: #000000; stroke-width: 0.313102; stroke-linejoin: miter"/>
   </g>
   <g id="patch_173">
    <path d="M 209.691875 124.92 
L 213.202998 124.92 
L 213.202998 116.294203 
L 209.691875 116.294203 
z
" clip-path="url(#p631239fcf4)" style="fill: #ff0000; fill-opacity: 0.35; stroke: #000000; stroke-width: 0.313102; stroke-linejoin: miter"/>
   </g>
   <g id="patch_174">
    <path d="M 213.202998 124.92 
L 216.714121 124.92 
L 216.714121 114.478246 
L 213.202998 114.478246 
z
" clip-path="url(#p631239fcf4)" style="fill: #ff0000; fill-opacity: 0.35; stroke: #000000; stroke-width: 0.313102; stroke-linejoin: miter"/>
   </g>
   <g id="patch_175">
    <path d="M 216.714121 124.92 
L 220.225244 124.92 
L 220.225244 110.846332 
L 216.714121 110.846332 
z
" clip-path="url(#p631239fcf4)" style="fill: #ff0000; fill-opacity: 0.35; stroke: #000000; stroke-width: 0.313102; stroke-linejoin: miter"/>
   </g>
   <g id="patch_176">
    <path d="M 220.225244 124.92 
L 223.736367 124.92 
L 223.736367 108.122396 
L 220.225244 108.122396 
z
" clip-path="url(#p631239fcf4)" style="fill: #ff0000; fill-opacity: 0.35; stroke: #000000; stroke-width: 0.313102; stroke-linejoin: miter"/>
   </g>
   <g id="patch_177">
    <path d="M 223.736367 124.92 
L 227.24749 124.92 
L 227.24749 98.134632 
L 223.736367 98.134632 
z
" clip-path="url(#p631239fcf4)" style="fill: #ff0000; fill-opacity: 0.35; stroke: #000000; stroke-width: 0.313102; stroke-linejoin: miter"/>
   </g>
   <g id="patch_178">
    <path d="M 227.24749 124.92 
L 230.758613 124.92 
L 230.758613 93.594739 
L 227.24749 93.594739 
z
" clip-path="url(#p631239fcf4)" style="fill: #ff0000; fill-opacity: 0.35; stroke: #000000; stroke-width: 0.313102; stroke-linejoin: miter"/>
   </g>
   <g id="patch_179">
    <path d="M 230.758613 124.92 
L 234.269736 124.92 
L 234.269736 91.324792 
L 230.758613 91.324792 
z
" clip-path="url(#p631239fcf4)" style="fill: #ff0000; fill-opacity: 0.35; stroke: #000000; stroke-width: 0.313102; stroke-linejoin: miter"/>
   </g>
   <g id="patch_180">
    <path d="M 234.269736 124.92 
L 237.780859 124.92 
L 237.780859 89.962824 
L 234.269736 89.962824 
z
" clip-path="url(#p631239fcf4)" style="fill: #ff0000; fill-opacity: 0.35; stroke: #000000; stroke-width: 0.313102; stroke-linejoin: miter"/>
   </g>
   <g id="patch_181">
    <path d="M 237.780859 124.92 
L 241.291983 124.92 
L 241.291983 82.698996 
L 237.780859 82.698996 
z
" clip-path="url(#p631239fcf4)" style="fill: #ff0000; fill-opacity: 0.35; stroke: #000000; stroke-width: 0.313102; stroke-linejoin: miter"/>
   </g>
   <g id="patch_182">
    <path d="M 241.291983 124.92 
L 244.803106 124.92 
L 244.803106 78.613092 
L 241.291983 78.613092 
z
" clip-path="url(#p631239fcf4)" style="fill: #ff0000; fill-opacity: 0.35; stroke: #000000; stroke-width: 0.313102; stroke-linejoin: miter"/>
   </g>
   <g id="patch_183">
    <path d="M 244.803106 124.92 
L 248.314229 124.92 
L 248.314229 75.435167 
L 244.803106 75.435167 
z
" clip-path="url(#p631239fcf4)" style="fill: #ff0000; fill-opacity: 0.35; stroke: #000000; stroke-width: 0.313102; stroke-linejoin: miter"/>
   </g>
   <g id="patch_184">
    <path d="M 248.314229 124.92 
L 251.825352 124.92 
L 251.825352 75.889156 
L 248.314229 75.889156 
z
" clip-path="url(#p631239fcf4)" style="fill: #ff0000; fill-opacity: 0.35; stroke: #000000; stroke-width: 0.313102; stroke-linejoin: miter"/>
   </g>
   <g id="patch_185">
    <path d="M 251.825352 124.92 
L 255.336475 124.92 
L 255.336475 74.073199 
L 251.825352 74.073199 
z
" clip-path="url(#p631239fcf4)" style="fill: #ff0000; fill-opacity: 0.35; stroke: #000000; stroke-width: 0.313102; stroke-linejoin: miter"/>
   </g>
   <g id="patch_186">
    <path d="M 255.336475 124.92 
L 258.847598 124.92 
L 258.847598 72.711231 
L 255.336475 72.711231 
z
" clip-path="url(#p631239fcf4)" style="fill: #ff0000; fill-opacity: 0.35; stroke: #000000; stroke-width: 0.313102; stroke-linejoin: miter"/>
   </g>
   <g id="patch_187">
    <path d="M 258.847598 124.92 
L 262.358721 124.92 
L 262.358721 76.343146 
L 258.847598 76.343146 
z
" clip-path="url(#p631239fcf4)" style="fill: #ff0000; fill-opacity: 0.35; stroke: #000000; stroke-width: 0.313102; stroke-linejoin: miter"/>
   </g>
   <g id="patch_188">
    <path d="M 262.358721 124.92 
L 265.869844 124.92 
L 265.869844 77.251124 
L 262.358721 77.251124 
z
" clip-path="url(#p631239fcf4)" style="fill: #ff0000; fill-opacity: 0.35; stroke: #000000; stroke-width: 0.313102; stroke-linejoin: miter"/>
   </g>
   <g id="patch_189">
    <path d="M 265.869844 124.92 
L 269.380967 124.92 
L 269.380967 74.981178 
L 265.869844 74.981178 
z
" clip-path="url(#p631239fcf4)" style="fill: #ff0000; fill-opacity: 0.35; stroke: #000000; stroke-width: 0.313102; stroke-linejoin: miter"/>
   </g>
   <g id="patch_190">
    <path d="M 269.380967 124.92 
L 272.89209 124.92 
L 272.89209 85.876921 
L 269.380967 85.876921 
z
" clip-path="url(#p631239fcf4)" style="fill: #ff0000; fill-opacity: 0.35; stroke: #000000; stroke-width: 0.313102; stroke-linejoin: miter"/>
   </g>
   <g id="patch_191">
    <path d="M 272.89209 124.92 
L 276.403213 124.92 
L 276.403213 83.606974 
L 272.89209 83.606974 
z
" clip-path="url(#p631239fcf4)" style="fill: #ff0000; fill-opacity: 0.35; stroke: #000000; stroke-width: 0.313102; stroke-linejoin: miter"/>
   </g>
   <g id="patch_192">
    <path d="M 276.403213 124.92 
L 279.914336 124.92 
L 279.914336 94.956707 
L 276.403213 94.956707 
z
" clip-path="url(#p631239fcf4)" style="fill: #ff0000; fill-opacity: 0.35; stroke: #000000; stroke-width: 0.313102; stroke-linejoin: miter"/>
   </g>
   <g id="patch_193">
    <path d="M 279.914336 124.92 
L 283.425459 124.92 
L 283.425459 89.962824 
L 279.914336 89.962824 
z
" clip-path="url(#p631239fcf4)" style="fill: #ff0000; fill-opacity: 0.35; stroke: #000000; stroke-width: 0.313102; stroke-linejoin: miter"/>
   </g>
   <g id="patch_194">
    <path d="M 283.425459 124.92 
L 286.936582 124.92 
L 286.936582 100.858567 
L 283.425459 100.858567 
z
" clip-path="url(#p631239fcf4)" style="fill: #ff0000; fill-opacity: 0.35; stroke: #000000; stroke-width: 0.313102; stroke-linejoin: miter"/>
   </g>
   <g id="patch_195">
    <path d="M 286.936582 124.92 
L 290.447705 124.92 
L 290.447705 108.576385 
L 286.936582 108.576385 
z
" clip-path="url(#p631239fcf4)" style="fill: #ff0000; fill-opacity: 0.35; stroke: #000000; stroke-width: 0.313102; stroke-linejoin: miter"/>
   </g>
   <g id="patch_196">
    <path d="M 290.447705 124.92 
L 293.958828 124.92 
L 293.958828 109.484364 
L 290.447705 109.484364 
z
" clip-path="url(#p631239fcf4)" style="fill: #ff0000; fill-opacity: 0.35; stroke: #000000; stroke-width: 0.313102; stroke-linejoin: miter"/>
   </g>
   <g id="patch_197">
    <path d="M 293.958828 124.92 
L 297.469951 124.92 
L 297.469951 109.938353 
L 293.958828 109.938353 
z
" clip-path="url(#p631239fcf4)" style="fill: #ff0000; fill-opacity: 0.35; stroke: #000000; stroke-width: 0.313102; stroke-linejoin: miter"/>
   </g>
   <g id="patch_198">
    <path d="M 297.469951 124.92 
L 300.981074 124.92 
L 300.981074 114.024257 
L 297.469951 114.024257 
z
" clip-path="url(#p631239fcf4)" style="fill: #ff0000; fill-opacity: 0.35; stroke: #000000; stroke-width: 0.313102; stroke-linejoin: miter"/>
   </g>
   <g id="patch_199">
    <path d="M 300.981074 124.92 
L 304.492197 124.92 
L 304.492197 114.024257 
L 300.981074 114.024257 
z
" clip-path="url(#p631239fcf4)" style="fill: #ff0000; fill-opacity: 0.35; stroke: #000000; stroke-width: 0.313102; stroke-linejoin: miter"/>
   </g>
   <g id="patch_200">
    <path d="M 304.492197 124.92 
L 308.00332 124.92 
L 308.00332 114.932236 
L 304.492197 114.932236 
z
" clip-path="url(#p631239fcf4)" style="fill: #ff0000; fill-opacity: 0.35; stroke: #000000; stroke-width: 0.313102; stroke-linejoin: miter"/>
   </g>
   <g id="patch_201">
    <path d="M 308.00332 124.92 
L 311.514443 124.92 
L 311.514443 120.380107 
L 308.00332 120.380107 
z
" clip-path="url(#p631239fcf4)" style="fill: #ff0000; fill-opacity: 0.35; stroke: #000000; stroke-width: 0.313102; stroke-linejoin: miter"/>
   </g>
   <g id="patch_202">
    <path d="M 311.514443 124.92 
L 315.025566 124.92 
L 315.025566 119.926118 
L 311.514443 119.926118 
z
" clip-path="url(#p631239fcf4)" style="fill: #ff0000; fill-opacity: 0.35; stroke: #000000; stroke-width: 0.313102; stroke-linejoin: miter"/>
   </g>
   <g id="patch_203">
    <path d="M 315.025566 124.92 
L 318.53669 124.92 
L 318.53669 122.196064 
L 315.025566 122.196064 
z
" clip-path="url(#p631239fcf4)" style="fill: #ff0000; fill-opacity: 0.35; stroke: #000000; stroke-width: 0.313102; stroke-linejoin: miter"/>
   </g>
   <g id="patch_204">
    <path d="M 318.53669 124.92 
L 322.047813 124.92 
L 322.047813 122.650054 
L 318.53669 122.650054 
z
" clip-path="url(#p631239fcf4)" style="fill: #ff0000; fill-opacity: 0.35; stroke: #000000; stroke-width: 0.313102; stroke-linejoin: miter"/>
   </g>
   <g id="patch_205">
    <path d="M 322.047813 124.92 
L 325.558936 124.92 
L 325.558936 123.558032 
L 322.047813 123.558032 
z
" clip-path="url(#p631239fcf4)" style="fill: #ff0000; fill-opacity: 0.35; stroke: #000000; stroke-width: 0.313102; stroke-linejoin: miter"/>
   </g>
   <g id="patch_206">
    <path d="M 325.558936 124.92 
L 329.070059 124.92 
L 329.070059 124.92 
L 325.558936 124.92 
z
" clip-path="url(#p631239fcf4)" style="fill: #ff0000; fill-opacity: 0.35; stroke: #000000; stroke-width: 0.313102; stroke-linejoin: miter"/>
   </g>
   <g id="patch_207">
    <path d="M 329.070059 124.92 
L 332.581182 124.92 
L 332.581182 124.92 
L 329.070059 124.92 
z
" clip-path="url(#p631239fcf4)" style="fill: #ff0000; fill-opacity: 0.35; stroke: #000000; stroke-width: 0.313102; stroke-linejoin: miter"/>
   </g>
   <g id="patch_208">
    <path d="M 332.581182 124.92 
L 336.092305 124.92 
L 336.092305 124.92 
L 332.581182 124.92 
z
" clip-path="url(#p631239fcf4)" style="fill: #ff0000; fill-opacity: 0.35; stroke: #000000; stroke-width: 0.313102; stroke-linejoin: miter"/>
   </g>
   <g id="matplotlib.axis_3">
    <g id="xtick_8">
     <g id="line2d_12">
      <g>
       <use xlink:href="#mcf9ce05d31" x="75.465639" y="124.92" style="stroke: #000000; stroke-width: 0.8"/>
      </g>
     </g>
     <g id="text_5">
      <!-- −4 -->
      <g transform="translate(68.094545 139.518438) scale(0.1 -0.1)">
       <defs>
        <path id="DejaVuSans-2212" d="M 678 2272 
L 4684 2272 
L 4684 1741 
L 678 1741 
L 678 2272 
z
" transform="scale(0.015625)"/>
        <path id="DejaVuSans-34" d="M 2419 4116 
L 825 1625 
L 2419 1625 
L 2419 4116 
z
M 2253 4666 
L 3047 4666 
L 3047 1625 
L 3713 1625 
L 3713 1100 
L 3047 1100 
L 3047 0 
L 2419 0 
L 2419 1100 
L 313 1100 
L 313 1709 
L 2253 4666 
z
" transform="scale(0.015625)"/>
       </defs>
       <use xlink:href="#DejaVuSans-2212"/>
       <use xlink:href="#DejaVuSans-34" x="83.789062"/>
      </g>
     </g>
    </g>
    <g id="xtick_9">
     <g id="line2d_13">
      <g>
       <use xlink:href="#mcf9ce05d31" x="121.311255" y="124.92" style="stroke: #000000; stroke-width: 0.8"/>
      </g>
     </g>
     <g id="text_6">
      <!-- −2 -->
      <g transform="translate(113.940162 139.518438) scale(0.1 -0.1)">
       <use xlink:href="#DejaVuSans-2212"/>
       <use xlink:href="#DejaVuSans-32" x="83.789062"/>
      </g>
     </g>
    </g>
    <g id="xtick_10">
     <g id="line2d_14">
      <g>
       <use xlink:href="#mcf9ce05d31" x="167.156871" y="124.92" style="stroke: #000000; stroke-width: 0.8"/>
      </g>
     </g>
     <g id="text_7">
      <!-- 0 -->
      <g transform="translate(163.975621 139.518438) scale(0.1 -0.1)">
       <use xlink:href="#DejaVuSans-30"/>
      </g>
     </g>
    </g>
    <g id="xtick_11">
     <g id="line2d_15">
      <g>
       <use xlink:href="#mcf9ce05d31" x="213.002488" y="124.92" style="stroke: #000000; stroke-width: 0.8"/>
      </g>
     </g>
     <g id="text_8">
      <!-- 2 -->
      <g transform="translate(209.821238 139.518438) scale(0.1 -0.1)">
       <use xlink:href="#DejaVuSans-32"/>
      </g>
     </g>
    </g>
    <g id="xtick_12">
     <g id="line2d_16">
      <g>
       <use xlink:href="#mcf9ce05d31" x="258.848104" y="124.92" style="stroke: #000000; stroke-width: 0.8"/>
      </g>
     </g>
     <g id="text_9">
      <!-- 4 -->
      <g transform="translate(255.666854 139.518438) scale(0.1 -0.1)">
       <use xlink:href="#DejaVuSans-34"/>
      </g>
     </g>
    </g>
    <g id="xtick_13">
     <g id="line2d_17">
      <g>
       <use xlink:href="#mcf9ce05d31" x="304.69372" y="124.92" style="stroke: #000000; stroke-width: 0.8"/>
      </g>
     </g>
     <g id="text_10">
      <!-- 6 -->
      <g transform="translate(301.51247 139.518438) scale(0.1 -0.1)">
       <defs>
        <path id="DejaVuSans-36" d="M 2113 2584 
Q 1688 2584 1439 2293 
Q 1191 2003 1191 1497 
Q 1191 994 1439 701 
Q 1688 409 2113 409 
Q 2538 409 2786 701 
Q 3034 994 3034 1497 
Q 3034 2003 2786 2293 
Q 2538 2584 2113 2584 
z
M 3366 4563 
L 3366 3988 
Q 3128 4100 2886 4159 
Q 2644 4219 2406 4219 
Q 1781 4219 1451 3797 
Q 1122 3375 1075 2522 
Q 1259 2794 1537 2939 
Q 1816 3084 2150 3084 
Q 2853 3084 3261 2657 
Q 3669 2231 3669 1497 
Q 3669 778 3244 343 
Q 2819 -91 2113 -91 
Q 1303 -91 875 529 
Q 447 1150 447 2328 
Q 447 3434 972 4092 
Q 1497 4750 2381 4750 
Q 2619 4750 2861 4703 
Q 3103 4656 3366 4563 
z
" transform="scale(0.015625)"/>
       </defs>
       <use xlink:href="#DejaVuSans-36"/>
      </g>
     </g>
    </g>
    <g id="xtick_14">
     <g id="line2d_18">
      <g>
       <use xlink:href="#mcf9ce05d31" x="350.539336" y="124.92" style="stroke: #000000; stroke-width: 0.8"/>
      </g>
     </g>
     <g id="text_11">
      <!-- 8 -->
      <g transform="translate(347.358086 139.518438) scale(0.1 -0.1)">
       <defs>
        <path id="DejaVuSans-38" d="M 2034 2216 
Q 1584 2216 1326 1975 
Q 1069 1734 1069 1313 
Q 1069 891 1326 650 
Q 1584 409 2034 409 
Q 2484 409 2743 651 
Q 3003 894 3003 1313 
Q 3003 1734 2745 1975 
Q 2488 2216 2034 2216 
z
M 1403 2484 
Q 997 2584 770 2862 
Q 544 3141 544 3541 
Q 544 4100 942 4425 
Q 1341 4750 2034 4750 
Q 2731 4750 3128 4425 
Q 3525 4100 3525 3541 
Q 3525 3141 3298 2862 
Q 3072 2584 2669 2484 
Q 3125 2378 3379 2068 
Q 3634 1759 3634 1313 
Q 3634 634 3220 271 
Q 2806 -91 2034 -91 
Q 1263 -91 848 271 
Q 434 634 434 1313 
Q 434 1759 690 2068 
Q 947 2378 1403 2484 
z
M 1172 3481 
Q 1172 3119 1398 2916 
Q 1625 2713 2034 2713 
Q 2441 2713 2670 2916 
Q 2900 3119 2900 3481 
Q 2900 3844 2670 4047 
Q 2441 4250 2034 4250 
Q 1625 4250 1398 4047 
Q 1172 3844 1172 3481 
z
" transform="scale(0.015625)"/>
       </defs>
       <use xlink:href="#DejaVuSans-38"/>
      </g>
     </g>
    </g>
   </g>
   <g id="matplotlib.axis_4">
    <g id="ytick_3">
     <g id="line2d_19">
      <g>
       <use xlink:href="#mdc6a631fe4" x="45.13" y="124.92" style="stroke: #000000; stroke-width: 0.8"/>
      </g>
     </g>
     <g id="text_12">
      <!-- 0.00 -->
      <g transform="translate(15.864375 128.719219) scale(0.1 -0.1)">
       <use xlink:href="#DejaVuSans-30"/>
       <use xlink:href="#DejaVuSans-2e" x="63.623047"/>
       <use xlink:href="#DejaVuSans-30" x="95.410156"/>
       <use xlink:href="#DejaVuSans-30" x="159.033203"/>
      </g>
     </g>
    </g>
    <g id="ytick_4">
     <g id="line2d_20">
      <g>
       <use xlink:href="#mdc6a631fe4" x="45.13" y="90.602867" style="stroke: #000000; stroke-width: 0.8"/>
      </g>
     </g>
     <g id="text_13">
      <!-- 0.25 -->
      <g transform="translate(15.864375 94.402086) scale(0.1 -0.1)">
       <use xlink:href="#DejaVuSans-30"/>
       <use xlink:href="#DejaVuSans-2e" x="63.623047"/>
       <use xlink:href="#DejaVuSans-32" x="95.410156"/>
       <use xlink:href="#DejaVuSans-35" x="159.033203"/>
      </g>
     </g>
    </g>
    <g id="text_14">
     <!-- Density -->
     <g transform="translate(9.784688 115.228594) rotate(-90) scale(0.1 -0.1)">
      <use xlink:href="#DejaVuSans-44"/>
      <use xlink:href="#DejaVuSans-65" x="77.001953"/>
      <use xlink:href="#DejaVuSans-6e" x="138.525391"/>
      <use xlink:href="#DejaVuSans-73" x="201.904297"/>
      <use xlink:href="#DejaVuSans-69" x="254.003906"/>
      <use xlink:href="#DejaVuSans-74" x="281.787109"/>
      <use xlink:href="#DejaVuSans-79" x="320.996094"/>
     </g>
    </g>
   </g>
   <g id="line2d_21">
    <path d="M 160.536152 124.79447 
L 170.240261 124.654915 
L 179.062179 124.147704 
L 187.884096 123.591713 
L 190.530671 123.137549 
L 193.177246 122.455946 
L 201.116972 119.959025 
L 203.763547 119.029926 
L 205.52793 118.2423 
L 207.292314 117.258024 
L 209.056697 116.064901 
L 211.703272 113.957363 
L 216.996423 109.289747 
L 222.289573 104.403915 
L 225.81834 100.838478 
L 238.169024 87.788024 
L 244.344366 80.904257 
L 246.990941 78.405789 
L 248.755324 77.026225 
L 250.519708 75.917059 
L 252.284091 75.125549 
L 254.048475 74.704826 
L 255.812858 74.686416 
L 257.577242 75.0515 
L 259.341625 75.725809 
L 261.9882 77.092313 
L 265.516967 79.198083 
L 269.045734 81.567537 
L 271.692309 83.659367 
L 273.456693 85.281332 
L 275.221076 87.13916 
L 276.98546 89.264069 
L 279.632035 92.913532 
L 284.925185 100.547692 
L 286.689568 102.682006 
L 288.453952 104.479719 
L 290.218335 105.963306 
L 292.86491 107.771208 
L 298.158061 111.094181 
L 300.804636 113.056875 
L 306.979978 117.930773 
L 308.744361 119.062426 
L 310.508745 119.990045 
L 312.273128 120.725704 
L 314.919703 121.562549 
L 319.330662 122.629826 
L 323.741621 123.516228 
L 327.270388 124.002416 
L 331.681346 124.326764 
L 336.092305 124.542274 
L 336.092305 124.542274 
" clip-path="url(#p631239fcf4)" style="fill: none; stroke: #0000ff; stroke-width: 1.5; stroke-linecap: square"/>
   </g>
   <g id="line2d_22">
    <path d="M 167.386856 124.747685 
L 189.546628 124.256792 
L 192.2058 123.93469 
L 194.864973 123.405705 
L 197.524145 122.64396 
L 200.183318 121.671359 
L 204.615272 119.748394 
L 209.047226 117.569835 
L 211.706399 116.012352 
L 213.479181 114.779053 
L 215.251962 113.334931 
L 217.024744 111.641618 
L 218.797526 109.678626 
L 221.456698 106.261993 
L 230.320607 94.037292 
L 234.752561 88.823827 
L 239.184515 83.81484 
L 241.843688 81.152566 
L 243.61647 79.648003 
L 245.389251 78.374347 
L 247.162033 77.303563 
L 249.821206 76.002949 
L 251.593987 75.330666 
L 253.366769 74.853705 
L 255.139551 74.625169 
L 256.912333 74.679086 
L 258.685114 75.006872 
L 260.457896 75.562885 
L 263.117069 76.721787 
L 264.88985 77.69614 
L 266.662632 78.867768 
L 268.435414 80.27663 
L 270.208195 81.934527 
L 272.867368 84.80358 
L 278.185713 91.05976 
L 281.731277 95.501246 
L 288.822403 105.012007 
L 290.595185 106.871238 
L 292.367967 108.39352 
L 294.140748 109.646681 
L 296.799921 111.236995 
L 311.868566 119.554602 
L 315.414129 121.030539 
L 318.959692 122.254729 
L 322.505256 123.272363 
L 326.050819 124.055821 
L 329.596383 124.558285 
L 333.141946 124.793574 
L 337.5739 124.844073 
L 343.778636 124.799517 
L 343.778636 124.799517 
" clip-path="url(#p631239fcf4)" style="fill: none; stroke: #ff0000; stroke-width: 1.5; stroke-linecap: square"/>
   </g>
   <g id="patch_209">
    <path d="M 45.13 124.92 
L 45.13 67.52 
" style="fill: none; stroke: #000000; stroke-width: 0.8; stroke-linejoin: miter; stroke-linecap: square"/>
   </g>
   <g id="patch_210">
    <path d="M 358 124.92 
L 358 67.52 
" style="fill: none; stroke: #000000; stroke-width: 0.8; stroke-linejoin: miter; stroke-linecap: square"/>
   </g>
   <g id="patch_211">
    <path d="M 45.13 124.92 
L 358 124.92 
" style="fill: none; stroke: #000000; stroke-width: 0.8; stroke-linejoin: miter; stroke-linecap: square"/>
   </g>
   <g id="patch_212">
    <path d="M 45.13 67.52 
L 358 67.52 
" style="fill: none; stroke: #000000; stroke-width: 0.8; stroke-linejoin: miter; stroke-linecap: square"/>
   </g>
   <g id="legend_2">
    <g id="patch_213">
     <path d="M 52.13 104.87625 
L 179.212812 104.87625 
Q 181.212812 104.87625 181.212812 102.87625 
L 181.212812 74.52 
Q 181.212812 72.52 179.212812 72.52 
L 52.13 72.52 
Q 50.13 72.52 50.13 74.52 
L 50.13 102.87625 
Q 50.13 104.87625 52.13 104.87625 
z
" style="fill: #ffffff; opacity: 0.8; stroke: #cccccc; stroke-linejoin: miter"/>
    </g>
    <g id="line2d_23">
     <path d="M 54.13 80.618438 
L 64.13 80.618438 
L 74.13 80.618438 
" style="fill: none; stroke: #0000ff; stroke-width: 1.5; stroke-linecap: square"/>
    </g>
    <g id="text_15">
     <!-- Guidance -->
     <g transform="translate(82.13 84.118438) scale(0.1 -0.1)">
      <defs>
       <path id="DejaVuSans-47" d="M 3809 666 
L 3809 1919 
L 2778 1919 
L 2778 2438 
L 4434 2438 
L 4434 434 
Q 4069 175 3628 42 
Q 3188 -91 2688 -91 
Q 1594 -91 976 548 
Q 359 1188 359 2328 
Q 359 3472 976 4111 
Q 1594 4750 2688 4750 
Q 3144 4750 3555 4637 
Q 3966 4525 4313 4306 
L 4313 3634 
Q 3963 3931 3569 4081 
Q 3175 4231 2741 4231 
Q 1884 4231 1454 3753 
Q 1025 3275 1025 2328 
Q 1025 1384 1454 906 
Q 1884 428 2741 428 
Q 3075 428 3337 486 
Q 3600 544 3809 666 
z
" transform="scale(0.015625)"/>
      </defs>
      <use xlink:href="#DejaVuSans-47"/>
      <use xlink:href="#DejaVuSans-75" x="77.490234"/>
      <use xlink:href="#DejaVuSans-69" x="140.869141"/>
      <use xlink:href="#DejaVuSans-64" x="168.652344"/>
      <use xlink:href="#DejaVuSans-61" x="232.128906"/>
      <use xlink:href="#DejaVuSans-6e" x="293.408203"/>
      <use xlink:href="#DejaVuSans-63" x="356.787109"/>
      <use xlink:href="#DejaVuSans-65" x="411.767578"/>
     </g>
    </g>
    <g id="line2d_24">
     <path d="M 54.13 95.296563 
L 64.13 95.296563 
L 74.13 95.296563 
" style="fill: none; stroke: #ff0000; stroke-width: 1.5; stroke-linecap: square"/>
    </g>
    <g id="text_16">
     <!-- Rejection sampling -->
     <g transform="translate(82.13 98.796563) scale(0.1 -0.1)">
      <defs>
       <path id="DejaVuSans-52" d="M 2841 2188 
Q 3044 2119 3236 1894 
Q 3428 1669 3622 1275 
L 4263 0 
L 3584 0 
L 2988 1197 
Q 2756 1666 2539 1819 
Q 2322 1972 1947 1972 
L 1259 1972 
L 1259 0 
L 628 0 
L 628 4666 
L 2053 4666 
Q 2853 4666 3247 4331 
Q 3641 3997 3641 3322 
Q 3641 2881 3436 2590 
Q 3231 2300 2841 2188 
z
M 1259 4147 
L 1259 2491 
L 2053 2491 
Q 2509 2491 2742 2702 
Q 2975 2913 2975 3322 
Q 2975 3731 2742 3939 
Q 2509 4147 2053 4147 
L 1259 4147 
z
" transform="scale(0.015625)"/>
       <path id="DejaVuSans-6a" d="M 603 3500 
L 1178 3500 
L 1178 -63 
Q 1178 -731 923 -1031 
Q 669 -1331 103 -1331 
L -116 -1331 
L -116 -844 
L 38 -844 
Q 366 -844 484 -692 
Q 603 -541 603 -63 
L 603 3500 
z
M 603 4863 
L 1178 4863 
L 1178 4134 
L 603 4134 
L 603 4863 
z
" transform="scale(0.015625)"/>
       <path id="DejaVuSans-6d" d="M 3328 2828 
Q 3544 3216 3844 3400 
Q 4144 3584 4550 3584 
Q 5097 3584 5394 3201 
Q 5691 2819 5691 2113 
L 5691 0 
L 5113 0 
L 5113 2094 
Q 5113 2597 4934 2840 
Q 4756 3084 4391 3084 
Q 3944 3084 3684 2787 
Q 3425 2491 3425 1978 
L 3425 0 
L 2847 0 
L 2847 2094 
Q 2847 2600 2669 2842 
Q 2491 3084 2119 3084 
Q 1678 3084 1418 2786 
Q 1159 2488 1159 1978 
L 1159 0 
L 581 0 
L 581 3500 
L 1159 3500 
L 1159 2956 
Q 1356 3278 1631 3431 
Q 1906 3584 2284 3584 
Q 2666 3584 2933 3390 
Q 3200 3197 3328 2828 
z
" transform="scale(0.015625)"/>
       <path id="DejaVuSans-70" d="M 1159 525 
L 1159 -1331 
L 581 -1331 
L 581 3500 
L 1159 3500 
L 1159 2969 
Q 1341 3281 1617 3432 
Q 1894 3584 2278 3584 
Q 2916 3584 3314 3078 
Q 3713 2572 3713 1747 
Q 3713 922 3314 415 
Q 2916 -91 2278 -91 
Q 1894 -91 1617 61 
Q 1341 213 1159 525 
z
M 3116 1747 
Q 3116 2381 2855 2742 
Q 2594 3103 2138 3103 
Q 1681 3103 1420 2742 
Q 1159 2381 1159 1747 
Q 1159 1113 1420 752 
Q 1681 391 2138 391 
Q 2594 391 2855 752 
Q 3116 1113 3116 1747 
z
" transform="scale(0.015625)"/>
       <path id="DejaVuSans-6c" d="M 603 4863 
L 1178 4863 
L 1178 0 
L 603 0 
L 603 4863 
z
" transform="scale(0.015625)"/>
      </defs>
      <use xlink:href="#DejaVuSans-52"/>
      <use xlink:href="#DejaVuSans-65" x="64.982422"/>
      <use xlink:href="#DejaVuSans-6a" x="126.505859"/>
      <use xlink:href="#DejaVuSans-65" x="154.289062"/>
      <use xlink:href="#DejaVuSans-63" x="215.8125"/>
      <use xlink:href="#DejaVuSans-74" x="270.792969"/>
      <use xlink:href="#DejaVuSans-69" x="310.001953"/>
      <use xlink:href="#DejaVuSans-6f" x="337.785156"/>
      <use xlink:href="#DejaVuSans-6e" x="398.966797"/>
      <use xlink:href="#DejaVuSans-20" x="462.345703"/>
      <use xlink:href="#DejaVuSans-73" x="494.132812"/>
      <use xlink:href="#DejaVuSans-61" x="546.232422"/>
      <use xlink:href="#DejaVuSans-6d" x="607.511719"/>
      <use xlink:href="#DejaVuSans-70" x="704.923828"/>
      <use xlink:href="#DejaVuSans-6c" x="768.400391"/>
      <use xlink:href="#DejaVuSans-69" x="796.183594"/>
      <use xlink:href="#DejaVuSans-6e" x="823.966797"/>
      <use xlink:href="#DejaVuSans-67" x="887.345703"/>
     </g>
    </g>
   </g>
  </g>
 </g>
 <defs>
  <clipPath id="pf62fc0bae2">
   <rect x="45.13" y="2" width="312.87" height="57.4"/>
  </clipPath>
  <clipPath id="p631239fcf4">
   <rect x="45.13" y="67.52" width="312.87" height="57.4"/>
  </clipPath>
 </defs>
</svg>
